{"glyphs":{"0":{"ha":754,"x_min":76,"x_max":678,"o":"m 678 286 q 591 71 678 150 q 378 -8 504 -8 q 164 71 251 -8 q 76 286 76 150 l 76 703 q 164 918 76 839 q 378 997 251 997 q 591 918 504 997 q 678 703 678 839 l 678 286 m 497 288 l 497 700 q 465 799 497 763 q 378 835 432 835 q 290 798 324 835 q 257 700 257 761 l 257 288 q 290 190 257 226 q 378 154 324 154 q 465 190 432 154 q 497 288 497 226 z "},"1":{"ha":754,"x_min":143,"x_max":525,"o":"m 525 0 l 344 0 l 344 794 l 143 619 l 143 814 l 344 989 l 525 989 l 525 0 z "},"2":{"ha":754,"x_min":82,"x_max":683,"o":"m 683 0 l 82 0 l 82 163 l 451 592 q 503 711 503 653 q 472 801 503 767 q 383 835 440 835 q 297 805 332 835 q 263 708 263 775 l 82 708 q 167 919 82 840 q 383 997 253 997 q 600 919 517 997 q 683 710 683 842 q 660 597 683 643 q 578 483 636 551 l 301 163 l 683 163 l 683 0 z "},"3":{"ha":754,"x_min":58,"x_max":688,"o":"m 688 286 q 598 68 688 144 q 374 -8 508 -8 q 151 65 242 -8 q 58 283 60 138 l 239 283 q 278 187 240 219 q 374 154 317 154 q 470 190 433 154 q 507 292 507 226 q 470 391 507 354 q 368 428 433 428 l 342 428 l 342 585 l 368 585 q 462 619 431 585 q 493 708 493 653 q 458 801 493 768 q 372 835 424 835 q 287 803 321 835 q 250 715 253 771 l 69 715 q 158 921 72 844 q 372 997 244 997 q 589 918 504 997 q 674 714 674 839 q 560 511 674 572 q 688 286 688 443 z "},"4":{"ha":754,"x_min":43,"x_max":711,"o":"m 711 140 l 621 140 l 621 0 l 447 0 l 447 140 l 43 140 l 43 311 l 382 989 l 579 989 l 240 311 l 447 311 l 447 496 l 621 496 l 621 311 l 711 311 l 711 140 z "},"5":{"ha":754,"x_min":79,"x_max":686,"o":"m 686 333 q 668 183 686 243 q 599 72 650 124 q 381 -8 518 -8 q 160 71 239 -8 q 79 276 89 142 l 260 276 q 381 154 275 154 q 467 186 435 154 q 506 333 506 225 q 385 511 506 511 q 265 431 292 511 l 100 431 l 100 989 l 664 989 l 664 826 l 264 826 l 264 614 q 413 664 317 664 q 597 597 531 664 q 686 333 686 508 z "},"6":{"ha":754,"x_min":67,"x_max":683,"o":"m 683 300 q 597 74 683 157 q 375 -8 510 -8 q 153 73 240 -8 q 67 297 67 154 q 150 561 67 392 l 358 989 l 556 989 l 350 581 q 424 593 381 593 q 606 513 529 593 q 683 300 683 432 m 503 299 q 467 403 503 364 q 375 443 432 443 q 283 404 318 443 q 247 299 247 365 q 283 193 247 232 q 375 154 318 154 q 467 193 432 154 q 503 299 503 232 z "},"7":{"ha":754,"x_min":69,"x_max":699,"o":"m 699 826 l 378 0 l 182 0 l 503 826 l 242 826 l 242 671 l 69 671 l 69 989 l 699 989 l 699 826 z "},"8":{"ha":754,"x_min":61,"x_max":694,"o":"m 569 510 q 694 288 694 426 q 605 70 694 149 q 378 -8 515 -8 q 151 70 240 -8 q 61 288 61 149 q 185 510 61 428 q 74 715 74 588 q 162 920 74 843 q 378 997 250 997 q 593 920 506 997 q 681 715 681 843 q 569 510 681 588 m 474 194 q 494 214 474 194 q 514 290 514 233 q 474 388 514 347 q 378 428 435 428 q 281 388 321 428 q 242 290 242 347 q 281 194 242 233 q 378 154 321 154 q 474 194 435 154 m 500 710 q 465 799 500 763 q 378 835 431 835 q 290 799 325 835 q 254 710 254 763 q 290 620 254 656 q 378 585 325 585 q 465 620 431 585 q 500 710 500 656 z "},"9":{"ha":754,"x_min":71,"x_max":688,"o":"m 688 692 q 606 428 688 594 l 396 0 l 200 0 l 406 408 q 332 396 375 396 q 149 476 226 396 q 71 689 71 557 q 158 915 71 832 q 379 997 244 997 q 601 916 514 997 q 688 692 688 835 m 472 585 q 489 604 472 585 q 507 690 507 624 q 472 796 507 757 q 379 835 436 835 q 287 796 322 835 q 251 690 251 757 q 287 585 251 625 q 379 546 322 546 q 472 585 436 546 z "},"\u0000":{"ha":0,"x_min":0,"x_max":0,"o":""},"\r":{"ha":322,"x_min":0,"x_max":0,"o":""}," ":{"ha":322,"x_min":0,"x_max":0,"o":""},"!":{"ha":482,"x_min":156,"x_max":379,"o":"m 379 989 l 333 310 l 200 310 l 156 989 l 379 989 m 371 0 l 164 0 l 164 206 l 371 206 l 371 0 z "},"\"":{"ha":644,"x_min":94,"x_max":549,"o":"m 264 696 l 94 696 l 94 989 l 264 989 l 264 696 m 549 696 l 381 696 l 381 989 l 549 989 l 549 696 z "},"#":{"ha":960,"x_min":83,"x_max":893,"o":"m 893 583 l 769 583 l 747 433 l 843 433 l 843 264 l 719 264 l 678 0 l 488 0 l 531 264 l 369 264 l 328 0 l 138 0 l 179 264 l 83 264 l 83 433 l 207 433 l 229 583 l 132 583 l 132 751 l 256 751 l 294 997 l 485 997 l 446 751 l 607 751 l 646 997 l 835 997 l 797 751 l 893 751 l 893 583 m 579 583 l 419 583 l 396 433 l 557 433 l 579 583 z "},"$":{"ha":860,"x_min":26,"x_max":793,"o":"m 793 292 q 711 91 793 168 q 494 -3 629 14 l 494 -158 l 354 -158 l 354 -8 q 26 122 149 -1 l 151 247 q 372 164 231 168 l 372 415 l 328 421 q 136 504 203 438 q 65 697 65 575 q 142 899 65 818 q 354 994 219 981 l 354 1119 l 494 1119 l 494 996 q 768 882 661 986 l 646 761 q 475 828 585 819 l 475 586 l 528 578 q 717 500 654 558 q 793 292 793 428 m 604 286 q 574 369 604 340 q 475 406 547 394 l 475 167 q 604 286 604 182 m 372 594 l 372 826 q 283 785 314 818 q 251 704 251 751 q 281 633 251 661 q 372 594 313 603 z "},"%":{"ha":1178,"x_min":72,"x_max":1106,"o":"m 1106 182 q 1048 42 1106 92 q 904 -8 990 -8 q 760 42 818 -8 q 703 182 703 92 l 703 319 q 760 460 703 410 q 904 510 818 510 q 1048 460 990 510 q 1106 319 1106 410 l 1106 182 m 475 669 q 417 529 475 579 q 274 479 360 479 q 130 529 188 479 q 72 669 72 579 l 72 807 q 130 947 72 897 q 274 997 188 997 q 417 947 360 997 q 475 807 475 897 l 475 669 m 894 989 l 426 0 l 285 0 l 753 989 l 894 989 m 975 188 l 975 314 q 904 393 975 393 q 833 314 833 393 l 833 188 q 904 108 833 108 q 975 188 975 108 m 344 675 l 344 801 q 274 881 344 881 q 203 801 203 881 l 203 675 q 274 596 203 596 q 344 675 344 596 z "},"&":{"ha":1001,"x_min":83,"x_max":967,"o":"m 967 0 l 738 0 l 665 86 q 608 43 629 57 q 531 10 588 29 q 410 -8 475 -8 q 166 71 249 -8 q 83 292 83 150 q 261 557 83 439 q 163 767 163 669 q 233 933 163 869 q 426 997 304 997 q 610 932 542 997 q 679 764 679 867 q 578 592 679 665 q 507 540 532 557 l 674 343 q 724 517 719 404 l 894 517 q 789 210 883 315 l 967 0 m 556 214 l 358 446 q 283 376 307 410 q 258 294 258 343 q 301 194 258 233 q 408 156 344 156 q 556 214 489 156 m 508 763 q 486 820 508 797 q 426 843 464 843 q 366 821 388 843 q 344 763 344 799 q 355 725 344 746 q 376 691 365 704 q 410 651 386 678 l 451 679 q 508 763 508 719 z "},"'":{"ha":360,"x_min":94,"x_max":265,"o":"m 265 696 l 94 696 l 94 989 l 265 989 l 265 696 z "},"(":{"ha":467,"x_min":111,"x_max":390,"o":"m 390 -10 l 269 -131 q 147 13 178 -39 q 111 192 111 75 l 111 797 q 147 976 111 914 q 269 1119 178 1028 l 390 999 q 313 906 335 943 q 292 789 292 868 l 292 200 q 313 83 292 121 q 390 -10 335 46 z "},")":{"ha":467,"x_min":75,"x_max":356,"o":"m 356 192 q 319 13 356 75 q 197 -131 289 -39 l 75 -8 q 153 83 133 50 q 174 200 174 121 l 174 789 q 153 906 174 868 q 75 997 133 939 l 197 1119 q 319 976 289 1028 q 356 797 356 914 l 356 192 z "},"*":{"ha":686,"x_min":76,"x_max":611,"o":"m 611 639 l 547 529 l 401 621 l 407 447 l 279 447 l 286 621 l 139 529 l 76 639 l 229 719 l 76 800 l 139 911 l 286 818 l 279 992 l 407 992 l 401 818 l 547 911 l 611 800 l 457 719 l 611 639 z "},"+":{"ha":754,"x_min":69,"x_max":685,"o":"m 685 300 l 463 300 l 463 78 l 293 78 l 293 300 l 69 300 l 69 469 l 293 469 l 293 692 l 463 692 l 463 469 l 685 469 l 685 300 z "},",":{"ha":388,"x_min":94,"x_max":293,"o":"m 293 -76 l 94 -229 l 94 197 l 293 197 l 293 -76 z "},"-":{"ha":592,"x_min":82,"x_max":510,"o":"m 510 313 l 82 313 l 82 481 l 510 481 l 510 313 z "},".":{"ha":396,"x_min":94,"x_max":301,"o":"m 301 0 l 94 0 l 94 206 l 301 206 l 301 0 z "},"/":{"ha":560,"x_min":0,"x_max":565,"o":"m 565 1092 l 169 -103 l 0 -103 l 396 1092 l 565 1092 z "},":":{"ha":429,"x_min":129,"x_max":335,"o":"m 335 376 l 129 376 l 129 582 l 335 582 l 335 376 m 335 0 l 129 0 l 129 206 l 335 206 l 335 0 z "},";":{"ha":429,"x_min":129,"x_max":335,"o":"m 331 -76 l 133 -229 l 133 197 l 331 197 l 331 -76 m 335 376 l 129 376 l 129 582 l 335 582 l 335 376 z "},"<":{"ha":754,"x_min":96,"x_max":660,"o":"m 660 58 l 96 318 l 96 475 l 660 735 l 660 544 l 325 396 l 660 249 l 660 58 z "},"=":{"ha":754,"x_min":69,"x_max":685,"o":"m 685 463 l 69 463 l 69 632 l 685 632 l 685 463 m 685 161 l 69 161 l 69 331 l 685 331 l 685 161 z "},">":{"ha":754,"x_min":96,"x_max":660,"o":"m 660 318 l 96 58 l 96 249 l 431 396 l 96 544 l 96 735 l 660 475 l 660 318 z "},"?":{"ha":726,"x_min":92,"x_max":676,"o":"m 676 719 q 608 546 676 636 l 506 410 q 481 339 481 378 l 481 310 l 300 310 l 300 351 q 353 496 300 426 l 456 628 q 496 721 496 681 q 465 803 496 771 q 383 835 435 835 q 301 802 331 835 q 272 719 272 769 l 92 719 q 175 922 92 846 q 383 997 258 997 q 592 922 507 997 q 676 719 676 847 m 486 0 l 294 0 l 294 185 l 486 185 l 486 0 z "},"@":{"ha":1053,"x_min":79,"x_max":972,"o":"m 972 -4 l 804 0 l 804 64 q 638 -8 738 -8 q 463 61 528 -8 q 410 161 422 104 q 397 321 397 218 q 410 478 397 422 q 461 578 422 535 q 636 649 525 649 q 800 581 738 649 l 800 643 q 751 785 800 736 q 613 833 703 833 l 440 833 q 301 785 350 833 q 253 643 253 736 l 253 242 q 266 163 253 190 q 314 104 279 135 l 189 -21 q 103 88 128 35 q 79 232 79 140 l 79 647 q 165 910 79 824 q 426 994 250 994 l 626 994 q 888 910 803 994 q 972 647 972 825 l 972 -4 m 774 188 q 787 210 774 188 q 800 321 800 233 q 774 453 800 408 q 685 499 749 499 q 596 454 621 499 q 571 321 571 410 q 596 187 571 232 q 685 142 621 142 q 774 188 749 142 z "},"A":{"ha":886,"x_min":7,"x_max":879,"o":"m 879 0 l 678 0 l 619 175 l 268 175 l 208 0 l 7 0 l 367 989 l 518 989 l 879 0 m 568 338 l 447 697 l 322 338 l 568 338 z "},"B":{"ha":914,"x_min":115,"x_max":832,"o":"m 832 285 q 749 75 832 150 q 529 0 665 0 l 115 0 l 115 989 l 513 989 q 737 914 656 989 q 818 711 818 839 q 780 583 818 636 q 696 507 742 529 q 832 285 832 443 m 606 207 q 622 224 606 207 q 639 294 639 242 q 606 381 639 347 q 510 415 572 415 l 308 415 l 308 172 l 510 172 q 606 207 572 172 m 592 620 q 608 636 592 620 q 625 703 625 651 q 592 785 625 754 q 497 817 558 817 l 308 817 l 308 589 l 497 589 q 592 620 558 589 z "},"C":{"ha":861,"x_min":82,"x_max":810,"o":"m 810 304 q 688 74 785 156 q 446 -8 590 -8 q 179 100 288 -8 q 99 249 115 164 q 82 494 82 332 q 99 740 82 657 q 179 889 115 825 q 446 997 288 997 q 688 915 590 997 q 810 685 785 833 l 614 685 q 447 825 579 825 q 324 774 367 825 q 284 690 293 742 q 275 494 275 638 q 284 299 275 351 q 324 215 293 247 q 447 164 367 164 q 614 304 579 164 l 810 304 z "},"D":{"ha":915,"x_min":115,"x_max":833,"o":"m 833 547 q 833 527 833 547 q 833 499 833 507 q 833 451 833 490 q 833 400 833 411 q 832 353 833 389 q 828 304 831 318 q 821 261 825 290 q 809 215 817 232 q 791 174 801 197 q 766 131 781 150 q 733 94 751 113 q 472 0 639 0 l 115 0 l 115 989 l 472 989 q 733 894 639 989 q 766 858 751 876 q 791 816 781 839 q 809 776 801 793 q 821 731 817 760 q 828 690 825 703 q 832 642 831 676 q 833 597 833 607 q 833 547 833 586 m 640 499 q 633 670 640 617 q 599 756 625 724 q 454 817 549 817 l 308 817 l 308 172 l 454 172 q 599 233 549 172 q 633 322 625 265 q 640 499 640 378 z "},"E":{"ha":840,"x_min":115,"x_max":767,"o":"m 767 0 l 115 0 l 115 989 l 767 989 l 767 817 l 308 817 l 308 585 l 699 585 l 699 413 l 308 413 l 308 172 l 767 172 l 767 0 z "},"F":{"ha":819,"x_min":115,"x_max":767,"o":"m 767 817 l 308 817 l 308 574 l 699 574 l 699 401 l 308 401 l 308 0 l 115 0 l 115 989 l 767 989 l 767 817 z "},"G":{"ha":885,"x_min":82,"x_max":819,"o":"m 819 406 q 798 228 819 297 q 725 104 776 158 q 446 -8 614 -8 q 179 100 288 -8 q 99 249 115 164 q 82 494 82 332 q 99 740 82 657 q 179 889 115 825 q 446 997 288 997 q 701 908 606 997 q 818 681 797 819 l 624 681 q 446 825 588 825 q 322 772 368 825 q 284 685 293 736 q 275 494 275 635 q 284 301 275 351 q 322 215 293 250 q 446 164 365 164 q 583 219 532 164 q 628 351 628 271 l 628 389 l 446 389 l 446 550 l 819 550 l 819 406 z "},"H":{"ha":951,"x_min":115,"x_max":836,"o":"m 836 0 l 643 0 l 643 414 l 308 414 l 308 0 l 115 0 l 115 989 l 308 989 l 308 585 l 643 585 l 643 989 l 836 989 l 836 0 z "},"I":{"ha":424,"x_min":115,"x_max":308,"o":"m 308 0 l 115 0 l 115 989 l 308 989 l 308 0 z "},"J":{"ha":710,"x_min":4,"x_max":607,"o":"m 607 325 q 506 80 607 168 q 258 -8 404 -8 q 118 15 178 -8 q 4 93 58 39 l 132 219 q 258 164 188 164 q 372 207 331 164 q 414 333 414 250 l 414 989 l 607 989 l 607 325 z "},"K":{"ha":924,"x_min":115,"x_max":915,"o":"m 915 0 l 690 0 l 436 450 l 308 297 l 308 0 l 115 0 l 115 989 l 308 989 l 308 558 l 657 989 l 892 989 l 564 596 l 915 0 z "},"L":{"ha":799,"x_min":115,"x_max":757,"o":"m 757 0 l 115 0 l 115 989 l 308 989 l 308 172 l 757 172 l 757 0 z "},"M":{"ha":1126,"x_min":115,"x_max":1011,"o":"m 1011 0 l 818 0 l 818 576 l 629 201 l 499 201 l 308 576 l 308 0 l 115 0 l 115 989 l 306 989 l 564 454 l 821 989 l 1011 989 l 1011 0 z "},"N":{"ha":988,"x_min":115,"x_max":872,"o":"m 872 0 l 700 0 l 308 607 l 308 0 l 115 0 l 115 989 l 288 989 l 679 383 l 679 989 l 872 989 l 872 0 z "},"O":{"ha":894,"x_min":82,"x_max":813,"o":"m 811 618 q 812 599 811 618 q 813 494 813 579 q 811 371 813 410 q 801 274 810 332 q 772 176 793 217 q 714 100 750 136 q 447 -8 606 -8 q 179 100 288 -8 q 122 176 143 136 q 93 275 101 215 q 83 371 85 335 q 82 494 82 407 q 83 618 82 582 q 93 714 85 654 q 122 813 101 774 q 179 889 143 853 q 447 997 288 997 q 714 889 606 997 q 772 813 750 853 q 801 715 793 772 q 811 618 810 657 m 610 302 q 615 329 610 302 q 619 494 619 356 q 610 687 619 633 q 571 772 600 740 q 447 825 525 825 q 322 772 368 825 q 284 688 293 740 q 275 494 275 635 q 284 301 275 354 q 322 217 293 249 q 447 164 368 164 q 571 217 525 164 q 610 302 600 249 z "},"P":{"ha":872,"x_min":115,"x_max":825,"o":"m 736 900 q 781 856 736 900 q 825 681 825 811 q 736 461 825 550 q 499 372 647 372 l 308 372 l 308 0 l 115 0 l 115 989 l 499 989 q 736 900 647 989 m 593 583 q 613 601 593 583 q 632 681 632 619 q 593 779 632 742 q 489 817 554 817 l 308 817 l 308 546 l 489 546 q 593 583 554 546 z "},"Q":{"ha":893,"x_min":82,"x_max":836,"o":"m 836 60 l 735 -42 l 647 46 q 447 -8 564 -8 q 179 100 288 -8 q 122 176 143 136 q 93 275 101 215 q 83 371 85 335 q 82 494 82 407 q 83 618 82 582 q 93 714 85 654 q 122 813 101 774 q 179 889 143 853 q 447 997 288 997 q 714 889 606 997 q 772 813 750 853 q 801 715 793 772 q 811 618 810 657 q 813 494 813 579 q 810 353 813 397 q 794 248 808 308 q 751 144 781 188 l 836 60 m 619 494 q 610 687 619 633 q 571 772 600 740 q 447 825 525 825 q 322 772 368 825 q 284 688 293 740 q 275 494 275 635 q 284 301 275 354 q 322 217 293 249 q 447 164 368 164 q 511 182 485 164 l 425 267 l 528 368 l 601 294 q 619 494 619 346 z "},"R":{"ha":908,"x_min":115,"x_max":864,"o":"m 864 0 l 640 0 l 447 394 l 308 394 l 308 0 l 115 0 l 115 989 l 503 989 q 737 901 650 989 q 824 686 824 814 q 772 521 824 588 q 643 426 721 454 l 864 0 m 592 592 q 611 610 592 592 q 631 686 631 628 q 592 781 631 744 q 490 817 553 817 l 308 817 l 308 556 l 490 556 q 592 592 553 556 z "},"S":{"ha":821,"x_min":26,"x_max":754,"o":"m 754 292 q 651 72 754 151 q 388 -8 547 -8 q 183 22 269 -8 q 26 122 97 51 l 151 247 q 390 164 235 164 q 565 286 565 164 q 535 369 565 340 q 447 404 507 394 l 328 421 q 136 503 201 439 q 65 697 65 574 q 158 915 65 832 q 410 997 251 997 q 729 882 610 997 l 607 761 q 404 829 536 829 q 291 794 331 829 q 251 704 251 758 q 281 633 251 661 q 372 594 314 603 l 489 578 q 678 501 614 560 q 754 292 754 429 z "},"T":{"ha":793,"x_min":42,"x_max":751,"o":"m 751 817 l 493 817 l 493 0 l 300 0 l 300 817 l 42 817 l 42 989 l 751 989 l 751 817 z "},"U":{"ha":928,"x_min":100,"x_max":828,"o":"m 828 339 q 724 88 828 185 q 464 -8 619 -8 q 204 88 308 -8 q 100 339 100 185 l 100 989 l 293 989 l 293 346 q 339 213 293 261 q 464 164 385 164 q 590 213 543 164 q 636 346 636 261 l 636 989 l 828 989 l 828 339 z "},"V":{"ha":807,"x_min":4,"x_max":803,"o":"m 803 989 l 475 0 l 331 0 l 4 989 l 204 989 l 403 344 l 601 989 l 803 989 z "},"W":{"ha":1232,"x_min":8,"x_max":1224,"o":"m 1224 989 l 958 0 l 797 0 l 615 600 l 433 0 l 272 0 l 8 989 l 210 989 l 363 365 l 543 989 l 688 989 l 868 365 l 1022 989 l 1224 989 z "},"X":{"ha":838,"x_min":7,"x_max":831,"o":"m 831 0 l 610 0 l 418 344 l 228 0 l 7 0 l 314 507 l 26 989 l 246 989 l 418 669 l 592 989 l 810 989 l 522 507 l 831 0 z "},"Y":{"ha":794,"x_min":4,"x_max":790,"o":"m 790 989 l 493 406 l 493 0 l 301 0 l 301 406 l 4 989 l 214 989 l 399 590 l 581 989 l 790 989 z "},"Z":{"ha":761,"x_min":56,"x_max":706,"o":"m 706 0 l 56 0 l 56 156 l 478 817 l 74 817 l 74 989 l 706 989 l 706 836 l 282 172 l 706 172 l 706 0 z "},"[":{"ha":525,"x_min":111,"x_max":468,"o":"m 468 -103 l 111 -103 l 111 1092 l 468 1092 l 468 929 l 292 929 l 292 60 l 468 60 l 468 -103 z "},"\\":{"ha":560,"x_min":0,"x_max":560,"o":"m 560 -103 l 390 -103 l 0 1074 l 169 1074 l 560 -103 z "},"]":{"ha":525,"x_min":58,"x_max":415,"o":"m 415 -103 l 58 -103 l 58 58 l 235 58 l 235 931 l 58 931 l 58 1092 l 415 1092 l 415 -103 z "},"^":{"ha":836,"x_min":88,"x_max":749,"o":"m 749 540 l 560 540 l 418 801 l 276 540 l 88 540 l 335 999 l 501 999 l 749 540 z "},"_":{"ha":836,"x_min":0,"x_max":836,"o":"m 836 -247 l 0 -247 l 0 -126 l 836 -126 l 836 -247 z "},"`":{"ha":694,"x_min":144,"x_max":424,"o":"m 424 839 l 303 839 l 144 1075 l 335 1075 l 424 839 z "},"a":{"ha":742,"x_min":50,"x_max":649,"o":"m 649 0 l 472 0 l 472 63 q 395 9 435 25 q 294 -7 356 -7 q 110 57 174 -7 q 50 219 50 119 q 113 370 50 311 q 297 429 176 429 l 468 429 l 468 465 q 436 552 468 525 q 333 579 404 579 q 253 566 282 579 q 194 519 224 553 l 79 632 q 189 710 131 689 q 340 732 247 732 q 649 476 649 732 l 649 0 m 468 267 l 468 306 l 325 306 q 250 284 276 306 q 224 224 224 263 q 328 140 224 140 q 442 175 406 140 q 468 267 468 200 z "},"b":{"ha":778,"x_min":101,"x_max":707,"o":"m 704 477 q 706 456 704 477 q 707 363 707 435 q 704 248 707 290 q 684 148 701 206 q 633 57 667 90 q 457 -8 568 -8 q 276 68 344 -8 l 276 0 l 101 0 l 101 989 l 282 989 l 282 660 q 457 732 347 732 q 633 667 568 732 q 684 576 667 633 q 704 477 701 519 m 526 363 q 503 517 526 465 q 404 569 479 569 q 306 517 329 569 q 282 363 282 465 q 286 279 282 313 q 302 215 290 246 q 340 169 314 185 q 404 154 365 154 q 469 169 443 154 q 506 215 494 185 q 522 279 518 246 q 526 363 526 313 z "},"c":{"ha":667,"x_min":65,"x_max":628,"o":"m 628 90 q 389 -8 533 -8 q 300 2 343 -8 q 213 38 257 13 q 138 105 169 64 q 85 212 106 146 q 65 363 65 278 q 85 513 65 447 q 138 619 106 579 q 213 686 169 660 q 300 722 257 713 q 389 732 343 732 q 628 635 535 732 l 506 513 q 389 569 453 569 q 286 522 325 569 q 246 363 246 472 q 286 201 246 251 q 389 154 325 154 q 506 211 453 154 l 628 90 z "},"d":{"ha":779,"x_min":71,"x_max":678,"o":"m 678 0 l 501 0 l 501 68 q 322 -8 433 -8 q 144 57 210 -8 q 94 148 111 90 q 74 248 76 206 q 71 363 71 290 q 74 477 71 435 q 94 576 76 519 q 144 667 111 633 q 321 732 210 732 q 497 660 432 732 l 497 989 l 678 989 l 678 0 m 473 207 q 485 233 473 207 q 497 363 497 260 q 473 517 497 465 q 374 569 449 569 q 275 517 299 569 q 251 363 251 465 q 256 279 251 313 q 272 215 260 246 q 309 169 283 185 q 374 154 335 154 q 473 207 449 154 z "},"e":{"ha":761,"x_min":65,"x_max":696,"o":"m 696 306 l 243 306 q 285 189 243 233 q 401 144 328 144 q 494 160 458 144 q 565 213 529 176 l 675 106 q 554 19 615 46 q 400 -8 493 -8 q 274 9 331 -8 q 169 67 218 26 q 93 182 121 107 q 65 363 65 257 q 151 634 65 536 q 381 732 238 732 q 612 635 528 732 q 696 386 696 539 l 696 306 m 518 429 q 501 507 517 472 q 381 582 468 582 q 260 507 293 582 q 243 429 244 472 l 518 429 z "},"f":{"ha":475,"x_min":49,"x_max":438,"o":"m 438 565 l 304 565 l 304 0 l 124 0 l 124 565 l 49 565 l 49 703 l 124 703 l 124 793 q 178 939 124 878 q 335 1000 232 1000 l 438 1000 l 438 847 l 367 847 q 304 782 304 847 l 304 703 l 438 703 l 438 565 z "},"g":{"ha":771,"x_min":71,"x_max":669,"o":"m 669 26 q 583 -190 669 -106 q 351 -274 496 -274 q 204 -253 265 -274 q 89 -179 143 -232 l 201 -65 q 343 -121 258 -121 q 453 -77 418 -121 q 489 29 489 -33 l 489 103 q 317 31 424 31 q 144 94 208 31 q 84 206 97 142 q 71 382 71 271 q 84 557 71 493 q 144 668 97 621 q 318 732 208 732 q 494 656 425 732 l 494 724 l 669 724 l 669 26 m 489 382 q 465 519 489 469 q 369 569 442 569 q 306 555 331 569 q 270 511 282 540 q 255 453 258 482 q 251 382 251 424 q 255 311 251 340 q 269 253 258 282 q 306 208 281 224 q 369 193 331 193 q 433 208 408 193 q 469 253 458 224 q 485 311 481 282 q 489 382 489 340 z "},"h":{"ha":790,"x_min":101,"x_max":697,"o":"m 697 0 l 517 0 l 517 442 q 482 539 517 508 q 399 569 447 569 q 316 538 350 569 q 282 442 282 507 l 282 0 l 101 0 l 101 989 l 282 989 l 282 657 q 456 732 354 732 q 634 659 571 732 q 697 468 697 586 l 697 0 z "},"i":{"ha":382,"x_min":99,"x_max":283,"o":"m 282 0 l 101 0 l 101 724 l 282 724 l 282 0 m 283 847 l 99 847 l 99 994 l 283 994 l 283 847 z "},"j":{"ha":382,"x_min":-32,"x_max":283,"o":"m 282 -64 q 228 -210 282 -149 q 71 -271 175 -271 l -32 -271 l -32 -118 l 38 -118 q 101 -53 101 -118 l 101 724 l 282 724 l 282 -64 m 283 847 l 99 847 l 99 994 l 283 994 l 283 847 z "},"k":{"ha":776,"x_min":101,"x_max":760,"o":"m 760 0 l 536 0 l 358 301 l 282 215 l 282 0 l 101 0 l 101 989 l 282 989 l 282 428 l 522 724 l 740 724 l 482 432 l 760 0 z "},"l":{"ha":451,"x_min":94,"x_max":408,"o":"m 408 0 l 306 0 q 148 61 201 0 q 94 207 94 122 l 94 989 l 275 989 l 275 218 q 339 153 275 153 l 408 153 l 408 0 z "},"m":{"ha":1217,"x_min":101,"x_max":1124,"o":"m 1124 0 l 943 0 l 943 438 q 908 538 943 506 q 824 569 872 569 q 739 538 775 569 q 703 442 703 507 l 703 0 l 522 0 l 522 438 q 487 538 522 506 q 403 569 451 569 q 317 538 353 569 q 282 438 282 506 l 282 0 l 101 0 l 101 724 l 278 724 l 278 657 q 458 732 350 732 q 650 640 583 732 q 867 732 738 732 q 1044 668 981 732 q 1124 463 1124 589 l 1124 0 z "},"n":{"ha":796,"x_min":101,"x_max":703,"o":"m 703 0 l 522 0 l 522 438 q 487 538 522 506 q 403 569 451 569 q 317 538 353 569 q 282 438 282 506 l 282 0 l 101 0 l 101 724 l 278 724 l 278 657 q 458 732 349 732 q 629 668 565 732 q 703 463 703 594 l 703 0 z "},"o":{"ha":754,"x_min":71,"x_max":683,"o":"m 683 363 q 666 194 683 258 q 601 81 649 129 q 376 -8 518 -8 q 153 81 236 -8 q 88 194 106 129 q 71 363 71 258 q 88 530 71 465 q 153 643 106 594 q 376 732 236 732 q 601 643 518 732 q 666 530 649 594 q 683 363 683 465 m 503 363 q 461 538 503 496 q 376 569 429 569 q 293 538 325 569 q 251 363 251 496 q 293 186 251 228 q 376 154 325 154 q 461 186 429 154 q 503 363 503 228 z "},"p":{"ha":778,"x_min":101,"x_max":707,"o":"m 704 477 q 706 456 704 477 q 707 363 707 435 q 704 248 707 290 q 684 148 701 206 q 633 57 667 90 q 457 -8 568 -8 q 282 64 347 -8 l 282 -265 l 101 -265 l 101 724 l 276 724 l 276 656 q 457 732 344 732 q 633 667 568 732 q 684 576 667 633 q 704 477 701 519 m 526 363 q 503 517 526 465 q 404 569 479 569 q 306 517 329 569 q 282 363 282 465 q 286 279 282 313 q 302 215 290 246 q 340 169 314 185 q 404 154 365 154 q 469 169 443 154 q 506 215 494 185 q 522 279 518 246 q 526 363 526 313 z "},"q":{"ha":779,"x_min":71,"x_max":678,"o":"m 678 -265 l 497 -265 l 497 64 q 321 -8 432 -8 q 144 57 210 -8 q 94 148 111 90 q 74 248 76 206 q 71 363 71 290 q 74 477 71 435 q 94 576 76 519 q 144 667 111 633 q 322 732 210 732 q 501 656 433 732 l 501 724 l 678 724 l 678 -265 m 473 207 q 485 233 473 207 q 497 363 497 260 q 473 517 497 465 q 374 569 449 569 q 275 517 299 569 q 251 363 251 465 q 256 279 251 313 q 272 215 260 246 q 309 169 283 185 q 374 154 335 154 q 473 207 449 154 z "},"r":{"ha":632,"x_min":101,"x_max":631,"o":"m 631 664 l 494 526 q 399 569 451 569 q 317 535 353 569 q 282 436 282 500 l 282 0 l 101 0 l 101 724 l 278 724 l 278 654 q 355 710 306 688 q 460 732 404 732 q 631 664 563 732 z "},"s":{"ha":696,"x_min":31,"x_max":646,"o":"m 646 228 q 560 52 646 113 q 339 -8 474 -8 q 166 13 239 -8 q 31 96 93 33 l 149 214 q 342 146 217 146 q 432 165 394 146 q 469 221 469 183 q 393 288 469 281 l 279 299 q 68 501 68 319 q 149 671 68 610 q 347 732 231 732 q 624 647 533 732 l 513 535 q 344 583 458 583 q 267 563 293 583 q 242 514 242 543 q 317 451 242 458 l 431 440 q 591 376 536 431 q 646 228 646 321 z "},"t":{"ha":489,"x_min":42,"x_max":426,"o":"m 426 0 l 328 0 q 172 61 225 0 q 118 207 118 122 l 118 565 l 42 565 l 42 703 l 118 703 l 118 917 l 299 917 l 299 703 l 426 703 l 426 565 l 299 565 l 299 218 q 361 153 299 153 l 426 153 l 426 0 z "},"u":{"ha":796,"x_min":93,"x_max":694,"o":"m 694 0 l 518 0 l 518 67 q 338 -8 447 -8 q 167 56 231 -8 q 93 261 93 129 l 93 724 l 274 724 l 274 286 q 309 186 274 218 q 393 154 344 154 q 478 186 443 154 q 514 286 514 218 l 514 724 l 694 724 l 694 0 z "},"v":{"ha":685,"x_min":6,"x_max":679,"o":"m 679 724 l 414 0 l 272 0 l 6 724 l 196 724 l 343 276 l 489 724 l 679 724 z "},"w":{"ha":1054,"x_min":6,"x_max":1049,"o":"m 1049 724 l 828 0 l 679 0 l 528 454 l 376 0 l 228 0 l 6 724 l 197 724 l 314 276 l 461 724 l 593 724 l 742 276 l 858 724 l 1049 724 z "},"x":{"ha":732,"x_min":17,"x_max":715,"o":"m 715 0 l 499 0 l 365 217 l 233 0 l 17 0 l 267 369 l 26 724 l 243 724 l 365 517 l 489 724 l 706 724 l 465 369 l 715 0 z "},"y":{"ha":686,"x_min":6,"x_max":681,"o":"m 681 724 l 371 -117 q 317 -210 347 -179 q 161 -265 261 -265 l 90 -265 l 90 -103 l 132 -103 q 190 -90 171 -103 q 222 -37 208 -76 l 253 51 l 6 724 l 196 724 l 346 276 l 490 724 l 681 724 z "},"z":{"ha":664,"x_min":51,"x_max":603,"o":"m 603 0 l 51 0 l 51 138 l 372 561 l 69 561 l 69 724 l 603 724 l 603 586 l 278 163 l 603 163 l 603 0 z "},"{":{"ha":635,"x_min":60,"x_max":575,"o":"m 575 -103 l 433 -103 q 278 -51 329 -103 q 219 103 219 7 l 219 304 q 196 388 219 364 q 124 414 169 414 l 60 414 l 60 575 l 124 575 q 196 601 169 575 q 219 685 219 625 l 219 886 q 278 1040 219 982 q 433 1092 329 1092 l 575 1092 l 575 929 l 501 929 q 422 910 442 929 q 400 821 400 886 l 400 633 q 382 556 400 588 q 347 515 364 525 q 304 494 331 504 q 347 474 331 485 q 382 433 364 464 q 400 356 400 401 l 400 168 q 422 79 400 103 q 501 60 442 60 l 575 60 l 575 -103 z "},"|":{"ha":486,"x_min":153,"x_max":333,"o":"m 333 -103 l 153 -103 l 153 1092 l 333 1092 l 333 -103 z "},"}":{"ha":635,"x_min":60,"x_max":575,"o":"m 575 414 l 511 414 q 439 388 465 414 q 415 304 415 364 l 415 103 q 357 -51 415 7 q 201 -103 306 -103 l 60 -103 l 60 60 l 133 60 q 213 79 193 60 q 235 168 235 103 l 235 356 q 253 433 235 401 q 288 474 271 464 q 331 494 304 485 q 288 515 304 504 q 253 556 271 525 q 235 633 235 588 l 235 821 q 213 910 235 886 q 133 929 193 929 l 60 929 l 60 1092 l 201 1092 q 357 1040 306 1092 q 415 886 415 982 l 415 685 q 439 601 415 625 q 511 575 465 575 l 575 575 l 575 414 z "},"~":{"ha":842,"x_min":51,"x_max":790,"o":"m 790 390 q 674 298 725 325 q 561 271 624 271 q 399 318 488 271 q 285 351 335 351 q 165 293 224 351 l 51 407 q 167 500 118 474 q 279 526 217 526 q 442 479 353 526 q 554 446 506 446 q 675 504 617 446 l 790 390 z "}," ":{"ha":322,"x_min":0,"x_max":0,"o":""},"¡":{"ha":482,"x_min":104,"x_max":328,"o":"m 328 -265 l 104 -265 l 149 414 l 283 414 l 328 -265 m 311 539 l 121 539 l 121 724 l 311 724 l 311 539 z "},"¢":{"ha":693,"x_min":65,"x_max":651,"o":"m 651 250 q 463 146 571 165 l 463 0 l 322 0 l 322 146 q 136 262 207 169 q 65 508 65 354 q 136 755 65 663 q 322 871 207 847 l 322 989 l 463 989 l 463 871 q 651 767 571 851 l 532 650 q 443 707 489 694 l 443 310 q 532 367 489 322 l 651 250 m 342 313 l 342 704 q 289 668 313 696 q 246 508 246 614 q 289 349 246 403 q 342 313 310 321 z "},"£":{"ha":804,"x_min":56,"x_max":742,"o":"m 742 0 l 140 0 l 140 413 l 56 413 l 56 551 l 140 551 l 140 664 q 242 909 140 821 q 489 997 343 997 q 628 974 569 997 q 742 896 688 950 l 615 769 q 489 825 560 825 q 374 782 417 825 q 332 656 332 739 l 332 551 l 489 551 l 489 413 l 332 413 l 332 172 l 742 172 l 742 0 z "},"¤":{"ha":929,"x_min":81,"x_max":847,"o":"m 847 133 l 729 14 l 626 115 q 464 71 551 71 q 303 115 378 71 l 200 14 l 81 133 l 183 235 q 138 397 138 313 q 183 560 138 482 l 81 661 l 200 781 l 303 679 q 464 724 378 724 q 626 679 551 724 l 729 781 l 847 661 l 746 560 q 790 397 790 485 q 746 235 790 310 l 847 133 m 580 282 q 604 306 580 282 q 628 397 628 329 q 580 513 628 465 q 464 560 532 560 q 349 513 396 560 q 301 397 301 465 q 349 282 301 329 q 464 235 396 235 q 580 282 532 235 z "},"¥":{"ha":793,"x_min":4,"x_max":789,"o":"m 789 989 l 600 614 l 703 614 l 703 475 l 529 475 l 493 406 l 493 335 l 703 335 l 703 196 l 493 196 l 493 0 l 301 0 l 301 196 l 90 196 l 90 335 l 301 335 l 301 406 l 265 475 l 90 475 l 90 614 l 194 614 l 4 989 l 214 989 l 397 589 l 581 989 l 789 989 z "},"¦":{"ha":490,"x_min":153,"x_max":333,"o":"m 333 606 l 153 606 l 153 1092 l 333 1092 l 333 606 m 333 -103 l 153 -103 l 153 383 l 333 383 l 333 -103 z "},"§":{"ha":738,"x_min":85,"x_max":657,"o":"m 657 381 q 618 256 657 311 q 532 174 579 200 q 644 -19 644 117 q 563 -207 644 -140 q 369 -274 482 -274 q 176 -212 257 -274 q 93 -26 94 -150 l 267 -26 q 297 -90 269 -65 q 369 -114 324 -114 q 444 -90 417 -114 q 471 -25 471 -65 q 374 78 471 46 l 288 107 q 134 201 183 142 q 85 368 85 261 q 124 494 85 439 q 211 575 163 549 q 106 757 106 631 q 175 928 106 858 q 372 997 244 997 q 570 931 503 997 q 639 758 638 864 l 469 758 q 372 843 465 843 q 300 820 325 843 q 275 761 275 797 q 368 669 275 700 l 454 642 q 608 547 558 608 q 657 381 657 486 m 483 374 q 449 468 483 433 q 371 497 417 497 q 292 468 321 497 q 258 374 258 435 q 292 281 258 314 q 371 251 321 251 q 449 281 419 251 q 483 374 483 315 z "},"¨":{"ha":694,"x_min":117,"x_max":578,"o":"m 578 842 l 424 842 l 424 1015 l 578 1015 l 578 842 m 271 842 l 117 842 l 117 1015 l 271 1015 l 271 842 z "},"©":{"ha":1172,"x_min":83,"x_max":1089,"o":"m 942 850 q 1015 776 942 850 q 1089 494 1089 703 q 942 139 1089 286 q 586 -8 794 -8 q 231 139 378 -8 q 83 494 83 286 q 231 850 83 703 q 586 997 378 997 q 942 850 794 997 m 858 216 q 913 272 858 216 q 968 494 968 328 q 858 773 968 661 q 586 885 749 885 q 313 773 424 885 q 203 494 203 661 q 313 216 203 328 q 586 104 424 104 q 858 216 749 104 m 779 294 q 596 222 699 222 q 417 294 488 222 q 347 494 347 365 q 417 696 347 624 q 596 768 488 768 q 779 694 694 768 l 701 617 q 596 661 649 661 q 499 617 532 661 q 465 494 465 572 q 499 372 465 417 q 596 328 532 328 q 701 372 649 328 l 779 294 z "},"ª":{"ha":631,"x_min":67,"x_max":544,"o":"m 544 411 l 401 411 l 401 461 q 261 406 346 406 q 115 458 165 406 q 67 586 67 507 q 117 707 67 660 q 264 754 168 754 l 399 754 l 399 782 q 374 851 399 829 q 292 872 349 872 q 228 862 251 872 q 182 825 206 851 l 89 915 q 178 978 131 961 q 299 996 225 996 q 544 792 544 996 l 544 411 m 399 624 l 399 656 l 286 656 q 228 638 249 656 q 208 590 208 621 q 288 526 208 526 q 378 553 350 526 q 399 624 399 572 z "},"«":{"ha":872,"x_min":47,"x_max":781,"o":"m 781 38 l 433 382 l 781 726 l 781 511 l 647 382 l 781 253 l 781 38 m 393 38 l 47 382 l 393 726 l 393 511 l 263 382 l 393 253 l 393 38 z "},"¬":{"ha":754,"x_min":64,"x_max":690,"o":"m 690 131 l 522 131 l 522 332 l 64 332 l 64 500 l 690 500 l 690 131 z "},"­":{"ha":592,"x_min":82,"x_max":510,"o":"m 510 313 l 82 313 l 82 481 l 510 481 l 510 313 z "},"®":{"ha":1172,"x_min":83,"x_max":1089,"o":"m 942 850 q 1015 776 942 850 q 1089 494 1089 703 q 942 139 1089 286 q 586 -8 794 -8 q 231 139 378 -8 q 83 494 83 286 q 231 850 83 703 q 586 997 378 997 q 942 850 794 997 m 859 216 q 914 272 859 216 q 969 494 969 328 q 859 773 969 661 q 586 885 749 885 q 313 773 424 885 q 203 494 203 661 q 313 216 203 328 q 586 104 424 104 q 859 216 749 104 m 813 228 l 676 228 l 579 435 l 522 435 l 522 228 l 403 228 l 403 763 l 621 763 q 749 713 700 763 q 799 594 799 664 q 771 506 799 543 q 700 453 743 469 l 813 228 m 658 545 q 669 555 658 545 q 679 594 679 565 q 658 644 679 624 q 606 664 638 664 l 522 664 l 522 525 l 606 525 q 658 545 638 525 z "},"¯":{"ha":694,"x_min":128,"x_max":567,"o":"m 567 875 l 128 875 l 128 996 l 567 996 l 567 875 z "},"°":{"ha":664,"x_min":76,"x_max":588,"o":"m 588 753 q 513 572 588 647 q 332 497 439 497 q 151 572 225 497 q 76 753 76 647 q 151 935 76 860 q 332 1010 226 1010 q 513 935 438 1010 q 588 753 588 860 m 410 674 q 426 690 410 674 q 442 753 442 706 q 409 832 442 800 q 331 864 376 864 q 253 832 285 864 q 222 753 222 800 q 254 674 222 706 q 332 642 286 642 q 410 674 378 642 z "},"±":{"ha":754,"x_min":69,"x_max":685,"o":"m 685 474 l 463 474 l 463 250 l 293 250 l 293 474 l 69 474 l 69 642 l 293 642 l 293 865 l 463 865 l 463 642 l 685 642 l 685 474 m 685 0 l 69 0 l 69 169 l 685 169 l 685 0 z "},"²":{"ha":497,"x_min":60,"x_max":438,"o":"m 438 396 l 60 396 l 60 514 l 276 751 q 307 817 307 783 q 292 860 307 844 q 249 876 276 876 q 190 815 190 876 l 60 815 q 113 947 60 899 q 249 994 167 994 q 385 947 332 994 q 438 817 438 899 q 421 745 438 775 q 365 672 404 715 l 219 514 l 438 514 l 438 396 z "},"³":{"ha":511,"x_min":60,"x_max":451,"o":"m 451 572 q 395 438 451 485 q 256 390 339 390 q 117 436 174 390 q 60 574 60 482 l 190 574 q 209 524 190 542 q 256 507 228 507 q 303 525 285 507 q 321 576 321 543 q 302 624 321 606 q 253 643 283 643 l 235 643 l 235 756 l 253 756 q 299 773 283 756 q 314 815 314 790 q 297 860 314 844 q 256 876 281 876 q 214 861 231 876 q 197 818 197 846 l 67 818 q 121 947 67 899 q 256 994 175 994 q 391 945 338 994 q 444 819 444 896 q 382 703 444 740 q 451 572 451 658 z "},"´":{"ha":694,"x_min":271,"x_max":550,"o":"m 550 1075 l 392 839 l 271 839 l 360 1075 l 550 1075 z "},"µ":{"ha":800,"x_min":97,"x_max":699,"o":"m 699 0 l 522 0 l 522 67 q 342 -8 451 -8 q 278 11 304 -8 l 278 -265 l 97 -265 l 97 724 l 278 724 l 278 286 q 313 186 278 218 q 397 154 349 154 q 483 186 447 154 q 518 286 518 218 l 518 724 l 699 724 l 699 0 z "},"¶":{"ha":928,"x_min":49,"x_max":813,"o":"m 813 -265 l 632 -265 l 632 817 l 493 817 l 493 -265 l 313 -265 l 313 428 q 128 510 207 428 q 49 707 49 593 q 135 915 49 842 q 369 989 222 989 l 813 989 l 813 -265 z "},"·":{"ha":396,"x_min":94,"x_max":301,"o":"m 301 294 l 94 294 l 94 500 l 301 500 l 301 294 z "},"¸":{"ha":694,"x_min":222,"x_max":451,"o":"m 451 -83 l 390 -286 l 222 -286 l 318 -83 l 451 -83 z "},"¹":{"ha":406,"x_min":53,"x_max":310,"o":"m 310 396 l 178 396 l 178 842 l 53 733 l 53 881 l 178 989 l 310 989 l 310 396 z "},"º":{"ha":642,"x_min":76,"x_max":565,"o":"m 551 833 q 558 808 551 833 q 565 700 565 782 q 551 567 565 618 q 499 476 538 517 q 321 406 431 406 q 143 476 211 406 q 90 567 104 517 q 76 700 76 618 q 91 833 76 782 q 143 925 106 885 q 321 996 211 996 q 499 925 431 996 q 551 833 536 885 m 419 700 q 388 840 419 808 q 321 865 363 865 q 254 840 279 865 q 222 700 222 808 q 254 561 222 593 q 321 536 279 536 q 388 561 363 536 q 419 700 419 593 z "},"»":{"ha":872,"x_min":93,"x_max":826,"o":"m 826 382 l 479 38 l 479 253 l 610 382 l 479 511 l 479 726 l 826 382 m 439 382 l 93 38 l 93 253 l 225 382 l 93 511 l 93 726 l 439 382 z "},"¼":{"ha":1161,"x_min":53,"x_max":1106,"o":"m 868 989 l 400 0 l 258 0 l 726 989 l 868 989 m 1106 79 l 1060 79 l 1060 0 l 935 0 l 935 79 l 690 79 l 690 203 l 889 593 l 1032 593 l 832 203 l 935 203 l 935 289 l 1060 289 l 1060 203 l 1106 203 l 1106 79 m 310 396 l 178 396 l 178 842 l 53 733 l 53 881 l 178 989 l 310 989 l 310 396 z "},"½":{"ha":1197,"x_min":53,"x_max":1138,"o":"m 1138 0 l 760 0 l 760 118 l 976 356 q 1008 421 1008 389 q 992 465 1008 449 q 949 481 976 481 q 892 419 892 481 l 760 419 q 813 551 760 503 q 949 599 867 599 q 1085 551 1032 599 q 1138 421 1138 503 q 1121 349 1138 379 q 1065 276 1104 319 l 919 118 l 1138 118 l 1138 0 m 861 989 l 393 0 l 253 0 l 721 989 l 861 989 m 310 396 l 178 396 l 178 842 l 53 733 l 53 881 l 178 989 l 310 989 l 310 396 z "},"¾":{"ha":1201,"x_min":60,"x_max":1146,"o":"m 913 989 l 444 0 l 303 0 l 771 989 l 913 989 m 451 572 q 395 438 451 485 q 256 390 339 390 q 117 436 174 390 q 60 574 60 482 l 190 574 q 209 524 190 542 q 256 507 228 507 q 303 525 285 507 q 321 576 321 543 q 302 624 321 606 q 253 643 283 643 l 235 643 l 235 756 l 253 756 q 299 773 283 756 q 314 815 314 790 q 297 860 314 844 q 256 876 281 876 q 214 861 231 876 q 197 818 197 846 l 67 818 q 121 947 67 899 q 256 994 175 994 q 391 945 338 994 q 444 819 444 896 q 382 703 444 740 q 451 572 451 658 m 1146 79 l 1100 79 l 1100 0 l 975 0 l 975 79 l 731 79 l 731 203 l 929 593 l 1072 593 l 872 203 l 975 203 l 975 289 l 1100 289 l 1100 203 l 1146 203 l 1146 79 z "},"¿":{"ha":726,"x_min":50,"x_max":635,"o":"m 635 6 q 551 -197 635 -121 q 342 -274 467 -274 q 135 -199 219 -274 q 50 4 50 -124 q 118 178 50 88 l 221 315 q 246 386 246 347 l 246 414 l 426 414 l 426 372 q 374 228 426 297 l 271 96 q 231 3 231 43 q 260 -79 231 -47 q 342 -111 290 -111 q 424 -78 394 -111 q 454 6 454 -44 l 635 6 m 432 539 l 240 539 l 240 724 l 432 724 l 432 539 z "},"À":{"ha":886,"x_min":7,"x_max":879,"o":"m 879 0 l 678 0 l 619 175 l 268 175 l 208 0 l 7 0 l 367 989 l 518 989 l 879 0 m 568 338 l 447 697 l 322 338 l 568 338 m 517 1085 l 396 1085 l 238 1321 l 428 1321 l 517 1085 z "},"Á":{"ha":886,"x_min":7,"x_max":879,"o":"m 879 0 l 678 0 l 619 175 l 268 175 l 208 0 l 7 0 l 367 989 l 518 989 l 879 0 m 568 338 l 447 697 l 322 338 l 568 338 m 643 1321 l 485 1085 l 364 1085 l 453 1321 l 643 1321 z "},"Â":{"ha":886,"x_min":7,"x_max":879,"o":"m 879 0 l 678 0 l 619 175 l 268 175 l 208 0 l 7 0 l 367 989 l 518 989 l 879 0 m 568 338 l 447 697 l 322 338 l 568 338 m 696 1085 l 556 1085 l 440 1211 l 325 1085 l 185 1085 l 368 1319 l 513 1319 l 696 1085 z "},"Ã":{"ha":886,"x_min":7,"x_max":879,"o":"m 879 0 l 678 0 l 619 175 l 268 175 l 208 0 l 7 0 l 367 989 l 518 989 l 879 0 m 568 338 l 447 697 l 322 338 l 568 338 m 690 1182 q 533 1100 608 1100 q 426 1132 482 1100 q 349 1157 383 1157 q 267 1117 307 1157 l 189 1196 q 269 1260 235 1242 q 344 1278 304 1278 q 451 1246 399 1278 q 528 1221 493 1221 q 610 1261 569 1221 l 690 1182 z "},"Ä":{"ha":886,"x_min":7,"x_max":879,"o":"m 879 0 l 678 0 l 619 175 l 268 175 l 208 0 l 7 0 l 367 989 l 518 989 l 879 0 m 568 338 l 447 697 l 322 338 l 568 338 m 364 1088 l 210 1088 l 210 1261 l 364 1261 l 364 1088 m 671 1088 l 517 1088 l 517 1261 l 671 1261 l 671 1088 z "},"Å":{"ha":886,"x_min":7,"x_max":879,"o":"m 879 0 l 678 0 l 619 175 l 268 175 l 208 0 l 7 0 l 367 989 l 518 989 l 879 0 m 568 338 l 447 697 l 322 338 l 568 338 m 622 1228 q 569 1099 622 1153 q 440 1046 515 1046 q 312 1099 365 1046 q 258 1228 258 1153 q 312 1356 258 1303 q 440 1410 365 1410 q 569 1357 515 1410 q 622 1228 622 1304 m 497 1170 q 509 1182 497 1170 q 521 1228 521 1194 q 497 1285 521 1261 q 440 1308 474 1308 q 383 1285 407 1308 q 360 1228 360 1261 q 383 1170 360 1194 q 440 1146 407 1146 q 497 1170 474 1146 z "},"Æ":{"ha":1360,"x_min":4,"x_max":1286,"o":"m 1286 0 l 636 0 l 636 217 l 324 217 l 211 0 l 4 0 l 521 989 l 1286 989 l 1286 817 l 828 817 l 828 583 l 1219 583 l 1219 411 l 828 411 l 828 172 l 1286 172 l 1286 0 m 636 379 l 636 817 l 407 379 l 636 379 z "},"Ç":{"ha":781,"x_min":82,"x_max":810,"o":"m 810 304 q 688 74 785 156 q 446 -8 590 -8 q 179 100 288 -8 q 99 249 115 164 q 82 494 82 332 q 99 740 82 657 q 179 889 115 825 q 446 997 288 997 q 688 915 590 997 q 810 685 785 833 l 614 685 q 447 825 579 825 q 324 774 367 825 q 284 690 293 742 q 275 494 275 638 q 284 299 275 351 q 324 215 293 247 q 447 164 367 164 q 614 304 579 164 l 810 304 m 526 -83 l 465 -286 l 297 -286 l 393 -83 l 526 -83 z "},"È":{"ha":840,"x_min":115,"x_max":767,"o":"m 767 0 l 115 0 l 115 989 l 767 989 l 767 817 l 308 817 l 308 585 l 699 585 l 699 413 l 308 413 l 308 172 l 767 172 l 767 0 m 507 1085 l 386 1085 l 228 1321 l 418 1321 l 507 1085 z "},"É":{"ha":840,"x_min":115,"x_max":767,"o":"m 767 0 l 115 0 l 115 989 l 767 989 l 767 817 l 308 817 l 308 585 l 699 585 l 699 413 l 308 413 l 308 172 l 767 172 l 767 0 m 632 1321 l 474 1085 l 353 1085 l 442 1321 l 632 1321 z "},"Ê":{"ha":840,"x_min":115,"x_max":767,"o":"m 767 0 l 115 0 l 115 989 l 767 989 l 767 817 l 308 817 l 308 585 l 699 585 l 699 413 l 308 413 l 308 172 l 767 172 l 767 0 m 686 1085 l 546 1085 l 431 1211 l 315 1085 l 175 1085 l 358 1319 l 503 1319 l 686 1085 z "},"Ë":{"ha":840,"x_min":115,"x_max":767,"o":"m 767 0 l 115 0 l 115 989 l 767 989 l 767 817 l 308 817 l 308 585 l 699 585 l 699 413 l 308 413 l 308 172 l 767 172 l 767 0 m 354 1088 l 200 1088 l 200 1261 l 354 1261 l 354 1088 m 661 1088 l 507 1088 l 507 1261 l 661 1261 l 661 1088 z "},"Ì":{"ha":424,"x_min":29,"x_max":308,"o":"m 308 0 l 115 0 l 115 989 l 308 989 l 308 0 m 308 1085 l 188 1085 l 29 1321 l 219 1321 l 308 1085 z "},"Í":{"ha":424,"x_min":115,"x_max":394,"o":"m 308 0 l 115 0 l 115 989 l 308 989 l 308 0 m 394 1321 l 236 1085 l 115 1085 l 204 1321 l 394 1321 z "},"Î":{"ha":424,"x_min":-44,"x_max":467,"o":"m 308 0 l 115 0 l 115 989 l 308 989 l 308 0 m 467 1085 l 326 1085 l 211 1211 l 96 1085 l -44 1085 l 139 1319 l 283 1319 l 467 1085 z "},"Ï":{"ha":424,"x_min":-22,"x_max":439,"o":"m 308 0 l 115 0 l 115 989 l 308 989 l 308 0 m 132 1088 l -22 1088 l -22 1261 l 132 1261 l 132 1088 m 439 1088 l 285 1088 l 285 1261 l 439 1261 l 439 1088 z "},"Ð":{"ha":947,"x_min":51,"x_max":865,"o":"m 865 494 q 863 331 865 375 q 842 225 861 286 q 778 115 822 164 q 501 0 674 0 l 147 0 l 147 426 l 51 426 l 51 574 l 147 574 l 147 989 l 504 989 q 778 872 675 989 q 823 806 806 842 q 849 748 840 769 q 861 669 857 726 q 865 595 865 611 q 865 494 865 579 m 672 492 q 666 667 672 621 q 638 746 660 714 q 486 818 586 818 l 340 818 l 340 574 l 501 574 l 501 426 l 340 426 l 340 171 l 486 171 q 640 244 592 171 q 667 317 661 275 q 672 492 672 360 z "},"Ñ":{"ha":988,"x_min":115,"x_max":872,"o":"m 872 0 l 700 0 l 308 607 l 308 0 l 115 0 l 115 989 l 288 989 l 679 383 l 679 989 l 872 989 l 872 0 m 744 1182 q 588 1100 663 1100 q 481 1132 536 1100 q 403 1157 438 1157 q 321 1117 361 1157 l 243 1196 q 324 1260 289 1242 q 399 1278 358 1278 q 506 1246 453 1278 q 582 1221 547 1221 q 664 1261 624 1221 l 744 1182 z "},"Ò":{"ha":894,"x_min":82,"x_max":813,"o":"m 811 618 q 812 599 811 618 q 813 494 813 579 q 811 371 813 410 q 801 274 810 332 q 772 176 793 217 q 714 100 750 136 q 447 -8 606 -8 q 179 100 288 -8 q 122 176 143 136 q 93 275 101 215 q 83 371 85 335 q 82 494 82 407 q 83 618 82 582 q 93 714 85 654 q 122 813 101 774 q 179 889 143 853 q 447 997 288 997 q 714 889 606 997 q 772 813 750 853 q 801 715 793 772 q 811 618 810 657 m 610 302 q 615 329 610 302 q 619 494 619 356 q 610 687 619 633 q 571 772 600 740 q 447 825 525 825 q 322 772 368 825 q 284 688 293 740 q 275 494 275 635 q 284 301 275 354 q 322 217 293 249 q 447 164 368 164 q 571 217 525 164 q 610 302 600 249 m 524 1085 l 403 1085 l 244 1321 l 435 1321 l 524 1085 z "},"Ó":{"ha":894,"x_min":82,"x_max":813,"o":"m 811 618 q 812 599 811 618 q 813 494 813 579 q 811 371 813 410 q 801 274 810 332 q 772 176 793 217 q 714 100 750 136 q 447 -8 606 -8 q 179 100 288 -8 q 122 176 143 136 q 93 275 101 215 q 83 371 85 335 q 82 494 82 407 q 83 618 82 582 q 93 714 85 654 q 122 813 101 774 q 179 889 143 853 q 447 997 288 997 q 714 889 606 997 q 772 813 750 853 q 801 715 793 772 q 811 618 810 657 m 610 302 q 615 329 610 302 q 619 494 619 356 q 610 687 619 633 q 571 772 600 740 q 447 825 525 825 q 322 772 368 825 q 284 688 293 740 q 275 494 275 635 q 284 301 275 354 q 322 217 293 249 q 447 164 368 164 q 571 217 525 164 q 610 302 600 249 m 650 1321 l 492 1085 l 371 1085 l 460 1321 l 650 1321 z "},"Ô":{"ha":894,"x_min":82,"x_max":813,"o":"m 811 618 q 812 599 811 618 q 813 494 813 579 q 811 371 813 410 q 801 274 810 332 q 772 176 793 217 q 714 100 750 136 q 447 -8 606 -8 q 179 100 288 -8 q 122 176 143 136 q 93 275 101 215 q 83 371 85 335 q 82 494 82 407 q 83 618 82 582 q 93 714 85 654 q 122 813 101 774 q 179 889 143 853 q 447 997 288 997 q 714 889 606 997 q 772 813 750 853 q 801 715 793 772 q 811 618 810 657 m 610 302 q 615 329 610 302 q 619 494 619 356 q 610 687 619 633 q 571 772 600 740 q 447 825 525 825 q 322 772 368 825 q 284 688 293 740 q 275 494 275 635 q 284 301 275 354 q 322 217 293 249 q 447 164 368 164 q 571 217 525 164 q 610 302 600 249 m 703 1085 l 563 1085 l 447 1211 l 332 1085 l 192 1085 l 375 1319 l 519 1319 l 703 1085 z "},"Õ":{"ha":894,"x_min":82,"x_max":813,"o":"m 811 618 q 812 599 811 618 q 813 494 813 579 q 811 371 813 410 q 801 274 810 332 q 772 176 793 217 q 714 100 750 136 q 447 -8 606 -8 q 179 100 288 -8 q 122 176 143 136 q 93 275 101 215 q 83 371 85 335 q 82 494 82 407 q 83 618 82 582 q 93 714 85 654 q 122 813 101 774 q 179 889 143 853 q 447 997 288 997 q 714 889 606 997 q 772 813 750 853 q 801 715 793 772 q 811 618 810 657 m 610 302 q 615 329 610 302 q 619 494 619 356 q 610 687 619 633 q 571 772 600 740 q 447 825 525 825 q 322 772 368 825 q 284 688 293 740 q 275 494 275 635 q 284 301 275 354 q 322 217 293 249 q 447 164 368 164 q 571 217 525 164 q 610 302 600 249 m 697 1182 q 540 1100 615 1100 q 433 1132 489 1100 q 356 1157 390 1157 q 274 1117 314 1157 l 196 1196 q 276 1260 242 1242 q 351 1278 311 1278 q 458 1246 406 1278 q 535 1221 500 1221 q 617 1261 576 1221 l 697 1182 z "},"Ö":{"ha":894,"x_min":82,"x_max":813,"o":"m 811 618 q 812 599 811 618 q 813 494 813 579 q 811 371 813 410 q 801 274 810 332 q 772 176 793 217 q 714 100 750 136 q 447 -8 606 -8 q 179 100 288 -8 q 122 176 143 136 q 93 275 101 215 q 83 371 85 335 q 82 494 82 407 q 83 618 82 582 q 93 714 85 654 q 122 813 101 774 q 179 889 143 853 q 447 997 288 997 q 714 889 606 997 q 772 813 750 853 q 801 715 793 772 q 811 618 810 657 m 610 302 q 615 329 610 302 q 619 494 619 356 q 610 687 619 633 q 571 772 600 740 q 447 825 525 825 q 322 772 368 825 q 284 688 293 740 q 275 494 275 635 q 284 301 275 354 q 322 217 293 249 q 447 164 368 164 q 571 217 525 164 q 610 302 600 249 m 371 1088 l 217 1088 l 217 1261 l 371 1261 l 371 1088 m 678 1088 l 524 1088 l 524 1261 l 678 1261 l 678 1088 z "},"×":{"ha":754,"x_min":68,"x_max":686,"o":"m 686 201 l 572 88 l 376 283 l 182 88 l 68 201 l 264 397 l 68 593 l 182 707 l 376 511 l 572 707 l 686 593 l 490 397 l 686 201 z "},"Ø":{"ha":906,"x_min":82,"x_max":813,"o":"m 811 618 q 812 599 811 618 q 813 494 813 579 q 811 371 813 410 q 801 274 810 332 q 772 176 793 217 q 714 100 750 136 q 447 -8 606 -8 q 290 22 357 -8 l 250 -61 l 113 -61 l 186 93 l 179 100 q 122 176 143 136 q 93 275 101 215 q 83 371 85 335 q 82 494 82 407 q 83 618 82 582 q 93 714 85 654 q 122 813 101 774 q 179 889 143 853 q 447 997 288 997 q 604 967 538 997 l 644 1050 l 781 1050 l 707 896 l 714 889 q 772 813 750 853 q 801 715 793 772 q 811 618 810 657 m 619 494 q 606 704 619 647 l 358 188 q 447 164 397 164 q 571 217 525 164 q 610 302 600 249 q 619 494 619 356 m 535 803 q 447 825 499 825 q 322 772 368 825 q 284 688 293 740 q 275 494 275 635 q 288 285 275 336 l 535 803 z "},"Ù":{"ha":928,"x_min":100,"x_max":828,"o":"m 828 339 q 724 88 828 185 q 464 -8 619 -8 q 204 88 308 -8 q 100 339 100 185 l 100 989 l 293 989 l 293 346 q 339 213 293 261 q 464 164 385 164 q 590 213 543 164 q 636 346 636 261 l 636 989 l 828 989 l 828 339 m 540 1085 l 419 1085 l 261 1321 l 451 1321 l 540 1085 z "},"Ú":{"ha":928,"x_min":100,"x_max":828,"o":"m 828 339 q 724 88 828 185 q 464 -8 619 -8 q 204 88 308 -8 q 100 339 100 185 l 100 989 l 293 989 l 293 346 q 339 213 293 261 q 464 164 385 164 q 590 213 543 164 q 636 346 636 261 l 636 989 l 828 989 l 828 339 m 667 1321 l 508 1085 l 388 1085 l 476 1321 l 667 1321 z "},"Û":{"ha":928,"x_min":100,"x_max":828,"o":"m 828 339 q 724 88 828 185 q 464 -8 619 -8 q 204 88 308 -8 q 100 339 100 185 l 100 989 l 293 989 l 293 346 q 339 213 293 261 q 464 164 385 164 q 590 213 543 164 q 636 346 636 261 l 636 989 l 828 989 l 828 339 m 719 1085 l 579 1085 l 464 1211 l 349 1085 l 208 1085 l 392 1319 l 536 1319 l 719 1085 z "},"Ü":{"ha":928,"x_min":100,"x_max":828,"o":"m 828 339 q 724 88 828 185 q 464 -8 619 -8 q 204 88 308 -8 q 100 339 100 185 l 100 989 l 293 989 l 293 346 q 339 213 293 261 q 464 164 385 164 q 590 213 543 164 q 636 346 636 261 l 636 989 l 828 989 l 828 339 m 388 1088 l 233 1088 l 233 1261 l 388 1261 l 388 1088 m 694 1088 l 540 1088 l 540 1261 l 694 1261 l 694 1088 z "},"Ý":{"ha":794,"x_min":4,"x_max":790,"o":"m 790 989 l 493 406 l 493 0 l 301 0 l 301 406 l 4 989 l 214 989 l 399 590 l 581 989 l 790 989 m 599 1321 l 440 1085 l 319 1085 l 408 1321 l 599 1321 z "},"Þ":{"ha":879,"x_min":115,"x_max":825,"o":"m 736 719 q 781 675 736 719 q 825 500 825 631 q 736 281 825 369 q 499 192 647 192 l 308 192 l 308 0 l 115 0 l 115 989 l 308 989 l 308 807 l 499 807 q 736 719 647 807 m 593 401 q 613 420 593 401 q 632 500 632 439 q 593 598 632 561 q 489 635 554 635 l 308 635 l 308 364 l 489 364 q 593 401 554 364 z "},"ß":{"ha":797,"x_min":101,"x_max":717,"o":"m 717 224 q 660 58 717 114 q 485 0 601 0 l 413 0 l 413 153 l 449 153 q 511 174 489 153 q 535 239 535 194 l 535 439 q 514 501 535 481 q 451 524 492 524 l 413 524 l 413 665 l 451 665 q 511 686 488 665 q 535 749 535 707 q 508 811 535 788 q 411 840 478 840 q 312 808 342 840 q 282 710 282 775 l 282 0 l 101 0 l 101 724 q 187 930 101 863 q 414 997 272 997 q 633 936 551 997 q 715 754 715 875 q 631 597 715 649 q 695 541 674 575 q 717 446 717 507 l 717 224 z "},"à":{"ha":742,"x_min":50,"x_max":649,"o":"m 649 0 l 472 0 l 472 63 q 395 9 435 25 q 294 -7 356 -7 q 110 57 174 -7 q 50 219 50 119 q 113 370 50 311 q 297 429 176 429 l 468 429 l 468 465 q 436 552 468 525 q 333 579 404 579 q 253 566 282 579 q 194 519 224 553 l 79 632 q 189 710 131 689 q 340 732 247 732 q 649 476 649 732 l 649 0 m 468 267 l 468 306 l 325 306 q 250 284 276 306 q 224 224 224 263 q 328 140 224 140 q 442 175 406 140 q 468 267 468 200 m 439 839 l 318 839 l 160 1075 l 350 1075 l 439 839 z "},"á":{"ha":742,"x_min":50,"x_max":649,"o":"m 649 0 l 472 0 l 472 63 q 395 9 435 25 q 294 -7 356 -7 q 110 57 174 -7 q 50 219 50 119 q 113 370 50 311 q 297 429 176 429 l 468 429 l 468 465 q 436 552 468 525 q 333 579 404 579 q 253 566 282 579 q 194 519 224 553 l 79 632 q 189 710 131 689 q 340 732 247 732 q 649 476 649 732 l 649 0 m 468 267 l 468 306 l 325 306 q 250 284 276 306 q 224 224 224 263 q 328 140 224 140 q 442 175 406 140 q 468 267 468 200 m 565 1075 l 407 839 l 286 839 l 375 1075 l 565 1075 z "},"â":{"ha":742,"x_min":50,"x_max":649,"o":"m 649 0 l 472 0 l 472 63 q 395 9 435 25 q 294 -7 356 -7 q 110 57 174 -7 q 50 219 50 119 q 113 370 50 311 q 297 429 176 429 l 468 429 l 468 465 q 436 552 468 525 q 333 579 404 579 q 253 566 282 579 q 194 519 224 553 l 79 632 q 189 710 131 689 q 340 732 247 732 q 649 476 649 732 l 649 0 m 468 267 l 468 306 l 325 306 q 250 284 276 306 q 224 224 224 263 q 328 140 224 140 q 442 175 406 140 q 468 267 468 200 m 618 839 l 478 839 l 363 965 l 247 839 l 107 839 l 290 1074 l 435 1074 l 618 839 z "},"ã":{"ha":742,"x_min":50,"x_max":649,"o":"m 649 0 l 472 0 l 472 63 q 395 9 435 25 q 294 -7 356 -7 q 110 57 174 -7 q 50 219 50 119 q 113 370 50 311 q 297 429 176 429 l 468 429 l 468 465 q 436 552 468 525 q 333 579 404 579 q 253 566 282 579 q 194 519 224 553 l 79 632 q 189 710 131 689 q 340 732 247 732 q 649 476 649 732 l 649 0 m 468 267 l 468 306 l 325 306 q 250 284 276 306 q 224 224 224 263 q 328 140 224 140 q 442 175 406 140 q 468 267 468 200 m 613 936 q 456 854 531 854 q 349 886 404 854 q 271 911 306 911 q 189 871 229 911 l 111 950 q 192 1014 157 996 q 267 1032 226 1032 q 374 1000 321 1032 q 450 975 415 975 q 532 1015 492 975 l 613 936 z "},"ä":{"ha":742,"x_min":50,"x_max":649,"o":"m 649 0 l 472 0 l 472 63 q 395 9 435 25 q 294 -7 356 -7 q 110 57 174 -7 q 50 219 50 119 q 113 370 50 311 q 297 429 176 429 l 468 429 l 468 465 q 436 552 468 525 q 333 579 404 579 q 253 566 282 579 q 194 519 224 553 l 79 632 q 189 710 131 689 q 340 732 247 732 q 649 476 649 732 l 649 0 m 468 267 l 468 306 l 325 306 q 250 284 276 306 q 224 224 224 263 q 328 140 224 140 q 442 175 406 140 q 468 267 468 200 m 286 842 l 132 842 l 132 1015 l 286 1015 l 286 842 m 593 842 l 439 842 l 439 1015 l 593 1015 l 593 842 z "},"å":{"ha":742,"x_min":50,"x_max":649,"o":"m 649 0 l 472 0 l 472 63 q 395 9 435 25 q 294 -7 356 -7 q 110 57 174 -7 q 50 219 50 119 q 113 370 50 311 q 297 429 176 429 l 468 429 l 468 465 q 436 552 468 525 q 333 579 404 579 q 253 566 282 579 q 194 519 224 553 l 79 632 q 189 710 131 689 q 340 732 247 732 q 649 476 649 732 l 649 0 m 468 267 l 468 306 l 325 306 q 250 284 276 306 q 224 224 224 263 q 328 140 224 140 q 442 175 406 140 q 468 267 468 200 m 544 993 q 491 865 544 918 q 363 811 438 811 q 234 865 288 811 q 181 993 181 918 q 234 1122 181 1068 q 363 1175 288 1175 q 491 1122 438 1175 q 544 993 544 1069 m 419 935 q 431 948 419 935 q 443 993 443 960 q 419 1050 443 1026 q 363 1074 396 1074 q 306 1050 329 1074 q 282 993 282 1026 q 306 935 282 960 q 363 911 329 911 q 419 935 396 911 z "},"æ":{"ha":1164,"x_min":50,"x_max":1099,"o":"m 1099 306 l 646 306 q 688 189 646 233 q 804 144 731 144 q 897 160 861 144 q 968 213 932 176 l 1078 106 q 957 19 1018 46 q 803 -8 896 -8 q 549 93 636 -8 q 435 12 493 32 q 294 -8 378 -8 q 110 57 175 -8 q 50 219 50 119 q 113 370 50 311 q 297 429 176 429 l 468 429 l 468 465 q 436 552 468 525 q 333 579 404 579 q 253 566 282 579 q 194 519 224 553 l 79 632 q 189 710 131 689 q 340 732 247 732 q 578 653 506 732 q 783 732 656 732 q 1015 635 931 732 q 1099 386 1099 539 l 1099 306 m 468 267 l 468 306 l 325 306 q 250 284 276 306 q 224 224 224 263 q 328 140 224 140 q 442 175 406 140 q 468 267 468 200 m 921 429 q 904 507 919 472 q 783 582 871 582 q 663 507 696 582 q 646 429 647 472 l 921 429 z "},"ç":{"ha":667,"x_min":65,"x_max":628,"o":"m 628 90 q 389 -8 533 -8 q 300 2 343 -8 q 213 38 257 13 q 138 105 169 64 q 85 212 106 146 q 65 363 65 278 q 85 513 65 447 q 138 619 106 579 q 213 686 169 660 q 300 722 257 713 q 389 732 343 732 q 628 635 535 732 l 506 513 q 389 569 453 569 q 286 522 325 569 q 246 363 246 472 q 286 201 246 251 q 389 154 325 154 q 506 211 453 154 l 628 90 m 451 -83 l 390 -286 l 222 -286 l 318 -83 l 451 -83 z "},"è":{"ha":761,"x_min":65,"x_max":696,"o":"m 696 306 l 243 306 q 285 189 243 233 q 401 144 328 144 q 494 160 458 144 q 565 213 529 176 l 675 106 q 554 19 615 46 q 400 -8 493 -8 q 274 9 331 -8 q 169 67 218 26 q 93 182 121 107 q 65 363 65 257 q 151 634 65 536 q 381 732 238 732 q 612 635 528 732 q 696 386 696 539 l 696 306 m 518 429 q 501 507 517 472 q 381 582 468 582 q 260 507 293 582 q 243 429 244 472 l 518 429 m 461 839 l 340 839 l 182 1075 l 372 1075 l 461 839 z "},"é":{"ha":761,"x_min":65,"x_max":696,"o":"m 696 306 l 243 306 q 285 189 243 233 q 401 144 328 144 q 494 160 458 144 q 565 213 529 176 l 675 106 q 554 19 615 46 q 400 -8 493 -8 q 274 9 331 -8 q 169 67 218 26 q 93 182 121 107 q 65 363 65 257 q 151 634 65 536 q 381 732 238 732 q 612 635 528 732 q 696 386 696 539 l 696 306 m 518 429 q 501 507 517 472 q 381 582 468 582 q 260 507 293 582 q 243 429 244 472 l 518 429 m 588 1075 l 429 839 l 308 839 l 397 1075 l 588 1075 z "},"ê":{"ha":761,"x_min":65,"x_max":696,"o":"m 696 306 l 243 306 q 285 189 243 233 q 401 144 328 144 q 494 160 458 144 q 565 213 529 176 l 675 106 q 554 19 615 46 q 400 -8 493 -8 q 274 9 331 -8 q 169 67 218 26 q 93 182 121 107 q 65 363 65 257 q 151 634 65 536 q 381 732 238 732 q 612 635 528 732 q 696 386 696 539 l 696 306 m 518 429 q 501 507 517 472 q 381 582 468 582 q 260 507 293 582 q 243 429 244 472 l 518 429 m 640 839 l 500 839 l 385 965 l 269 839 l 129 839 l 313 1074 l 457 1074 l 640 839 z "},"ë":{"ha":761,"x_min":65,"x_max":696,"o":"m 696 306 l 243 306 q 285 189 243 233 q 401 144 328 144 q 494 160 458 144 q 565 213 529 176 l 675 106 q 554 19 615 46 q 400 -8 493 -8 q 274 9 331 -8 q 169 67 218 26 q 93 182 121 107 q 65 363 65 257 q 151 634 65 536 q 381 732 238 732 q 612 635 528 732 q 696 386 696 539 l 696 306 m 518 429 q 501 507 517 472 q 381 582 468 582 q 260 507 293 582 q 243 429 244 472 l 518 429 m 308 842 l 154 842 l 154 1015 l 308 1015 l 308 842 m 615 842 l 461 842 l 461 1015 l 615 1015 l 615 842 z "},"ì":{"ha":382,"x_min":1,"x_max":282,"o":"m 282 0 l 101 0 l 101 724 l 282 724 l 282 0 m 281 839 l 160 839 l 1 1075 l 192 1075 l 281 839 z "},"í":{"ha":382,"x_min":100,"x_max":379,"o":"m 282 0 l 101 0 l 101 724 l 282 724 l 282 0 m 379 1075 l 221 839 l 100 839 l 189 1075 l 379 1075 z "},"î":{"ha":382,"x_min":-65,"x_max":446,"o":"m 282 0 l 101 0 l 101 724 l 282 724 l 282 0 m 446 839 l 306 839 l 190 965 l 75 839 l -65 839 l 118 1074 l 263 1074 l 446 839 z "},"ï":{"ha":382,"x_min":-37,"x_max":424,"o":"m 282 0 l 101 0 l 101 724 l 282 724 l 282 0 m 117 842 l -37 842 l -37 1015 l 117 1015 l 117 842 m 424 842 l 269 842 l 269 1015 l 424 1015 l 424 842 z "},"ð":{"ha":754,"x_min":78,"x_max":675,"o":"m 675 353 q 658 189 675 251 q 594 78 640 126 q 376 -8 511 -8 q 158 78 242 -8 q 95 189 113 126 q 78 353 78 251 q 95 515 78 453 q 158 626 113 578 q 282 694 203 674 q 388 704 342 710 l 340 790 l 182 790 l 182 917 l 276 917 l 233 1000 l 426 1000 l 469 917 l 597 917 l 597 790 l 533 790 l 589 683 q 658 518 640 583 q 675 353 675 453 m 494 353 q 457 519 494 481 q 376 550 426 550 q 297 519 328 550 q 258 353 258 479 q 297 185 258 225 q 376 154 328 154 q 457 185 426 154 q 494 353 494 224 z "},"ñ":{"ha":796,"x_min":101,"x_max":703,"o":"m 703 0 l 522 0 l 522 438 q 487 538 522 506 q 403 569 451 569 q 317 538 353 569 q 282 438 282 506 l 282 0 l 101 0 l 101 724 l 278 724 l 278 657 q 458 732 349 732 q 629 668 565 732 q 703 463 703 594 l 703 0 m 653 936 q 496 854 571 854 q 389 886 444 854 q 311 911 346 911 q 229 871 269 911 l 151 950 q 232 1014 197 996 q 307 1032 267 1032 q 414 1000 361 1032 q 490 975 456 975 q 572 1015 532 975 l 653 936 z "},"ò":{"ha":754,"x_min":71,"x_max":683,"o":"m 683 363 q 666 194 683 258 q 601 81 649 129 q 376 -8 518 -8 q 153 81 236 -8 q 88 194 106 129 q 71 363 71 258 q 88 530 71 465 q 153 643 106 594 q 376 732 236 732 q 601 643 518 732 q 666 530 649 594 q 683 363 683 465 m 503 363 q 461 538 503 496 q 376 569 429 569 q 293 538 325 569 q 251 363 251 496 q 293 186 251 228 q 376 154 325 154 q 461 186 429 154 q 503 363 503 228 m 449 839 l 328 839 l 169 1075 l 360 1075 l 449 839 z "},"ó":{"ha":754,"x_min":71,"x_max":683,"o":"m 683 363 q 666 194 683 258 q 601 81 649 129 q 376 -8 518 -8 q 153 81 236 -8 q 88 194 106 129 q 71 363 71 258 q 88 530 71 465 q 153 643 106 594 q 376 732 236 732 q 601 643 518 732 q 666 530 649 594 q 683 363 683 465 m 503 363 q 461 538 503 496 q 376 569 429 569 q 293 538 325 569 q 251 363 251 496 q 293 186 251 228 q 376 154 325 154 q 461 186 429 154 q 503 363 503 228 m 581 1075 l 422 839 l 301 839 l 390 1075 l 581 1075 z "},"ô":{"ha":754,"x_min":71,"x_max":683,"o":"m 683 363 q 666 194 683 258 q 601 81 649 129 q 376 -8 518 -8 q 153 81 236 -8 q 88 194 106 129 q 71 363 71 258 q 88 530 71 465 q 153 643 106 594 q 376 732 236 732 q 601 643 518 732 q 666 530 649 594 q 683 363 683 465 m 503 363 q 461 538 503 496 q 376 569 429 569 q 293 538 325 569 q 251 363 251 496 q 293 186 251 228 q 376 154 325 154 q 461 186 429 154 q 503 363 503 228 m 633 839 l 493 839 l 378 965 l 263 839 l 122 839 l 306 1074 l 450 1074 l 633 839 z "},"õ":{"ha":754,"x_min":71,"x_max":683,"o":"m 683 363 q 666 194 683 258 q 601 81 649 129 q 376 -8 518 -8 q 153 81 236 -8 q 88 194 106 129 q 71 363 71 258 q 88 530 71 465 q 153 643 106 594 q 376 732 236 732 q 601 643 518 732 q 666 530 649 594 q 683 363 683 465 m 503 363 q 461 538 503 496 q 376 569 429 569 q 293 538 325 569 q 251 363 251 496 q 293 186 251 228 q 376 154 325 154 q 461 186 429 154 q 503 363 503 228 m 628 936 q 471 854 546 854 q 364 886 419 854 q 286 911 321 911 q 204 871 244 911 l 126 950 q 207 1014 172 996 q 282 1032 242 1032 q 389 1000 336 1032 q 465 975 431 975 q 547 1015 507 975 l 628 936 z "},"ö":{"ha":754,"x_min":71,"x_max":683,"o":"m 683 363 q 666 194 683 258 q 601 81 649 129 q 376 -8 518 -8 q 153 81 236 -8 q 88 194 106 129 q 71 363 71 258 q 88 530 71 465 q 153 643 106 594 q 376 732 236 732 q 601 643 518 732 q 666 530 649 594 q 683 363 683 465 m 503 363 q 461 538 503 496 q 376 569 429 569 q 293 538 325 569 q 251 363 251 496 q 293 186 251 228 q 376 154 325 154 q 461 186 429 154 q 503 363 503 228 m 301 842 l 147 842 l 147 1015 l 301 1015 l 301 842 m 608 842 l 454 842 l 454 1015 l 608 1015 l 608 842 z "},"÷":{"ha":754,"x_min":64,"x_max":690,"o":"m 690 313 l 64 313 l 64 481 l 690 481 l 690 313 m 468 588 l 288 588 l 288 768 l 468 768 l 468 588 m 468 25 l 288 25 l 288 206 l 468 206 l 468 25 z "},"ø":{"ha":754,"x_min":71,"x_max":683,"o":"m 683 363 q 666 194 683 258 q 601 81 649 129 q 376 -8 518 -8 q 232 24 296 -8 l 182 -61 l 72 -61 l 154 79 l 153 81 q 88 192 106 128 q 71 363 71 257 q 88 530 71 465 q 153 643 106 594 q 376 732 236 732 q 522 701 461 732 l 571 785 l 682 785 l 599 644 l 601 643 q 637 619 622 633 q 660 579 651 604 q 674 538 669 554 q 681 482 679 521 q 683 427 683 443 q 683 363 683 411 m 503 363 q 492 481 503 436 l 310 172 q 376 154 339 154 q 461 186 429 154 q 503 363 503 228 m 444 551 q 376 569 415 569 q 293 538 325 569 q 251 363 251 496 q 261 243 251 282 l 444 551 z "},"ù":{"ha":796,"x_min":93,"x_max":694,"o":"m 694 0 l 518 0 l 518 67 q 338 -8 447 -8 q 167 56 231 -8 q 93 261 93 129 l 93 724 l 274 724 l 274 286 q 309 186 274 218 q 393 154 344 154 q 478 186 443 154 q 514 286 514 218 l 514 724 l 694 724 l 694 0 m 469 839 l 349 839 l 190 1075 l 381 1075 l 469 839 z "},"ú":{"ha":796,"x_min":93,"x_max":694,"o":"m 694 0 l 518 0 l 518 67 q 338 -8 447 -8 q 167 56 231 -8 q 93 261 93 129 l 93 724 l 274 724 l 274 286 q 309 186 274 218 q 393 154 344 154 q 478 186 443 154 q 514 286 514 218 l 514 724 l 694 724 l 694 0 m 596 1075 l 438 839 l 317 839 l 406 1075 l 596 1075 z "},"û":{"ha":796,"x_min":93,"x_max":694,"o":"m 694 0 l 518 0 l 518 67 q 338 -8 447 -8 q 167 56 231 -8 q 93 261 93 129 l 93 724 l 274 724 l 274 286 q 309 186 274 218 q 393 154 344 154 q 478 186 443 154 q 514 286 514 218 l 514 724 l 694 724 l 694 0 m 649 839 l 508 839 l 393 965 l 278 839 l 138 839 l 321 1074 l 465 1074 l 649 839 z "},"ü":{"ha":796,"x_min":93,"x_max":694,"o":"m 694 0 l 518 0 l 518 67 q 338 -8 447 -8 q 167 56 231 -8 q 93 261 93 129 l 93 724 l 274 724 l 274 286 q 309 186 274 218 q 393 154 344 154 q 478 186 443 154 q 514 286 514 218 l 514 724 l 694 724 l 694 0 m 317 842 l 163 842 l 163 1015 l 317 1015 l 317 842 m 624 842 l 469 842 l 469 1015 l 624 1015 l 624 842 z "},"ý":{"ha":686,"x_min":6,"x_max":681,"o":"m 681 724 l 371 -117 q 317 -210 347 -179 q 161 -265 261 -265 l 90 -265 l 90 -103 l 132 -103 q 190 -90 171 -103 q 222 -37 208 -76 l 253 51 l 6 724 l 196 724 l 346 276 l 490 724 l 681 724 m 542 1075 l 383 839 l 263 839 l 351 1075 l 542 1075 z "},"þ":{"ha":781,"x_min":101,"x_max":707,"o":"m 704 477 q 706 456 704 477 q 707 363 707 435 q 704 248 707 290 q 684 148 701 206 q 633 57 667 90 q 457 -8 568 -8 q 282 64 347 -8 l 282 -265 l 101 -265 l 101 989 l 282 989 l 282 660 q 457 732 347 732 q 633 667 568 732 q 684 576 667 633 q 704 477 701 519 m 526 363 q 503 517 526 465 q 404 569 479 569 q 306 517 329 569 q 282 363 282 465 q 286 279 282 313 q 302 215 290 246 q 340 169 314 185 q 404 154 365 154 q 469 169 443 154 q 506 215 494 185 q 522 279 518 246 q 526 363 526 313 z "},"ÿ":{"ha":686,"x_min":6,"x_max":681,"o":"m 681 724 l 371 -117 q 317 -210 347 -179 q 161 -265 261 -265 l 90 -265 l 90 -103 l 132 -103 q 190 -90 171 -103 q 222 -37 208 -76 l 253 51 l 6 724 l 196 724 l 346 276 l 490 724 l 681 724 m 263 842 l 108 842 l 108 1015 l 263 1015 l 263 842 m 569 842 l 415 842 l 415 1015 l 569 1015 l 569 842 z "},"Ā":{"ha":886,"x_min":7,"x_max":879,"o":"m 879 0 l 678 0 l 619 175 l 268 175 l 208 0 l 7 0 l 367 989 l 518 989 l 879 0 m 568 338 l 447 697 l 322 338 l 568 338 m 663 1121 l 224 1121 l 224 1242 l 663 1242 l 663 1121 z "},"ā":{"ha":742,"x_min":50,"x_max":649,"o":"m 649 0 l 472 0 l 472 63 q 395 9 435 25 q 294 -7 356 -7 q 110 57 174 -7 q 50 219 50 119 q 113 370 50 311 q 297 429 176 429 l 468 429 l 468 465 q 436 552 468 525 q 333 579 404 579 q 253 566 282 579 q 194 519 224 553 l 79 632 q 189 710 131 689 q 340 732 247 732 q 649 476 649 732 l 649 0 m 468 267 l 468 306 l 325 306 q 250 284 276 306 q 224 224 224 263 q 328 140 224 140 q 442 175 406 140 q 468 267 468 200 m 590 875 l 151 875 l 151 996 l 590 996 l 590 875 z "},"Ă":{"ha":886,"x_min":7,"x_max":879,"o":"m 879 0 l 678 0 l 619 175 l 268 175 l 208 0 l 7 0 l 367 989 l 518 989 l 879 0 m 568 338 l 447 697 l 322 338 l 568 338 m 669 1308 q 601 1151 664 1201 q 442 1100 539 1100 q 282 1151 344 1100 q 214 1308 219 1201 l 335 1308 q 442 1225 343 1225 q 549 1308 540 1225 l 669 1308 z "},"ă":{"ha":742,"x_min":50,"x_max":649,"o":"m 649 0 l 472 0 l 472 63 q 395 9 435 25 q 294 -7 356 -7 q 110 57 174 -7 q 50 219 50 119 q 113 370 50 311 q 297 429 176 429 l 468 429 l 468 465 q 436 552 468 525 q 333 579 404 579 q 253 566 282 579 q 194 519 224 553 l 79 632 q 189 710 131 689 q 340 732 247 732 q 649 476 649 732 l 649 0 m 468 267 l 468 306 l 325 306 q 250 284 276 306 q 224 224 224 263 q 328 140 224 140 q 442 175 406 140 q 468 267 468 200 m 582 1056 q 514 898 576 949 q 354 847 451 847 q 194 898 257 847 q 126 1056 132 949 l 247 1056 q 354 972 256 972 q 461 1056 453 972 l 582 1056 z "},"Ą":{"ha":886,"x_min":7,"x_max":879,"o":"m 879 0 l 678 0 l 619 175 l 268 175 l 208 0 l 7 0 l 367 989 l 518 989 l 879 0 m 568 338 l 447 697 l 322 338 l 568 338 m 811 -83 l 750 -286 l 582 -286 l 678 -83 l 811 -83 z "},"ą":{"ha":742,"x_min":50,"x_max":649,"o":"m 649 0 l 472 0 l 472 63 q 395 9 435 25 q 294 -7 356 -7 q 110 57 174 -7 q 50 219 50 119 q 113 370 50 311 q 297 429 176 429 l 468 429 l 468 465 q 436 552 468 525 q 333 579 404 579 q 253 566 282 579 q 194 519 224 553 l 79 632 q 189 710 131 689 q 340 732 247 732 q 649 476 649 732 l 649 0 m 468 267 l 468 306 l 325 306 q 250 284 276 306 q 224 224 224 263 q 328 140 224 140 q 442 175 406 140 q 468 267 468 200 m 606 -83 l 544 -286 l 376 -286 l 472 -83 l 606 -83 z "},"Ć":{"ha":781,"x_min":82,"x_max":810,"o":"m 810 304 q 688 74 785 156 q 446 -8 590 -8 q 179 100 288 -8 q 99 249 115 164 q 82 494 82 332 q 99 740 82 657 q 179 889 115 825 q 446 997 288 997 q 688 915 590 997 q 810 685 785 833 l 614 685 q 447 825 579 825 q 324 774 367 825 q 284 690 293 742 q 275 494 275 638 q 284 299 275 351 q 324 215 293 247 q 447 164 367 164 q 614 304 579 164 l 810 304 m 633 1321 l 475 1085 l 354 1085 l 443 1321 l 633 1321 z "},"ć":{"ha":667,"x_min":65,"x_max":628,"o":"m 628 90 q 389 -8 533 -8 q 300 2 343 -8 q 213 38 257 13 q 138 105 169 64 q 85 212 106 146 q 65 363 65 278 q 85 513 65 447 q 138 619 106 579 q 213 686 169 660 q 300 722 257 713 q 389 732 343 732 q 628 635 535 732 l 506 513 q 389 569 453 569 q 286 522 325 569 q 246 363 246 472 q 286 201 246 251 q 389 154 325 154 q 506 211 453 154 l 628 90 m 571 1075 l 413 839 l 292 839 l 381 1075 l 571 1075 z "},"Ĉ":{"ha":861,"x_min":82,"x_max":810,"o":"m 810 304 q 688 74 785 156 q 446 -8 590 -8 q 179 100 288 -8 q 99 249 115 164 q 82 494 82 332 q 99 740 82 657 q 179 889 115 825 q 446 997 288 997 q 688 915 590 997 q 810 685 785 833 l 614 685 q 447 825 579 825 q 324 774 367 825 q 284 690 293 742 q 275 494 275 638 q 284 299 275 351 q 324 215 293 247 q 447 164 367 164 q 614 304 579 164 l 810 304 m 703 1085 l 563 1085 l 447 1211 l 332 1085 l 192 1085 l 375 1319 l 519 1319 l 703 1085 z "},"ĉ":{"ha":683,"x_min":65,"x_max":644,"o":"m 628 90 q 389 -8 533 -8 q 300 2 343 -8 q 213 38 257 13 q 138 105 169 64 q 85 212 106 146 q 65 363 65 278 q 85 513 65 447 q 138 619 106 579 q 213 686 169 660 q 300 722 257 713 q 389 732 343 732 q 628 635 535 732 l 506 513 q 389 569 453 569 q 286 522 325 569 q 246 363 246 472 q 286 201 246 251 q 389 154 325 154 q 506 211 453 154 l 628 90 m 644 839 l 504 839 l 389 965 l 274 839 l 133 839 l 317 1074 l 461 1074 l 644 839 z "},"Ċ":{"ha":861,"x_min":82,"x_max":810,"o":"m 810 304 q 688 74 785 156 q 446 -8 590 -8 q 179 100 288 -8 q 99 249 115 164 q 82 494 82 332 q 99 740 82 657 q 179 889 115 825 q 446 997 288 997 q 688 915 590 997 q 810 685 785 833 l 614 685 q 447 825 579 825 q 324 774 367 825 q 284 690 293 742 q 275 494 275 638 q 284 299 275 351 q 324 215 293 247 q 447 164 367 164 q 614 304 579 164 l 810 304 m 536 1088 l 350 1088 l 350 1235 l 536 1235 l 536 1088 z "},"ċ":{"ha":667,"x_min":65,"x_max":628,"o":"m 628 90 q 389 -8 533 -8 q 300 2 343 -8 q 213 38 257 13 q 138 105 169 64 q 85 212 106 146 q 65 363 65 278 q 85 513 65 447 q 138 619 106 579 q 213 686 169 660 q 300 722 257 713 q 389 732 343 732 q 628 635 535 732 l 506 513 q 389 569 453 569 q 286 522 325 569 q 246 363 246 472 q 286 201 246 251 q 389 154 325 154 q 506 211 453 154 l 628 90 m 482 847 l 296 847 l 296 994 l 482 994 l 482 847 z "},"Č":{"ha":861,"x_min":82,"x_max":810,"o":"m 810 304 q 688 74 785 156 q 446 -8 590 -8 q 179 100 288 -8 q 99 249 115 164 q 82 494 82 332 q 99 740 82 657 q 179 889 115 825 q 446 997 288 997 q 688 915 590 997 q 810 685 785 833 l 614 685 q 447 825 579 825 q 324 774 367 825 q 284 690 293 742 q 275 494 275 638 q 284 299 275 351 q 324 215 293 247 q 447 164 367 164 q 614 304 579 164 l 810 304 m 703 1319 l 519 1085 l 375 1085 l 192 1319 l 332 1319 l 447 1194 l 563 1319 l 703 1319 z "},"č":{"ha":667,"x_min":65,"x_max":644,"o":"m 628 90 q 389 -8 533 -8 q 300 2 343 -8 q 213 38 257 13 q 138 105 169 64 q 85 212 106 146 q 65 363 65 278 q 85 513 65 447 q 138 619 106 579 q 213 686 169 660 q 300 722 257 713 q 389 732 343 732 q 628 635 535 732 l 506 513 q 389 569 453 569 q 286 522 325 569 q 246 363 246 472 q 286 201 246 251 q 389 154 325 154 q 506 211 453 154 l 628 90 m 644 1074 l 461 839 l 317 839 l 133 1074 l 274 1074 l 389 949 l 504 1074 l 644 1074 z "},"Ď":{"ha":915,"x_min":115,"x_max":833,"o":"m 833 547 q 833 527 833 547 q 833 499 833 507 q 833 451 833 490 q 833 400 833 411 q 832 353 833 389 q 828 304 831 318 q 821 261 825 290 q 809 215 817 232 q 791 174 801 197 q 766 131 781 150 q 733 94 751 113 q 472 0 639 0 l 115 0 l 115 989 l 472 989 q 733 894 639 989 q 766 858 751 876 q 791 816 781 839 q 809 776 801 793 q 821 731 817 760 q 828 690 825 703 q 832 642 831 676 q 833 597 833 607 q 833 547 833 586 m 640 499 q 633 670 640 617 q 599 756 625 724 q 454 817 549 817 l 308 817 l 308 172 l 454 172 q 599 233 549 172 q 633 322 625 265 q 640 499 640 378 m 713 1319 l 529 1085 l 385 1085 l 201 1319 l 342 1319 l 457 1194 l 572 1319 l 713 1319 z "},"ď":{"ha":779,"x_min":71,"x_max":996,"o":"m 996 894 l 807 751 l 807 1031 l 996 1031 l 996 894 m 678 0 l 501 0 l 501 68 q 322 -8 433 -8 q 144 57 210 -8 q 94 148 111 90 q 74 248 76 206 q 71 363 71 290 q 74 477 71 435 q 94 576 76 519 q 144 667 111 633 q 321 732 210 732 q 497 660 432 732 l 497 989 l 678 989 l 678 0 m 473 207 q 485 233 473 207 q 497 363 497 260 q 473 517 497 465 q 374 569 449 569 q 275 517 299 569 q 251 363 251 465 q 256 279 251 313 q 272 215 260 246 q 309 169 283 185 q 374 154 335 154 q 473 207 449 154 z "},"Đ":{"ha":947,"x_min":51,"x_max":865,"o":"m 865 494 q 863 331 865 375 q 842 225 861 286 q 778 115 822 164 q 501 0 674 0 l 147 0 l 147 426 l 51 426 l 51 574 l 147 574 l 147 989 l 504 989 q 778 872 675 989 q 823 806 806 842 q 849 748 840 769 q 861 669 857 726 q 865 595 865 611 q 865 494 865 579 m 672 492 q 666 667 672 621 q 638 746 660 714 q 486 818 586 818 l 340 818 l 340 574 l 501 574 l 501 426 l 340 426 l 340 171 l 486 171 q 640 244 592 171 q 667 317 661 275 q 672 492 672 360 z "},"đ":{"ha":779,"x_min":71,"x_max":761,"o":"m 761 788 l 678 788 l 678 0 l 501 0 l 501 68 q 322 -8 433 -8 q 144 57 210 -8 q 94 148 111 90 q 74 248 76 206 q 71 363 71 290 q 74 477 71 435 q 94 576 76 519 q 144 667 111 633 q 321 732 210 732 q 497 660 432 732 l 497 788 l 374 788 l 374 901 l 497 901 l 497 989 l 678 989 l 678 901 l 761 901 l 761 788 m 473 207 q 485 233 473 207 q 497 363 497 260 q 473 517 497 465 q 374 569 449 569 q 275 517 299 569 q 251 363 251 465 q 256 279 251 313 q 272 215 260 246 q 309 169 283 185 q 374 154 335 154 q 473 207 449 154 z "},"Ē":{"ha":840,"x_min":115,"x_max":767,"o":"m 767 0 l 115 0 l 115 989 l 767 989 l 767 817 l 308 817 l 308 585 l 699 585 l 699 413 l 308 413 l 308 172 l 767 172 l 767 0 m 639 1121 l 200 1121 l 200 1242 l 639 1242 l 639 1121 z "},"ē":{"ha":761,"x_min":65,"x_max":696,"o":"m 696 306 l 243 306 q 285 189 243 233 q 401 144 328 144 q 494 160 458 144 q 565 213 529 176 l 675 106 q 554 19 615 46 q 400 -8 493 -8 q 274 9 331 -8 q 169 67 218 26 q 93 182 121 107 q 65 363 65 257 q 151 634 65 536 q 381 732 238 732 q 612 635 528 732 q 696 386 696 539 l 696 306 m 518 429 q 501 507 517 472 q 381 582 468 582 q 260 507 293 582 q 243 429 244 472 l 518 429 m 600 875 l 161 875 l 161 996 l 600 996 l 600 875 z "},"Ė":{"ha":840,"x_min":115,"x_max":767,"o":"m 767 0 l 115 0 l 115 989 l 767 989 l 767 817 l 308 817 l 308 585 l 699 585 l 699 413 l 308 413 l 308 172 l 767 172 l 767 0 m 513 1090 l 326 1090 l 326 1238 l 513 1238 l 513 1090 z "},"ė":{"ha":761,"x_min":65,"x_max":696,"o":"m 696 306 l 243 306 q 285 189 243 233 q 401 144 328 144 q 494 160 458 144 q 565 213 529 176 l 675 106 q 554 19 615 46 q 400 -8 493 -8 q 274 9 331 -8 q 169 67 218 26 q 93 182 121 107 q 65 363 65 257 q 151 634 65 536 q 381 732 238 732 q 612 635 528 732 q 696 386 696 539 l 696 306 m 518 429 q 501 507 517 472 q 381 582 468 582 q 260 507 293 582 q 243 429 244 472 l 518 429 m 474 844 l 288 844 l 288 992 l 474 992 l 474 844 z "},"Ę":{"ha":840,"x_min":115,"x_max":767,"o":"m 767 0 l 115 0 l 115 989 l 767 989 l 767 817 l 308 817 l 308 585 l 699 585 l 699 413 l 308 413 l 308 172 l 767 172 l 767 0 m 767 -83 l 706 -286 l 538 -286 l 633 -83 l 767 -83 z "},"ę":{"ha":761,"x_min":65,"x_max":696,"o":"m 696 306 l 243 306 q 285 189 243 233 q 401 144 328 144 q 494 160 458 144 q 565 213 529 176 l 675 106 q 554 19 615 46 q 400 -8 493 -8 q 274 9 331 -8 q 169 67 218 26 q 93 182 121 107 q 65 363 65 257 q 151 634 65 536 q 381 732 238 732 q 612 635 528 732 q 696 386 696 539 l 696 306 m 518 429 q 501 507 517 472 q 381 582 468 582 q 260 507 293 582 q 243 429 244 472 l 518 429 m 565 -83 l 504 -286 l 336 -286 l 432 -83 l 565 -83 z "},"Ě":{"ha":840,"x_min":115,"x_max":767,"o":"m 767 0 l 115 0 l 115 989 l 767 989 l 767 817 l 308 817 l 308 585 l 699 585 l 699 413 l 308 413 l 308 172 l 767 172 l 767 0 m 675 1319 l 492 1085 l 347 1085 l 164 1319 l 304 1319 l 419 1194 l 535 1319 l 675 1319 z "},"ě":{"ha":761,"x_min":65,"x_max":696,"o":"m 696 306 l 243 306 q 285 189 243 233 q 401 144 328 144 q 494 160 458 144 q 565 213 529 176 l 675 106 q 554 19 615 46 q 400 -8 493 -8 q 274 9 331 -8 q 169 67 218 26 q 93 182 121 107 q 65 363 65 257 q 151 634 65 536 q 381 732 238 732 q 612 635 528 732 q 696 386 696 539 l 696 306 m 518 429 q 501 507 517 472 q 381 582 468 582 q 260 507 293 582 q 243 429 244 472 l 518 429 m 636 1074 l 453 839 l 308 839 l 125 1074 l 265 1074 l 381 949 l 496 1074 l 636 1074 z "},"Ĝ":{"ha":885,"x_min":82,"x_max":819,"o":"m 819 406 q 798 228 819 297 q 725 104 776 158 q 446 -8 614 -8 q 179 100 288 -8 q 99 249 115 164 q 82 494 82 332 q 99 740 82 657 q 179 889 115 825 q 446 997 288 997 q 701 908 606 997 q 818 681 797 819 l 624 681 q 446 825 588 825 q 322 772 368 825 q 284 685 293 736 q 275 494 275 635 q 284 301 275 351 q 322 215 293 250 q 446 164 365 164 q 583 219 532 164 q 628 351 628 271 l 628 389 l 446 389 l 446 550 l 819 550 l 819 406 m 703 1085 l 563 1085 l 447 1211 l 332 1085 l 192 1085 l 375 1319 l 519 1319 l 703 1085 z "},"ĝ":{"ha":771,"x_min":71,"x_max":669,"o":"m 669 26 q 583 -190 669 -106 q 351 -274 496 -274 q 204 -253 265 -274 q 89 -179 143 -232 l 201 -65 q 343 -121 258 -121 q 453 -77 418 -121 q 489 29 489 -33 l 489 103 q 317 31 424 31 q 144 94 208 31 q 84 206 97 142 q 71 382 71 271 q 84 557 71 493 q 144 668 97 621 q 318 732 208 732 q 494 656 425 732 l 494 724 l 669 724 l 669 26 m 489 382 q 465 519 489 469 q 369 569 442 569 q 306 555 331 569 q 270 511 282 540 q 255 453 258 482 q 251 382 251 424 q 255 311 251 340 q 269 253 258 282 q 306 208 281 224 q 369 193 331 193 q 433 208 408 193 q 469 253 458 224 q 485 311 481 282 q 489 382 489 340 m 625 839 l 485 839 l 369 965 l 254 839 l 114 839 l 297 1074 l 442 1074 l 625 839 z "},"Ğ":{"ha":885,"x_min":82,"x_max":819,"o":"m 819 406 q 798 228 819 297 q 725 104 776 158 q 446 -8 614 -8 q 179 100 288 -8 q 99 249 115 164 q 82 494 82 332 q 99 740 82 657 q 179 889 115 825 q 446 997 288 997 q 701 908 606 997 q 818 681 797 819 l 624 681 q 446 825 588 825 q 322 772 368 825 q 284 685 293 736 q 275 494 275 635 q 284 301 275 351 q 322 215 293 250 q 446 164 365 164 q 583 219 532 164 q 628 351 628 271 l 628 389 l 446 389 l 446 550 l 819 550 l 819 406 m 674 1308 q 606 1151 668 1201 q 446 1100 543 1100 q 286 1151 349 1100 q 218 1308 224 1201 l 339 1308 q 446 1225 347 1225 q 553 1308 544 1225 l 674 1308 z "},"ğ":{"ha":771,"x_min":71,"x_max":669,"o":"m 669 26 q 583 -190 669 -106 q 351 -274 496 -274 q 204 -253 265 -274 q 89 -179 143 -232 l 201 -65 q 343 -121 258 -121 q 453 -77 418 -121 q 489 29 489 -33 l 489 103 q 317 31 424 31 q 144 94 208 31 q 84 206 97 142 q 71 382 71 271 q 84 557 71 493 q 144 668 97 621 q 318 732 208 732 q 494 656 425 732 l 494 724 l 669 724 l 669 26 m 489 382 q 465 519 489 469 q 369 569 442 569 q 306 555 331 569 q 270 511 282 540 q 255 453 258 482 q 251 382 251 424 q 255 311 251 340 q 269 253 258 282 q 306 208 281 224 q 369 193 331 193 q 433 208 408 193 q 469 253 458 224 q 485 311 481 282 q 489 382 489 340 m 597 1056 q 529 898 592 949 q 369 847 467 847 q 210 898 272 847 q 142 1056 147 949 l 263 1056 q 369 972 271 972 q 476 1056 468 972 l 597 1056 z "},"Ġ":{"ha":885,"x_min":82,"x_max":819,"o":"m 819 406 q 798 228 819 297 q 725 104 776 158 q 446 -8 614 -8 q 179 100 288 -8 q 99 249 115 164 q 82 494 82 332 q 99 740 82 657 q 179 889 115 825 q 446 997 288 997 q 701 908 606 997 q 818 681 797 819 l 624 681 q 446 825 588 825 q 322 772 368 825 q 284 685 293 736 q 275 494 275 635 q 284 301 275 351 q 322 215 293 250 q 446 164 365 164 q 583 219 532 164 q 628 351 628 271 l 628 389 l 446 389 l 446 550 l 819 550 l 819 406 m 539 1088 l 353 1088 l 353 1235 l 539 1235 l 539 1088 z "},"ġ":{"ha":771,"x_min":71,"x_max":669,"o":"m 669 26 q 583 -190 669 -106 q 351 -274 496 -274 q 204 -253 265 -274 q 89 -179 143 -232 l 201 -65 q 343 -121 258 -121 q 453 -77 418 -121 q 489 29 489 -33 l 489 103 q 317 31 424 31 q 144 94 208 31 q 84 206 97 142 q 71 382 71 271 q 84 557 71 493 q 144 668 97 621 q 318 732 208 732 q 494 656 425 732 l 494 724 l 669 724 l 669 26 m 489 382 q 465 519 489 469 q 369 569 442 569 q 306 555 331 569 q 270 511 282 540 q 255 453 258 482 q 251 382 251 424 q 255 311 251 340 q 269 253 258 282 q 306 208 281 224 q 369 193 331 193 q 433 208 408 193 q 469 253 458 224 q 485 311 481 282 q 489 382 489 340 m 463 847 l 276 847 l 276 994 l 463 994 l 463 847 z "},"Ģ":{"ha":885,"x_min":82,"x_max":819,"o":"m 819 406 q 798 228 819 297 q 725 104 776 158 q 446 -8 614 -8 q 179 100 288 -8 q 99 249 115 164 q 82 494 82 332 q 99 740 82 657 q 179 889 115 825 q 446 997 288 997 q 701 908 606 997 q 818 681 797 819 l 624 681 q 446 825 588 825 q 322 772 368 825 q 284 685 293 736 q 275 494 275 635 q 284 301 275 351 q 322 215 293 250 q 446 164 365 164 q 583 219 532 164 q 628 351 628 271 l 628 389 l 446 389 l 446 550 l 819 550 l 819 406 m 554 -83 l 493 -286 l 325 -286 l 421 -83 l 554 -83 z "},"ģ":{"ha":771,"x_min":71,"x_max":669,"o":"m 669 26 q 583 -190 669 -106 q 351 -274 496 -274 q 204 -253 265 -274 q 89 -179 143 -232 l 201 -65 q 343 -121 258 -121 q 453 -77 418 -121 q 489 29 489 -33 l 489 103 q 317 31 424 31 q 144 94 208 31 q 84 206 97 142 q 71 382 71 271 q 84 557 71 493 q 144 668 97 621 q 318 732 208 732 q 494 656 425 732 l 494 724 l 669 724 l 669 26 m 489 382 q 465 519 489 469 q 369 569 442 569 q 306 555 331 569 q 270 511 282 540 q 255 453 258 482 q 251 382 251 424 q 255 311 251 340 q 269 253 258 282 q 306 208 281 224 q 369 193 331 193 q 433 208 408 193 q 469 253 458 224 q 485 311 481 282 q 489 382 489 340 m 588 1075 l 429 839 l 308 839 l 397 1075 l 588 1075 z "},"Ĥ":{"ha":951,"x_min":115,"x_max":836,"o":"m 836 0 l 643 0 l 643 414 l 308 414 l 308 0 l 115 0 l 115 989 l 308 989 l 308 585 l 643 585 l 643 989 l 836 989 l 836 0 m 732 1085 l 592 1085 l 476 1211 l 361 1085 l 221 1085 l 404 1319 l 549 1319 l 732 1085 z "},"ĥ":{"ha":790,"x_min":-62,"x_max":697,"o":"m 697 0 l 517 0 l 517 442 q 482 539 517 508 q 399 569 447 569 q 316 538 350 569 q 282 442 282 507 l 282 0 l 101 0 l 101 989 l 282 989 l 282 657 q 456 732 354 732 q 634 659 571 732 q 697 468 697 586 l 697 0 m 449 1085 l 308 1085 l 193 1211 l 78 1085 l -62 1085 l 121 1319 l 265 1319 l 449 1085 z "},"Ħ":{"ha":1013,"x_min":50,"x_max":963,"o":"m 963 706 l 867 706 l 867 0 l 674 0 l 674 414 l 339 414 l 339 0 l 146 0 l 146 706 l 50 706 l 50 853 l 146 853 l 146 989 l 339 989 l 339 853 l 674 853 l 674 989 l 867 989 l 867 853 l 963 853 l 963 706 m 674 586 l 674 706 l 339 706 l 339 586 l 674 586 z "},"ħ":{"ha":790,"x_min":31,"x_max":697,"o":"m 697 0 l 517 0 l 517 442 q 482 539 517 508 q 399 569 447 569 q 316 538 350 569 q 282 442 282 507 l 282 0 l 101 0 l 101 788 l 31 788 l 31 901 l 101 901 l 101 989 l 282 989 l 282 901 l 400 901 l 400 788 l 282 788 l 282 657 q 456 732 354 732 q 634 659 571 732 q 697 468 697 586 l 697 0 z "},"Ī":{"ha":424,"x_min":-7,"x_max":432,"o":"m 308 0 l 115 0 l 115 989 l 308 989 l 308 0 m 432 1121 l -7 1121 l -7 1242 l 432 1242 l 432 1121 z "},"ī":{"ha":382,"x_min":-28,"x_max":411,"o":"m 282 0 l 101 0 l 101 724 l 282 724 l 282 0 m 411 875 l -28 875 l -28 996 l 411 996 l 411 875 z "},"Į":{"ha":424,"x_min":19,"x_max":308,"o":"m 308 0 l 115 0 l 115 989 l 308 989 l 308 0 m 249 -83 l 188 -286 l 19 -286 l 115 -83 l 249 -83 z "},"į":{"ha":382,"x_min":6,"x_max":283,"o":"m 282 0 l 101 0 l 101 724 l 282 724 l 282 0 m 283 847 l 99 847 l 99 994 l 283 994 l 283 847 m 235 -83 l 174 -286 l 6 -286 l 101 -83 l 235 -83 z "},"İ":{"ha":424,"x_min":115,"x_max":308,"o":"m 308 0 l 115 0 l 115 989 l 308 989 l 308 0 m 304 1088 l 118 1088 l 118 1235 l 304 1235 l 304 1088 z "},"ı":{"ha":382,"x_min":101,"x_max":282,"o":"m 282 0 l 101 0 l 101 724 l 282 724 l 282 0 z "},"Ĵ":{"ha":710,"x_min":4,"x_max":765,"o":"m 607 325 q 506 80 607 168 q 258 -8 404 -8 q 118 15 178 -8 q 4 93 58 39 l 132 219 q 258 164 188 164 q 372 207 331 164 q 414 333 414 250 l 414 989 l 607 989 l 607 325 m 765 1085 l 625 1085 l 510 1211 l 394 1085 l 254 1085 l 438 1319 l 582 1319 l 765 1085 z "},"ĵ":{"ha":382,"x_min":-64,"x_max":447,"o":"m 282 -64 q 228 -210 282 -149 q 71 -271 175 -271 l -32 -271 l -32 -118 l 38 -118 q 101 -53 101 -118 l 101 724 l 282 724 l 282 -64 m 447 839 l 307 839 l 192 965 l 76 839 l -64 839 l 119 1074 l 264 1074 l 447 839 z "},"Ķ":{"ha":924,"x_min":115,"x_max":915,"o":"m 915 0 l 690 0 l 436 450 l 308 297 l 308 0 l 115 0 l 115 989 l 308 989 l 308 558 l 657 989 l 892 989 l 564 596 l 915 0 m 599 -83 l 538 -286 l 369 -286 l 465 -83 l 599 -83 z "},"ķ":{"ha":776,"x_min":101,"x_max":760,"o":"m 760 0 l 536 0 l 358 301 l 282 215 l 282 0 l 101 0 l 101 989 l 282 989 l 282 428 l 522 724 l 740 724 l 482 432 l 760 0 m 492 -83 l 431 -286 l 263 -286 l 358 -83 l 492 -83 z "},"Ĺ":{"ha":799,"x_min":115,"x_max":757,"o":"m 757 0 l 115 0 l 115 989 l 308 989 l 308 172 l 757 172 l 757 0 m 533 1321 l 375 1085 l 254 1085 l 343 1321 l 533 1321 z "},"ĺ":{"ha":451,"x_min":94,"x_max":429,"o":"m 408 0 l 306 0 q 148 61 201 0 q 94 207 94 122 l 94 989 l 275 989 l 275 218 q 339 153 275 153 l 408 153 l 408 0 m 429 1321 l 271 1085 l 150 1085 l 239 1321 l 429 1321 z "},"Ļ":{"ha":799,"x_min":115,"x_max":757,"o":"m 757 0 l 115 0 l 115 989 l 308 989 l 308 172 l 757 172 l 757 0 m 503 -83 l 442 -286 l 274 -286 l 369 -83 l 503 -83 z "},"ļ":{"ha":451,"x_min":94,"x_max":408,"o":"m 408 0 l 306 0 q 148 61 201 0 q 94 207 94 122 l 94 989 l 275 989 l 275 218 q 339 153 275 153 l 408 153 l 408 0 m 331 -83 l 269 -286 l 101 -286 l 197 -83 l 331 -83 z "},"Ľ":{"ha":799,"x_min":115,"x_max":757,"o":"m 658 817 l 469 674 l 469 989 l 658 989 l 658 817 m 757 0 l 115 0 l 115 989 l 308 989 l 308 172 l 757 172 l 757 0 z "},"ľ":{"ha":451,"x_min":94,"x_max":593,"o":"m 593 894 l 404 751 l 404 1031 l 593 1031 l 593 894 m 408 0 l 306 0 q 148 61 201 0 q 94 207 94 122 l 94 989 l 275 989 l 275 218 q 339 153 275 153 l 408 153 l 408 0 z "},"Ł":{"ha":824,"x_min":51,"x_max":782,"o":"m 782 0 l 140 0 l 140 339 l 51 282 l 51 443 l 140 500 l 140 989 l 333 989 l 333 621 l 511 733 l 511 574 l 333 461 l 333 172 l 782 172 l 782 0 z "},"ł":{"ha":467,"x_min":42,"x_max":429,"o":"m 429 0 l 326 0 q 169 60 222 0 q 117 207 117 121 l 117 419 l 42 374 l 42 525 l 117 572 l 117 989 l 297 989 l 297 681 l 381 732 l 381 581 l 297 528 l 297 218 q 360 153 297 153 l 429 153 l 429 0 z "},"Ń":{"ha":988,"x_min":115,"x_max":872,"o":"m 872 0 l 700 0 l 308 607 l 308 0 l 115 0 l 115 989 l 288 989 l 679 383 l 679 989 l 872 989 l 872 0 m 696 1321 l 538 1085 l 417 1085 l 506 1321 l 696 1321 z "},"ń":{"ha":796,"x_min":101,"x_max":703,"o":"m 703 0 l 522 0 l 522 438 q 487 538 522 506 q 403 569 451 569 q 317 538 353 569 q 282 438 282 506 l 282 0 l 101 0 l 101 724 l 278 724 l 278 657 q 458 732 349 732 q 629 668 565 732 q 703 463 703 594 l 703 0 m 596 1075 l 438 839 l 317 839 l 406 1075 l 596 1075 z "},"Ņ":{"ha":988,"x_min":115,"x_max":872,"o":"m 872 0 l 700 0 l 308 607 l 308 0 l 115 0 l 115 989 l 288 989 l 679 383 l 679 989 l 872 989 l 872 0 m 597 -83 l 536 -286 l 368 -286 l 464 -83 l 597 -83 z "},"ņ":{"ha":796,"x_min":101,"x_max":703,"o":"m 703 0 l 522 0 l 522 438 q 487 538 522 506 q 403 569 451 569 q 317 538 353 569 q 282 438 282 506 l 282 0 l 101 0 l 101 724 l 278 724 l 278 657 q 458 732 349 732 q 629 668 565 732 q 703 463 703 594 l 703 0 m 501 -83 l 440 -286 l 272 -286 l 368 -83 l 501 -83 z "},"Ň":{"ha":988,"x_min":115,"x_max":872,"o":"m 872 0 l 700 0 l 308 607 l 308 0 l 115 0 l 115 989 l 288 989 l 679 383 l 679 989 l 872 989 l 872 0 m 749 1319 l 565 1085 l 421 1085 l 238 1319 l 378 1319 l 493 1194 l 608 1319 l 749 1319 z "},"ň":{"ha":796,"x_min":101,"x_max":703,"o":"m 703 0 l 522 0 l 522 438 q 487 538 522 506 q 403 569 451 569 q 317 538 353 569 q 282 438 282 506 l 282 0 l 101 0 l 101 724 l 278 724 l 278 657 q 458 732 349 732 q 629 668 565 732 q 703 463 703 594 l 703 0 m 653 1074 l 469 839 l 325 839 l 142 1074 l 282 1074 l 397 949 l 513 1074 l 653 1074 z "},"Ō":{"ha":894,"x_min":82,"x_max":813,"o":"m 811 618 q 812 599 811 618 q 813 494 813 579 q 811 371 813 410 q 801 274 810 332 q 772 176 793 217 q 714 100 750 136 q 447 -8 606 -8 q 179 100 288 -8 q 122 176 143 136 q 93 275 101 215 q 83 371 85 335 q 82 494 82 407 q 83 618 82 582 q 93 714 85 654 q 122 813 101 774 q 179 889 143 853 q 447 997 288 997 q 714 889 606 997 q 772 813 750 853 q 801 715 793 772 q 811 618 810 657 m 610 302 q 615 329 610 302 q 619 494 619 356 q 610 687 619 633 q 571 772 600 740 q 447 825 525 825 q 322 772 368 825 q 284 688 293 740 q 275 494 275 635 q 284 301 275 354 q 322 217 293 249 q 447 164 368 164 q 571 217 525 164 q 610 302 600 249 m 667 1121 l 228 1121 l 228 1242 l 667 1242 l 667 1121 z "},"ō":{"ha":754,"x_min":71,"x_max":683,"o":"m 683 363 q 666 194 683 258 q 601 81 649 129 q 376 -8 518 -8 q 153 81 236 -8 q 88 194 106 129 q 71 363 71 258 q 88 530 71 465 q 153 643 106 594 q 376 732 236 732 q 601 643 518 732 q 666 530 649 594 q 683 363 683 465 m 503 363 q 461 538 503 496 q 376 569 429 569 q 293 538 325 569 q 251 363 251 496 q 293 186 251 228 q 376 154 325 154 q 461 186 429 154 q 503 363 503 228 m 596 875 l 157 875 l 157 996 l 596 996 l 596 875 z "},"Ő":{"ha":894,"x_min":82,"x_max":813,"o":"m 811 618 q 812 599 811 618 q 813 494 813 579 q 811 371 813 410 q 801 274 810 332 q 772 176 793 217 q 714 100 750 136 q 447 -8 606 -8 q 179 100 288 -8 q 122 176 143 136 q 93 275 101 215 q 83 371 85 335 q 82 494 82 407 q 83 618 82 582 q 93 714 85 654 q 122 813 101 774 q 179 889 143 853 q 447 997 288 997 q 714 889 606 997 q 772 813 750 853 q 801 715 793 772 q 811 618 810 657 m 610 302 q 615 329 610 302 q 619 494 619 356 q 610 687 619 633 q 571 772 600 740 q 447 825 525 825 q 322 772 368 825 q 284 688 293 740 q 275 494 275 635 q 284 301 275 354 q 322 217 293 249 q 447 164 368 164 q 571 217 525 164 q 610 302 600 249 m 486 1321 l 328 1085 l 207 1085 l 294 1321 l 486 1321 m 774 1321 l 614 1085 l 494 1085 l 582 1321 l 774 1321 z "},"ő":{"ha":754,"x_min":71,"x_max":703,"o":"m 683 363 q 666 194 683 258 q 601 81 649 129 q 376 -8 518 -8 q 153 81 236 -8 q 88 194 106 129 q 71 363 71 258 q 88 530 71 465 q 153 643 106 594 q 376 732 236 732 q 601 643 518 732 q 666 530 649 594 q 683 363 683 465 m 503 363 q 461 538 503 496 q 376 569 429 569 q 293 538 325 569 q 251 363 251 496 q 293 186 251 228 q 376 154 325 154 q 461 186 429 154 q 503 363 503 228 m 415 1075 l 257 839 l 136 839 l 224 1075 l 415 1075 m 703 1075 l 543 839 l 424 839 l 511 1075 l 703 1075 z "},"Œ":{"ha":1342,"x_min":82,"x_max":1267,"o":"m 1267 0 l 619 0 l 619 61 q 442 -8 554 -8 q 179 96 283 -8 q 122 172 143 132 q 93 272 101 213 q 83 370 85 331 q 82 494 82 410 q 83 619 82 579 q 93 717 85 658 q 122 817 101 776 q 179 893 143 857 q 442 997 283 997 q 619 928 554 997 l 619 989 l 1265 989 l 1265 818 l 811 818 q 812 700 811 797 q 813 583 813 603 l 1199 583 l 1199 414 l 813 414 q 812 293 813 394 q 811 171 811 192 l 1267 171 l 1267 0 m 610 302 q 615 329 610 302 q 619 494 619 356 q 610 687 619 633 q 571 772 600 740 q 447 825 525 825 q 322 772 368 825 q 284 688 293 740 q 275 494 275 635 q 284 301 275 354 q 322 217 293 249 q 447 164 368 164 q 571 217 525 164 q 610 302 600 249 z "},"œ":{"ha":1199,"x_min":71,"x_max":1133,"o":"m 1133 306 l 681 306 q 723 189 681 233 q 839 144 765 144 q 931 160 896 144 q 1001 213 965 176 l 1113 106 q 992 19 1053 46 q 838 -8 931 -8 q 596 83 678 -8 q 376 -8 521 -8 q 153 81 236 -8 q 88 194 106 129 q 71 363 71 258 q 88 530 71 465 q 153 643 106 594 q 376 732 236 732 q 600 636 524 732 q 818 732 679 732 q 1049 635 965 732 q 1133 386 1133 539 l 1133 306 m 503 363 q 461 538 503 496 q 376 569 429 569 q 293 538 325 569 q 251 363 251 496 q 293 186 251 228 q 376 154 325 154 q 461 186 429 154 q 503 363 503 228 m 954 429 q 939 507 953 475 q 818 582 906 582 q 696 507 729 582 q 681 429 682 475 l 954 429 z "},"Ŕ":{"ha":908,"x_min":115,"x_max":864,"o":"m 864 0 l 640 0 l 447 394 l 308 394 l 308 0 l 115 0 l 115 989 l 503 989 q 737 901 650 989 q 824 686 824 814 q 772 521 824 588 q 643 426 721 454 l 864 0 m 592 592 q 611 610 592 592 q 631 686 631 628 q 592 781 631 744 q 490 817 553 817 l 308 817 l 308 556 l 490 556 q 592 592 553 556 m 657 1321 l 499 1085 l 378 1085 l 467 1321 l 657 1321 z "},"ŕ":{"ha":632,"x_min":101,"x_max":631,"o":"m 631 664 l 494 526 q 399 569 451 569 q 317 535 353 569 q 282 436 282 500 l 282 0 l 101 0 l 101 724 l 278 724 l 278 654 q 355 710 306 688 q 460 732 404 732 q 631 664 563 732 m 517 1075 l 358 839 l 238 839 l 326 1075 l 517 1075 z "},"Ŗ":{"ha":908,"x_min":115,"x_max":864,"o":"m 864 0 l 640 0 l 447 394 l 308 394 l 308 0 l 115 0 l 115 989 l 503 989 q 737 901 650 989 q 824 686 824 814 q 772 521 824 588 q 643 426 721 454 l 864 0 m 592 592 q 611 610 592 592 q 631 686 631 628 q 592 781 631 744 q 490 817 553 817 l 308 817 l 308 556 l 490 556 q 592 592 553 556 m 558 -83 l 497 -286 l 329 -286 l 425 -83 l 558 -83 z "},"ŗ":{"ha":632,"x_min":79,"x_max":631,"o":"m 631 664 l 494 526 q 399 569 451 569 q 317 535 353 569 q 282 436 282 500 l 282 0 l 101 0 l 101 724 l 278 724 l 278 654 q 355 710 306 688 q 460 732 404 732 q 631 664 563 732 m 308 -83 l 247 -286 l 79 -286 l 175 -83 l 308 -83 z "},"Ř":{"ha":908,"x_min":115,"x_max":864,"o":"m 864 0 l 640 0 l 447 394 l 308 394 l 308 0 l 115 0 l 115 989 l 503 989 q 737 901 650 989 q 824 686 824 814 q 772 521 824 588 q 643 426 721 454 l 864 0 m 592 592 q 611 610 592 592 q 631 686 631 628 q 592 781 631 744 q 490 817 553 817 l 308 817 l 308 556 l 490 556 q 592 592 553 556 m 710 1319 l 526 1085 l 382 1085 l 199 1319 l 339 1319 l 454 1194 l 569 1319 l 710 1319 z "},"ř":{"ha":632,"x_min":61,"x_max":631,"o":"m 631 664 l 494 526 q 399 569 451 569 q 317 535 353 569 q 282 436 282 500 l 282 0 l 101 0 l 101 724 l 278 724 l 278 654 q 355 710 306 688 q 460 732 404 732 q 631 664 563 732 m 572 1074 l 389 839 l 244 839 l 61 1074 l 201 1074 l 317 949 l 432 1074 l 572 1074 z "},"Ś":{"ha":821,"x_min":26,"x_max":754,"o":"m 754 292 q 651 72 754 151 q 388 -8 547 -8 q 183 22 269 -8 q 26 122 97 51 l 151 247 q 390 164 235 164 q 565 286 565 164 q 535 369 565 340 q 447 404 507 394 l 328 421 q 136 503 201 439 q 65 697 65 574 q 158 915 65 832 q 410 997 251 997 q 729 882 610 997 l 607 761 q 404 829 536 829 q 291 794 331 829 q 251 704 251 758 q 281 633 251 661 q 372 594 314 603 l 489 578 q 678 501 614 560 q 754 292 754 429 m 622 1321 l 464 1085 l 343 1085 l 432 1321 l 622 1321 z "},"ś":{"ha":696,"x_min":31,"x_max":646,"o":"m 646 228 q 560 52 646 113 q 339 -8 474 -8 q 166 13 239 -8 q 31 96 93 33 l 149 214 q 342 146 217 146 q 432 165 394 146 q 469 221 469 183 q 393 288 469 281 l 279 299 q 68 501 68 319 q 149 671 68 610 q 347 732 231 732 q 624 647 533 732 l 513 535 q 344 583 458 583 q 267 563 293 583 q 242 514 242 543 q 317 451 242 458 l 431 440 q 591 376 536 431 q 646 228 646 321 m 546 1075 l 388 839 l 267 839 l 356 1075 l 546 1075 z "},"Ŝ":{"ha":821,"x_min":26,"x_max":754,"o":"m 754 292 q 651 72 754 151 q 388 -8 547 -8 q 183 22 269 -8 q 26 122 97 51 l 151 247 q 390 164 235 164 q 565 286 565 164 q 535 369 565 340 q 447 404 507 394 l 328 421 q 136 503 201 439 q 65 697 65 574 q 158 915 65 832 q 410 997 251 997 q 729 882 610 997 l 607 761 q 404 829 536 829 q 291 794 331 829 q 251 704 251 758 q 281 633 251 661 q 372 594 314 603 l 489 578 q 678 501 614 560 q 754 292 754 429 m 667 1085 l 526 1085 l 411 1211 l 296 1085 l 156 1085 l 339 1319 l 483 1319 l 667 1085 z "},"ŝ":{"ha":696,"x_min":31,"x_max":646,"o":"m 646 228 q 560 52 646 113 q 339 -8 474 -8 q 166 13 239 -8 q 31 96 93 33 l 149 214 q 342 146 217 146 q 432 165 394 146 q 469 221 469 183 q 393 288 469 281 l 279 299 q 68 501 68 319 q 149 671 68 610 q 347 732 231 732 q 624 647 533 732 l 513 535 q 344 583 458 583 q 267 563 293 583 q 242 514 242 543 q 317 451 242 458 l 431 440 q 591 376 536 431 q 646 228 646 321 m 619 839 l 479 839 l 364 965 l 249 839 l 108 839 l 292 1074 l 436 1074 l 619 839 z "},"Ş":{"ha":821,"x_min":26,"x_max":754,"o":"m 754 292 q 651 72 754 151 q 388 -8 547 -8 q 183 22 269 -8 q 26 122 97 51 l 151 247 q 390 164 235 164 q 565 286 565 164 q 535 369 565 340 q 447 404 507 394 l 328 421 q 136 503 201 439 q 65 697 65 574 q 158 915 65 832 q 410 997 251 997 q 729 882 610 997 l 607 761 q 404 829 536 829 q 291 794 331 829 q 251 704 251 758 q 281 633 251 661 q 372 594 314 603 l 489 578 q 678 501 614 560 q 754 292 754 429 m 514 -83 l 453 -286 l 285 -286 l 381 -83 l 514 -83 z "},"ş":{"ha":696,"x_min":31,"x_max":646,"o":"m 646 228 q 560 52 646 113 q 339 -8 474 -8 q 166 13 239 -8 q 31 96 93 33 l 149 214 q 342 146 217 146 q 432 165 394 146 q 469 221 469 183 q 393 288 469 281 l 279 299 q 68 501 68 319 q 149 671 68 610 q 347 732 231 732 q 624 647 533 732 l 513 535 q 344 583 458 583 q 267 563 293 583 q 242 514 242 543 q 317 451 242 458 l 431 440 q 591 376 536 431 q 646 228 646 321 m 451 -83 l 390 -286 l 222 -286 l 318 -83 l 451 -83 z "},"Š":{"ha":821,"x_min":26,"x_max":754,"o":"m 754 292 q 651 72 754 151 q 388 -8 547 -8 q 183 22 269 -8 q 26 122 97 51 l 151 247 q 390 164 235 164 q 565 286 565 164 q 535 369 565 340 q 447 404 507 394 l 328 421 q 136 503 201 439 q 65 697 65 574 q 158 915 65 832 q 410 997 251 997 q 729 882 610 997 l 607 761 q 404 829 536 829 q 291 794 331 829 q 251 704 251 758 q 281 633 251 661 q 372 594 314 603 l 489 578 q 678 501 614 560 q 754 292 754 429 m 664 1319 l 481 1085 l 336 1085 l 153 1319 l 293 1319 l 408 1194 l 524 1319 l 664 1319 z "},"š":{"ha":696,"x_min":31,"x_max":646,"o":"m 646 228 q 560 52 646 113 q 339 -8 474 -8 q 166 13 239 -8 q 31 96 93 33 l 149 214 q 342 146 217 146 q 432 165 394 146 q 469 221 469 183 q 393 288 469 281 l 279 299 q 68 501 68 319 q 149 671 68 610 q 347 732 231 732 q 624 647 533 732 l 513 535 q 344 583 458 583 q 267 563 293 583 q 242 514 242 543 q 317 451 242 458 l 431 440 q 591 376 536 431 q 646 228 646 321 m 603 1074 l 419 839 l 275 839 l 92 1074 l 232 1074 l 347 949 l 463 1074 l 603 1074 z "},"Ţ":{"ha":793,"x_min":42,"x_max":751,"o":"m 751 817 l 493 817 l 493 0 l 300 0 l 300 817 l 42 817 l 42 989 l 751 989 l 751 817 m 500 -83 l 439 -286 l 271 -286 l 367 -83 l 500 -83 z "},"ţ":{"ha":489,"x_min":42,"x_max":426,"o":"m 426 0 l 328 0 q 172 61 225 0 q 118 207 118 122 l 118 565 l 42 565 l 42 703 l 118 703 l 118 917 l 299 917 l 299 703 l 426 703 l 426 565 l 299 565 l 299 218 q 361 153 299 153 l 426 153 l 426 0 m 349 -83 l 288 -286 l 119 -286 l 215 -83 l 349 -83 z "},"Ť":{"ha":793,"x_min":42,"x_max":751,"o":"m 751 817 l 493 817 l 493 0 l 300 0 l 300 817 l 42 817 l 42 989 l 751 989 l 751 817 m 640 1319 l 457 1085 l 313 1085 l 129 1319 l 269 1319 l 385 1194 l 500 1319 l 640 1319 z "},"ť":{"ha":489,"x_min":42,"x_max":594,"o":"m 594 894 l 406 751 l 406 1031 l 594 1031 l 594 894 m 426 0 l 328 0 q 172 61 225 0 q 118 207 118 122 l 118 565 l 42 565 l 42 703 l 118 703 l 118 917 l 299 917 l 299 703 l 426 703 l 426 565 l 299 565 l 299 218 q 361 153 299 153 l 426 153 l 426 0 z "},"Ū":{"ha":928,"x_min":100,"x_max":828,"o":"m 828 339 q 724 88 828 185 q 464 -8 619 -8 q 204 88 308 -8 q 100 339 100 185 l 100 989 l 293 989 l 293 346 q 339 213 293 261 q 464 164 385 164 q 590 213 543 164 q 636 346 636 261 l 636 989 l 828 989 l 828 339 m 683 1121 l 244 1121 l 244 1242 l 683 1242 l 683 1121 z "},"ū":{"ha":796,"x_min":93,"x_max":694,"o":"m 694 0 l 518 0 l 518 67 q 338 -8 447 -8 q 167 56 231 -8 q 93 261 93 129 l 93 724 l 274 724 l 274 286 q 309 186 274 218 q 393 154 344 154 q 478 186 443 154 q 514 286 514 218 l 514 724 l 694 724 l 694 0 m 617 875 l 178 875 l 178 996 l 617 996 l 617 875 z "},"Ŭ":{"ha":928,"x_min":100,"x_max":828,"o":"m 828 339 q 724 88 828 185 q 464 -8 619 -8 q 204 88 308 -8 q 100 339 100 185 l 100 989 l 293 989 l 293 346 q 339 213 293 261 q 464 164 385 164 q 590 213 543 164 q 636 346 636 261 l 636 989 l 828 989 l 828 339 m 692 1308 q 624 1151 686 1201 q 464 1100 561 1100 q 304 1151 367 1100 q 236 1308 242 1201 l 357 1308 q 464 1225 365 1225 q 571 1308 563 1225 l 692 1308 z "},"ŭ":{"ha":796,"x_min":93,"x_max":694,"o":"m 694 0 l 518 0 l 518 67 q 338 -8 447 -8 q 167 56 231 -8 q 93 261 93 129 l 93 724 l 274 724 l 274 286 q 309 186 274 218 q 393 154 344 154 q 478 186 443 154 q 514 286 514 218 l 514 724 l 694 724 l 694 0 m 621 1056 q 553 898 615 949 q 393 847 490 847 q 233 898 296 847 q 165 1056 171 949 l 286 1056 q 393 972 294 972 q 500 1056 492 972 l 621 1056 z "},"Ů":{"ha":928,"x_min":100,"x_max":828,"o":"m 828 339 q 724 88 828 185 q 464 -8 619 -8 q 204 88 308 -8 q 100 339 100 185 l 100 989 l 293 989 l 293 346 q 339 213 293 261 q 464 164 385 164 q 590 213 543 164 q 636 346 636 261 l 636 989 l 828 989 l 828 339 m 646 1239 q 592 1110 646 1164 q 464 1057 539 1057 q 335 1110 389 1057 q 282 1239 282 1164 q 335 1367 282 1314 q 464 1421 389 1421 q 592 1368 539 1421 q 646 1239 646 1315 m 521 1181 q 533 1193 521 1181 q 544 1239 544 1206 q 521 1296 544 1272 q 464 1319 497 1319 q 407 1296 431 1319 q 383 1239 383 1272 q 407 1181 383 1206 q 464 1157 431 1157 q 521 1181 497 1157 z "},"ů":{"ha":796,"x_min":93,"x_max":694,"o":"m 694 0 l 518 0 l 518 67 q 338 -8 447 -8 q 167 56 231 -8 q 93 261 93 129 l 93 724 l 274 724 l 274 286 q 309 186 274 218 q 393 154 344 154 q 478 186 443 154 q 514 286 514 218 l 514 724 l 694 724 l 694 0 m 579 993 q 526 865 579 918 q 397 811 472 811 q 269 865 322 811 q 215 993 215 918 q 269 1122 215 1068 q 397 1175 322 1175 q 526 1122 472 1175 q 579 993 579 1069 m 454 935 q 466 948 454 935 q 478 993 478 960 q 454 1050 478 1026 q 397 1074 431 1074 q 340 1050 364 1074 q 317 993 317 1026 q 340 935 317 960 q 397 911 364 911 q 454 935 431 911 z "},"Ű":{"ha":928,"x_min":100,"x_max":828,"o":"m 828 339 q 724 88 828 185 q 464 -8 619 -8 q 204 88 308 -8 q 100 339 100 185 l 100 989 l 293 989 l 293 346 q 339 213 293 261 q 464 164 385 164 q 590 213 543 164 q 636 346 636 261 l 636 989 l 828 989 l 828 339 m 503 1321 l 344 1085 l 224 1085 l 311 1321 l 503 1321 m 790 1321 l 631 1085 l 511 1085 l 599 1321 l 790 1321 z "},"ű":{"ha":796,"x_min":93,"x_max":724,"o":"m 694 0 l 518 0 l 518 67 q 338 -8 447 -8 q 167 56 231 -8 q 93 261 93 129 l 93 724 l 274 724 l 274 286 q 309 186 274 218 q 393 154 344 154 q 478 186 443 154 q 514 286 514 218 l 514 724 l 694 724 l 694 0 m 436 1075 l 278 839 l 157 839 l 244 1075 l 436 1075 m 724 1075 l 564 839 l 444 839 l 532 1075 l 724 1075 z "},"Ų":{"ha":928,"x_min":100,"x_max":828,"o":"m 828 339 q 724 88 828 185 q 464 -8 619 -8 q 204 88 308 -8 q 100 339 100 185 l 100 989 l 293 989 l 293 346 q 339 213 293 261 q 464 164 385 164 q 590 213 543 164 q 636 346 636 261 l 636 989 l 828 989 l 828 339 m 694 -83 l 633 -286 l 465 -286 l 561 -83 l 694 -83 z "},"ų":{"ha":796,"x_min":93,"x_max":694,"o":"m 694 0 l 518 0 l 518 67 q 338 -8 447 -8 q 167 56 231 -8 q 93 261 93 129 l 93 724 l 274 724 l 274 286 q 309 186 274 218 q 393 154 344 154 q 478 186 443 154 q 514 286 514 218 l 514 724 l 694 724 l 694 0 m 651 -83 l 590 -286 l 422 -286 l 518 -83 l 651 -83 z "},"Ÿ":{"ha":794,"x_min":4,"x_max":790,"o":"m 790 989 l 493 406 l 493 0 l 301 0 l 301 406 l 4 989 l 214 989 l 399 590 l 581 989 l 790 989 m 319 1088 l 165 1088 l 165 1261 l 319 1261 l 319 1088 m 626 1088 l 472 1088 l 472 1261 l 626 1261 l 626 1088 z "},"Ź":{"ha":761,"x_min":56,"x_max":706,"o":"m 706 0 l 56 0 l 56 156 l 478 817 l 74 817 l 74 989 l 706 989 l 706 836 l 282 172 l 706 172 l 706 0 m 594 1321 l 436 1085 l 315 1085 l 404 1321 l 594 1321 z "},"ź":{"ha":664,"x_min":51,"x_max":603,"o":"m 603 0 l 51 0 l 51 138 l 372 561 l 69 561 l 69 724 l 603 724 l 603 586 l 278 163 l 603 163 l 603 0 m 529 1075 l 371 839 l 250 839 l 339 1075 l 529 1075 z "},"Ż":{"ha":761,"x_min":56,"x_max":706,"o":"m 706 0 l 56 0 l 56 156 l 478 817 l 74 817 l 74 989 l 706 989 l 706 836 l 282 172 l 706 172 l 706 0 m 474 1090 l 288 1090 l 288 1238 l 474 1238 l 474 1090 z "},"ż":{"ha":664,"x_min":51,"x_max":603,"o":"m 603 0 l 51 0 l 51 138 l 372 561 l 69 561 l 69 724 l 603 724 l 603 586 l 278 163 l 603 163 l 603 0 m 425 844 l 239 844 l 239 992 l 425 992 l 425 844 z "},"Ž":{"ha":761,"x_min":56,"x_max":706,"o":"m 706 0 l 56 0 l 56 156 l 478 817 l 74 817 l 74 989 l 706 989 l 706 836 l 282 172 l 706 172 l 706 0 m 640 1319 l 457 1085 l 313 1085 l 129 1319 l 269 1319 l 385 1194 l 500 1319 l 640 1319 z "},"ž":{"ha":664,"x_min":51,"x_max":603,"o":"m 603 0 l 51 0 l 51 138 l 372 561 l 69 561 l 69 724 l 603 724 l 603 586 l 278 163 l 603 163 l 603 0 m 592 1074 l 408 839 l 264 839 l 81 1074 l 221 1074 l 336 949 l 451 1074 l 592 1074 z "},"ƒ":{"ha":593,"x_min":15,"x_max":551,"o":"m 551 847 l 456 847 q 381 782 392 847 l 340 551 l 474 551 l 474 413 l 317 413 l 196 -265 l 15 -265 l 136 413 l 43 413 l 43 551 l 160 551 l 203 793 q 282 940 218 879 q 449 1000 346 1001 l 551 999 l 551 847 z "},"Ș":{"ha":821,"x_min":26,"x_max":754,"o":"m 754 292 q 651 72 754 151 q 388 -8 547 -8 q 183 22 269 -8 q 26 122 97 51 l 151 247 q 390 164 235 164 q 565 286 565 164 q 535 369 565 340 q 447 404 507 394 l 328 421 q 136 503 201 439 q 65 697 65 574 q 158 915 65 832 q 410 997 251 997 q 729 882 610 997 l 607 761 q 404 829 536 829 q 291 794 331 829 q 251 704 251 758 q 281 633 251 661 q 372 594 314 603 l 489 578 q 678 501 614 560 q 754 292 754 429 m 514 -83 l 453 -286 l 285 -286 l 381 -83 l 514 -83 z "},"ș":{"ha":696,"x_min":31,"x_max":646,"o":"m 646 228 q 560 52 646 113 q 339 -8 474 -8 q 166 13 239 -8 q 31 96 93 33 l 149 214 q 342 146 217 146 q 432 165 394 146 q 469 221 469 183 q 393 288 469 281 l 279 299 q 68 501 68 319 q 149 671 68 610 q 347 732 231 732 q 624 647 533 732 l 513 535 q 344 583 458 583 q 267 563 293 583 q 242 514 242 543 q 317 451 242 458 l 431 440 q 591 376 536 431 q 646 228 646 321 m 451 -83 l 390 -286 l 222 -286 l 318 -83 l 451 -83 z "},"ȷ":{"ha":382,"x_min":-32,"x_max":282,"o":"m 282 -64 q 228 -210 282 -149 q 71 -271 175 -271 l -32 -271 l -32 -118 l 38 -118 q 101 -53 101 -118 l 101 724 l 282 724 l 282 -64 z "},"ˆ":{"ha":694,"x_min":92,"x_max":603,"o":"m 603 839 l 463 839 l 347 965 l 232 839 l 92 839 l 275 1074 l 419 1074 l 603 839 z "},"ˇ":{"ha":694,"x_min":92,"x_max":603,"o":"m 603 1074 l 419 839 l 275 839 l 92 1074 l 232 1074 l 347 949 l 463 1074 l 603 1074 z "},"˘":{"ha":694,"x_min":119,"x_max":575,"o":"m 575 1056 q 507 898 569 949 q 347 847 444 847 q 188 898 250 847 q 119 1056 125 949 l 240 1056 q 347 972 249 972 q 454 1056 446 972 l 575 1056 z "},"˙":{"ha":694,"x_min":254,"x_max":440,"o":"m 440 844 l 254 844 l 254 992 l 440 992 l 440 844 z "},"˚":{"ha":694,"x_min":165,"x_max":529,"o":"m 529 993 q 476 865 529 918 q 347 811 422 811 q 219 865 272 811 q 165 993 165 918 q 219 1122 165 1068 q 347 1175 272 1175 q 476 1122 422 1175 q 529 993 529 1069 m 404 935 q 416 948 404 935 q 428 993 428 960 q 404 1050 428 1026 q 347 1074 381 1074 q 290 1050 314 1074 q 267 993 267 1026 q 290 935 267 960 q 347 911 314 911 q 404 935 381 911 z "},"˛":{"ha":694,"x_min":336,"x_max":565,"o":"m 565 -83 l 504 -286 l 336 -286 l 432 -83 l 565 -83 z "},"˜":{"ha":694,"x_min":96,"x_max":597,"o":"m 597 936 q 440 854 515 854 q 333 886 389 854 q 256 911 290 911 q 174 871 214 911 l 96 950 q 176 1014 142 996 q 251 1032 211 1032 q 358 1000 306 1032 q 435 975 400 975 q 517 1015 476 975 l 597 936 z "},"˝":{"ha":694,"x_min":79,"x_max":646,"o":"m 358 1075 l 200 839 l 79 839 l 167 1075 l 358 1075 m 646 1075 l 486 839 l 367 839 l 454 1075 l 646 1075 z "},"΄":{"ha":500,"x_min":175,"x_max":336,"o":"m 336 864 l 175 796 l 175 1015 l 336 1015 l 336 864 z "},"΅":{"ha":668,"x_min":38,"x_max":631,"o":"m 631 819 l 476 819 l 476 993 l 631 993 l 631 819 m 418 888 l 258 819 l 258 1039 l 418 1039 l 418 888 m 192 819 l 38 819 l 38 993 l 192 993 l 192 819 z "},"Ά":{"ha":886,"x_min":-36,"x_max":879,"o":"m 879 0 l 678 0 l 619 175 l 268 175 l 208 0 l 7 0 l 367 989 l 518 989 l 879 0 m 568 338 l 447 697 l 322 338 l 568 338 m 125 838 l -36 769 l -36 989 l 125 989 l 125 838 z "},"·":{"ha":396,"x_min":94,"x_max":301,"o":"m 301 294 l 94 294 l 94 500 l 301 500 l 301 294 z "},"Έ":{"ha":840,"x_min":-147,"x_max":767,"o":"m 767 0 l 115 0 l 115 989 l 767 989 l 767 817 l 308 817 l 308 585 l 699 585 l 699 413 l 308 413 l 308 172 l 767 172 l 767 0 m 14 838 l -147 769 l -147 989 l 14 989 l 14 838 z "},"Ή":{"ha":951,"x_min":-147,"x_max":836,"o":"m 836 0 l 643 0 l 643 414 l 308 414 l 308 0 l 115 0 l 115 989 l 308 989 l 308 585 l 643 585 l 643 989 l 836 989 l 836 0 m 14 838 l -147 769 l -147 989 l 14 989 l 14 838 z "},"Ί":{"ha":424,"x_min":-147,"x_max":308,"o":"m 308 0 l 115 0 l 115 989 l 308 989 l 308 0 m 14 838 l -147 769 l -147 989 l 14 989 l 14 838 z "},"Ό":{"ha":894,"x_min":-119,"x_max":813,"o":"m 811 618 q 812 599 811 618 q 813 494 813 579 q 811 371 813 410 q 801 274 810 332 q 772 176 793 217 q 714 100 750 136 q 447 -8 606 -8 q 179 100 288 -8 q 122 176 143 136 q 93 275 101 215 q 83 371 85 335 q 82 494 82 407 q 83 618 82 582 q 93 714 85 654 q 122 813 101 774 q 179 889 143 853 q 447 997 288 997 q 714 889 606 997 q 772 813 750 853 q 801 715 793 772 q 811 618 810 657 m 610 302 q 615 329 610 302 q 619 494 619 356 q 610 687 619 633 q 571 772 600 740 q 447 825 525 825 q 322 772 368 825 q 284 688 293 740 q 275 494 275 635 q 284 301 275 354 q 322 217 293 249 q 447 164 368 164 q 571 217 525 164 q 610 302 600 249 m 42 838 l -119 769 l -119 989 l 42 989 l 42 838 z "},"Ύ":{"ha":794,"x_min":-203,"x_max":790,"o":"m 790 989 l 493 406 l 493 0 l 301 0 l 301 406 l 4 989 l 214 989 l 399 590 l 581 989 l 790 989 m -42 838 l -203 769 l -203 989 l -42 989 l -42 838 z "},"Ώ":{"ha":894,"x_min":-119,"x_max":813,"o":"m 813 0 l 508 0 l 508 151 q 583 213 557 174 q 619 485 619 267 q 609 681 619 624 q 571 771 599 739 q 447 825 524 825 q 322 771 369 825 q 285 682 294 739 q 275 485 275 625 q 311 213 275 267 q 386 151 338 174 l 386 0 l 82 0 l 82 171 l 164 171 q 114 247 132 206 q 82 494 82 325 q 83 618 82 582 q 93 714 85 654 q 122 813 101 774 q 179 889 143 853 q 447 997 288 997 q 714 889 606 997 q 772 813 750 853 q 801 715 793 772 q 811 618 810 657 q 813 494 813 579 q 781 247 813 325 q 731 171 763 206 l 813 171 l 813 0 m 42 838 l -119 769 l -119 989 l 42 989 l 42 838 z "},"ΐ":{"ha":451,"x_min":-101,"x_max":492,"o":"m 408 0 l 306 0 q 148 61 201 0 q 94 207 94 122 l 94 724 l 275 724 l 275 218 q 339 153 275 153 l 408 153 l 408 0 m 492 819 l 338 819 l 338 993 l 492 993 l 492 819 m 279 888 l 119 819 l 119 1039 l 279 1039 l 279 888 m 53 819 l -101 819 l -101 993 l 53 993 l 53 819 z "},"Α":{"ha":886,"x_min":7,"x_max":879,"o":"m 879 0 l 678 0 l 619 175 l 268 175 l 208 0 l 7 0 l 367 989 l 518 989 l 879 0 m 568 338 l 447 697 l 322 338 l 568 338 z "},"Β":{"ha":914,"x_min":115,"x_max":832,"o":"m 832 285 q 749 75 832 150 q 529 0 665 0 l 115 0 l 115 989 l 513 989 q 737 914 656 989 q 818 711 818 839 q 780 583 818 636 q 696 507 742 529 q 832 285 832 443 m 592 620 q 608 636 592 620 q 625 703 625 651 q 592 785 625 754 q 497 817 558 817 l 308 817 l 308 589 l 497 589 q 592 620 558 589 m 606 207 q 622 224 606 207 q 639 294 639 242 q 606 381 639 347 q 510 415 572 415 l 308 415 l 308 172 l 510 172 q 606 207 572 172 z "},"Γ":{"ha":789,"x_min":115,"x_max":749,"o":"m 749 817 l 308 817 l 308 0 l 115 0 l 115 989 l 749 989 l 749 817 z "},"Δ":{"ha":881,"x_min":4,"x_max":876,"o":"m 876 0 l 4 0 l 365 989 l 515 989 l 876 0 m 625 163 l 444 697 l 258 163 l 625 163 z "},"Ε":{"ha":840,"x_min":115,"x_max":767,"o":"m 767 0 l 115 0 l 115 989 l 767 989 l 767 817 l 308 817 l 308 585 l 699 585 l 699 413 l 308 413 l 308 172 l 767 172 l 767 0 z "},"Ζ":{"ha":761,"x_min":56,"x_max":706,"o":"m 706 0 l 56 0 l 56 156 l 478 817 l 74 817 l 74 989 l 706 989 l 706 836 l 282 172 l 706 172 l 706 0 z "},"Η":{"ha":951,"x_min":115,"x_max":836,"o":"m 836 0 l 643 0 l 643 414 l 308 414 l 308 0 l 115 0 l 115 989 l 308 989 l 308 585 l 643 585 l 643 989 l 836 989 l 836 0 z "},"Θ":{"ha":894,"x_min":82,"x_max":813,"o":"m 811 618 q 812 600 811 618 q 813 494 813 582 q 811 371 813 407 q 801 275 810 335 q 772 176 793 215 q 715 100 751 136 q 447 -8 607 -8 q 179 100 288 -8 q 122 176 143 136 q 93 275 101 215 q 83 371 85 335 q 82 494 82 407 q 83 618 82 582 q 93 714 85 654 q 122 813 101 774 q 179 889 143 853 q 447 997 288 997 q 715 889 607 997 q 772 813 751 853 q 801 714 793 774 q 811 618 810 654 m 618 582 q 605 706 615 668 q 571 772 594 744 q 447 825 525 825 q 322 772 368 825 q 288 706 299 744 q 275 582 278 668 l 618 582 m 618 417 l 275 417 q 287 287 276 326 q 322 218 297 247 q 447 164 371 164 q 571 218 522 164 q 606 287 596 247 q 618 417 617 326 z "},"Ι":{"ha":424,"x_min":115,"x_max":308,"o":"m 308 0 l 115 0 l 115 989 l 308 989 l 308 0 z "},"Κ":{"ha":924,"x_min":115,"x_max":915,"o":"m 915 0 l 690 0 l 436 450 l 308 297 l 308 0 l 115 0 l 115 989 l 308 989 l 308 558 l 657 989 l 892 989 l 564 596 l 915 0 z "},"Λ":{"ha":849,"x_min":11,"x_max":838,"o":"m 838 0 l 636 0 l 429 692 l 213 0 l 11 0 l 344 989 l 503 989 l 838 0 z "},"Μ":{"ha":1126,"x_min":115,"x_max":1011,"o":"m 1011 0 l 818 0 l 818 576 l 629 201 l 499 201 l 308 576 l 308 0 l 115 0 l 115 989 l 306 989 l 564 454 l 821 989 l 1011 989 l 1011 0 z "},"Ν":{"ha":988,"x_min":115,"x_max":872,"o":"m 872 0 l 700 0 l 308 607 l 308 0 l 115 0 l 115 989 l 288 989 l 679 383 l 679 989 l 872 989 l 872 0 z "},"Ξ":{"ha":829,"x_min":74,"x_max":756,"o":"m 756 0 l 74 0 l 74 172 l 318 172 l 318 413 l 140 413 l 140 585 l 318 585 l 318 817 l 74 817 l 74 989 l 756 989 l 756 817 l 511 817 l 511 585 l 689 585 l 689 413 l 511 413 l 511 172 l 756 172 l 756 0 z "},"Ο":{"ha":894,"x_min":82,"x_max":813,"o":"m 811 618 q 812 599 811 618 q 813 494 813 579 q 811 371 813 410 q 801 274 810 332 q 772 176 793 217 q 714 100 750 136 q 447 -8 606 -8 q 179 100 288 -8 q 122 176 143 136 q 93 275 101 215 q 83 371 85 335 q 82 494 82 407 q 83 618 82 582 q 93 714 85 654 q 122 813 101 774 q 179 889 143 853 q 447 997 288 997 q 714 889 606 997 q 772 813 750 853 q 801 715 793 772 q 811 618 810 657 m 610 302 q 615 329 610 302 q 619 494 619 356 q 610 687 619 633 q 571 772 600 740 q 447 825 525 825 q 322 772 368 825 q 284 688 293 740 q 275 494 275 635 q 284 301 275 354 q 322 217 293 249 q 447 164 368 164 q 571 217 525 164 q 610 302 600 249 z "},"Π":{"ha":947,"x_min":115,"x_max":832,"o":"m 832 0 l 639 0 l 639 817 l 308 817 l 308 0 l 115 0 l 115 989 l 832 989 l 832 0 z "},"Ρ":{"ha":872,"x_min":115,"x_max":825,"o":"m 736 900 q 781 856 736 900 q 825 681 825 811 q 736 461 825 550 q 499 372 647 372 l 308 372 l 308 0 l 115 0 l 115 989 l 499 989 q 736 900 647 989 m 593 583 q 613 601 593 583 q 632 681 632 619 q 593 779 632 742 q 489 817 554 817 l 308 817 l 308 546 l 489 546 q 593 583 554 546 z "},"Σ":{"ha":760,"x_min":56,"x_max":710,"o":"m 710 817 l 311 817 l 493 522 l 282 172 l 706 172 l 706 0 l 56 0 l 56 154 l 279 519 l 78 842 l 78 989 l 710 989 l 710 817 z "},"Τ":{"ha":793,"x_min":42,"x_max":751,"o":"m 751 817 l 493 817 l 493 0 l 300 0 l 300 817 l 42 817 l 42 989 l 751 989 l 751 817 z "},"Υ":{"ha":794,"x_min":4,"x_max":790,"o":"m 790 989 l 493 406 l 493 0 l 301 0 l 301 406 l 4 989 l 214 989 l 399 590 l 581 989 l 790 989 z "},"Φ":{"ha":1079,"x_min":67,"x_max":1013,"o":"m 914 810 q 1013 499 1013 711 q 914 188 1013 286 q 636 79 806 79 l 636 0 l 443 0 l 443 79 q 165 188 274 79 q 67 499 67 286 q 165 810 67 711 q 443 918 274 918 l 443 989 l 636 989 l 636 918 q 914 810 806 918 m 819 499 q 774 689 819 635 q 636 746 725 746 l 636 251 q 774 307 726 251 q 819 499 819 361 m 443 251 l 443 746 q 306 689 354 746 q 260 499 260 635 q 306 307 260 361 q 443 251 353 251 z "},"Χ":{"ha":838,"x_min":7,"x_max":831,"o":"m 831 0 l 610 0 l 418 344 l 228 0 l 7 0 l 314 507 l 26 989 l 246 989 l 418 669 l 592 989 l 810 989 l 522 507 l 831 0 z "},"Ψ":{"ha":1035,"x_min":69,"x_max":965,"o":"m 965 504 q 875 276 965 367 q 614 168 768 169 l 614 0 l 421 0 l 421 168 q 160 276 267 169 q 69 504 69 367 l 69 989 l 261 989 l 261 504 q 303 393 261 438 q 421 340 351 343 l 421 989 l 614 989 l 614 340 q 732 393 683 343 q 774 504 774 438 l 774 989 l 965 989 l 965 504 z "},"Ω":{"ha":894,"x_min":82,"x_max":813,"o":"m 813 0 l 508 0 l 508 151 q 583 213 557 174 q 619 485 619 267 q 609 681 619 624 q 571 771 599 739 q 447 825 524 825 q 322 771 369 825 q 285 682 294 739 q 275 485 275 625 q 311 213 275 267 q 386 151 338 174 l 386 0 l 82 0 l 82 171 l 164 171 q 114 247 132 206 q 82 494 82 325 q 83 618 82 582 q 93 714 85 654 q 122 813 101 774 q 179 889 143 853 q 447 997 288 997 q 714 889 606 997 q 772 813 750 853 q 801 715 793 772 q 811 618 810 657 q 813 494 813 579 q 781 247 813 325 q 731 171 763 206 l 813 171 l 813 0 z "},"Ϊ":{"ha":424,"x_min":-22,"x_max":439,"o":"m 308 0 l 115 0 l 115 989 l 308 989 l 308 0 m 439 1088 l 285 1088 l 285 1261 l 439 1261 l 439 1088 m 132 1088 l -22 1088 l -22 1261 l 132 1261 l 132 1088 z "},"Ϋ":{"ha":794,"x_min":4,"x_max":790,"o":"m 790 989 l 493 406 l 493 0 l 301 0 l 301 406 l 4 989 l 214 989 l 399 590 l 581 989 l 790 989 m 626 1088 l 472 1088 l 472 1261 l 626 1261 l 626 1088 m 319 1088 l 165 1088 l 165 1261 l 319 1261 l 319 1088 z "},"ά":{"ha":779,"x_min":71,"x_max":678,"o":"m 678 0 l 501 0 l 501 68 q 322 -8 433 -8 q 144 57 210 -8 q 94 148 111 90 q 74 248 76 206 q 71 363 71 290 q 74 477 71 435 q 94 576 76 519 q 144 667 111 633 q 321 732 210 732 q 500 657 433 732 l 500 724 l 678 724 l 678 0 m 493 280 q 495 296 493 280 q 497 363 497 313 q 493 445 497 413 q 477 508 489 478 q 440 554 465 539 q 375 569 414 569 q 276 517 300 569 q 251 363 251 464 q 256 280 251 314 q 272 215 260 246 q 310 169 285 185 q 375 154 336 154 q 440 169 414 154 q 477 216 465 185 q 493 280 489 247 m 475 864 l 314 796 l 314 1015 l 475 1015 l 475 864 z "},"έ":{"ha":708,"x_min":63,"x_max":681,"o":"m 681 118 q 534 19 604 46 q 358 -7 464 -7 q 149 47 236 -7 q 63 210 63 101 q 169 375 63 325 q 108 430 135 392 q 82 524 82 468 q 165 675 82 618 q 367 732 249 732 q 511 711 451 732 q 644 632 571 690 l 543 510 q 458 565 494 549 q 375 582 422 582 q 293 560 325 582 q 261 504 261 539 q 286 456 261 475 q 351 436 311 436 l 488 436 l 488 299 l 350 299 q 271 277 296 299 q 246 228 246 256 q 283 169 246 192 q 374 146 319 146 q 564 226 472 146 l 681 118 m 461 864 l 300 796 l 300 1015 l 461 1015 l 461 864 z "},"ή":{"ha":796,"x_min":101,"x_max":703,"o":"m 703 0 l 522 0 l 522 438 q 487 538 522 506 q 403 569 451 569 q 317 538 353 569 q 282 438 282 506 l 282 0 l 101 0 l 101 724 l 278 724 l 278 657 q 458 732 349 732 q 629 668 565 732 q 703 463 703 594 l 703 0 m 489 864 l 328 796 l 328 1015 l 489 1015 l 489 864 z "},"ί":{"ha":451,"x_min":94,"x_max":408,"o":"m 408 0 l 306 0 q 148 61 201 0 q 94 207 94 122 l 94 724 l 275 724 l 275 218 q 339 153 275 153 l 408 153 l 408 0 m 269 864 l 108 796 l 108 1015 l 269 1015 l 269 864 z "},"ΰ":{"ha":764,"x_min":81,"x_max":683,"o":"m 683 367 q 667 198 683 264 q 601 81 651 132 q 382 -8 515 -8 q 163 81 249 -8 q 97 198 113 132 q 81 367 81 264 l 81 724 l 263 724 l 263 332 q 303 188 263 224 q 382 154 338 154 q 461 188 426 154 q 503 332 503 225 l 503 724 l 683 724 l 683 367 m 675 819 l 521 819 l 521 993 l 675 993 l 675 819 m 463 888 l 303 819 l 303 1039 l 463 1039 l 463 888 m 236 819 l 82 819 l 82 993 l 236 993 l 236 819 z "},"α":{"ha":779,"x_min":71,"x_max":678,"o":"m 678 0 l 501 0 l 501 68 q 322 -8 433 -8 q 144 57 210 -8 q 94 148 111 90 q 74 248 76 206 q 71 363 71 290 q 74 477 71 435 q 94 576 76 519 q 144 667 111 633 q 321 732 210 732 q 500 657 433 732 l 500 724 l 678 724 l 678 0 m 493 280 q 495 296 493 280 q 497 363 497 313 q 493 445 497 413 q 477 508 489 478 q 440 554 465 539 q 375 569 414 569 q 276 517 300 569 q 251 363 251 464 q 256 280 251 314 q 272 215 260 246 q 310 169 285 185 q 375 154 336 154 q 440 169 414 154 q 477 216 465 185 q 493 280 489 247 z "},"β":{"ha":804,"x_min":101,"x_max":738,"o":"m 738 303 q 657 68 738 150 q 463 -8 581 -8 q 276 68 347 -8 l 276 0 l 101 0 l 101 722 q 187 922 101 850 q 408 993 272 993 q 622 927 540 993 q 704 743 704 861 q 664 600 704 653 q 592 543 632 560 q 679 488 647 524 q 738 303 738 421 m 558 317 q 497 440 558 413 q 397 458 457 458 l 326 458 l 326 601 l 411 601 q 532 724 532 601 q 503 806 532 774 q 413 840 471 840 q 283 703 283 840 l 283 293 q 319 192 283 231 q 413 153 356 153 q 508 182 474 153 q 558 317 558 225 z "},"γ":{"ha":686,"x_min":6,"x_max":681,"o":"m 681 724 l 432 21 l 432 -265 l 253 -265 l 253 21 l 6 724 l 197 724 l 344 251 l 489 724 l 681 724 z "},"δ":{"ha":746,"x_min":71,"x_max":675,"o":"m 675 368 q 600 88 675 178 q 369 -8 521 -8 q 147 85 225 -8 q 71 356 71 175 q 161 632 71 547 q 308 692 224 692 q 357 686 340 692 l 153 854 l 153 989 l 631 989 l 631 849 l 381 849 l 533 721 q 675 368 675 603 m 492 356 q 446 531 492 490 q 376 553 419 553 q 306 532 336 553 q 251 356 251 493 q 301 178 251 218 q 372 156 328 156 q 443 176 418 156 q 492 356 492 214 z "},"ε":{"ha":708,"x_min":63,"x_max":681,"o":"m 681 118 q 534 19 604 46 q 358 -7 464 -7 q 149 47 236 -7 q 63 210 63 101 q 169 375 63 325 q 108 430 135 392 q 82 524 82 468 q 165 675 82 618 q 367 732 249 732 q 511 711 451 732 q 644 632 571 690 l 543 510 q 458 565 494 549 q 375 582 422 582 q 293 560 325 582 q 261 504 261 539 q 286 456 261 475 q 351 436 311 436 l 488 436 l 488 299 l 350 299 q 271 277 296 299 q 246 228 246 256 q 283 169 246 192 q 374 146 319 146 q 564 226 472 146 l 681 118 z "},"ζ":{"ha":694,"x_min":60,"x_max":656,"o":"m 656 -26 q 651 -69 656 -47 q 632 -120 647 -90 q 592 -173 617 -150 q 519 -212 567 -196 q 407 -229 471 -229 l 407 -89 q 486 -32 486 -89 q 483 -17 486 -24 q 474 -6 481 -10 q 461 0 467 -3 q 444 3 456 3 q 428 4 433 4 q 412 4 424 4 q 399 4 400 4 l 357 4 q 60 224 60 4 q 325 561 60 421 l 106 561 l 106 724 l 639 724 l 639 561 l 613 561 q 498 505 554 536 q 383 432 442 474 q 288 341 324 390 q 251 243 251 292 q 284 179 251 197 q 388 161 317 161 l 428 161 q 656 -26 656 161 z "},"η":{"ha":796,"x_min":101,"x_max":703,"o":"m 703 0 l 522 0 l 522 438 q 487 538 522 506 q 403 569 451 569 q 317 538 353 569 q 282 438 282 506 l 282 0 l 101 0 l 101 724 l 278 724 l 278 657 q 458 732 349 732 q 629 668 565 732 q 703 463 703 594 l 703 0 z "},"θ":{"ha":800,"x_min":83,"x_max":717,"o":"m 717 493 q 716 378 717 408 q 708 280 715 349 q 679 165 700 211 q 624 82 658 119 q 401 -10 540 -10 q 179 82 263 -10 q 123 167 144 121 q 94 278 101 214 q 85 380 86 343 q 83 494 83 417 q 85 608 83 572 q 94 709 86 644 q 123 820 101 774 q 179 906 144 867 q 401 997 263 997 q 624 906 540 997 q 671 832 651 875 q 699 759 690 789 q 713 666 708 729 q 717 585 717 603 q 717 493 717 567 m 533 594 q 490 794 529 750 q 401 835 454 835 q 313 794 349 835 q 267 594 271 749 l 533 594 m 535 439 l 267 439 q 313 194 267 244 q 401 154 350 154 q 490 194 454 154 q 535 439 535 244 z "},"ι":{"ha":451,"x_min":94,"x_max":408,"o":"m 408 0 l 306 0 q 148 61 201 0 q 94 207 94 122 l 94 724 l 275 724 l 275 218 q 339 153 275 153 l 408 153 l 408 0 z "},"κ":{"ha":778,"x_min":100,"x_max":761,"o":"m 761 0 l 536 0 l 358 301 l 282 215 l 282 0 l 100 0 l 100 724 l 282 724 l 282 428 l 522 724 l 740 724 l 482 432 l 761 0 z "},"λ":{"ha":714,"x_min":11,"x_max":725,"o":"m 725 0 l 650 0 q 516 45 564 0 q 442 176 468 90 l 358 444 l 201 0 l 11 0 l 272 675 l 243 778 q 164 836 226 836 l 119 836 l 119 996 l 186 996 q 343 939 288 996 q 396 847 375 907 l 607 211 q 674 153 625 153 l 725 153 l 725 0 z "},"μ":{"ha":800,"x_min":97,"x_max":699,"o":"m 699 0 l 522 0 l 522 67 q 342 -8 451 -8 q 278 11 304 -8 l 278 -265 l 97 -265 l 97 724 l 278 724 l 278 286 q 313 186 278 218 q 397 154 349 154 q 483 186 447 154 q 518 286 518 218 l 518 724 l 699 724 l 699 0 z "},"ν":{"ha":686,"x_min":6,"x_max":681,"o":"m 681 724 l 414 0 l 272 0 l 6 724 l 197 724 l 344 278 l 489 724 l 681 724 z "},"ξ":{"ha":707,"x_min":60,"x_max":690,"o":"m 690 872 l 590 756 q 404 849 506 849 q 308 813 343 849 q 272 717 272 778 q 307 628 272 660 q 401 597 342 597 l 568 597 l 568 446 l 415 446 q 372 441 394 446 q 318 422 349 436 q 267 375 288 408 q 247 294 247 342 q 287 194 247 228 q 390 161 326 161 l 451 161 q 667 -26 667 161 q 663 -69 667 -47 q 643 -120 658 -90 q 603 -173 628 -150 q 530 -212 578 -196 q 418 -229 482 -229 l 418 -89 q 497 -32 497 -89 q 480 -3 497 -10 q 424 4 463 4 l 363 4 q 140 74 221 4 q 60 272 60 143 q 106 433 60 367 q 229 526 153 499 q 133 599 169 546 q 97 721 97 651 q 183 924 97 849 q 399 1000 268 1000 q 690 872 575 1000 z "},"ο":{"ha":754,"x_min":71,"x_max":683,"o":"m 683 363 q 666 194 683 258 q 601 81 649 129 q 376 -8 518 -8 q 153 81 236 -8 q 88 194 106 129 q 71 363 71 258 q 88 530 71 465 q 153 643 106 594 q 376 732 236 732 q 601 643 518 732 q 666 530 649 594 q 683 363 683 465 m 503 363 q 461 538 503 496 q 376 569 429 569 q 293 538 325 569 q 251 363 251 496 q 293 186 251 228 q 376 154 325 154 q 461 186 429 154 q 503 363 503 228 z "},"π":{"ha":822,"x_min":106,"x_max":715,"o":"m 715 0 l 536 0 l 536 554 l 286 554 l 286 0 l 106 0 l 106 724 l 715 724 l 715 0 z "},"ρ":{"ha":744,"x_min":71,"x_max":674,"o":"m 674 360 q 590 76 674 167 q 393 -8 514 -8 q 251 56 324 -8 l 251 -265 l 71 -265 l 71 361 q 88 530 71 472 q 139 628 104 588 q 367 732 225 732 q 593 643 510 732 q 658 529 642 592 q 674 360 674 467 m 493 361 q 467 521 493 476 q 369 568 436 568 q 279 522 308 568 q 251 363 251 479 q 272 213 251 251 q 371 157 304 157 q 468 211 443 157 q 493 361 493 265 z "},"ς":{"ha":667,"x_min":65,"x_max":628,"o":"m 628 635 l 504 513 q 390 569 451 569 q 286 522 325 569 q 247 363 247 475 q 408 169 247 186 q 611 -26 611 147 q 607 -69 611 -47 q 588 -120 603 -90 q 547 -173 572 -150 q 474 -212 522 -196 q 363 -229 426 -229 l 363 -89 q 442 -32 442 -89 q 353 17 442 8 q 144 111 224 26 q 65 363 65 196 q 95 543 65 467 q 175 658 125 619 q 278 715 225 697 q 390 732 331 732 q 628 635 535 732 z "},"σ":{"ha":788,"x_min":71,"x_max":726,"o":"m 726 567 l 610 567 q 663 488 642 546 q 683 363 683 429 q 665 192 683 253 q 603 83 647 132 q 375 -8 517 -8 q 149 85 233 -8 q 88 192 106 132 q 71 363 71 253 q 88 531 71 472 q 149 639 104 590 q 374 724 228 724 l 726 724 l 726 567 m 503 361 q 465 539 503 494 q 375 572 439 572 q 288 535 318 572 q 251 363 251 492 q 286 194 251 236 q 375 156 318 156 q 465 193 435 156 q 503 361 503 238 z "},"τ":{"ha":563,"x_min":31,"x_max":532,"o":"m 532 561 l 372 561 l 372 0 l 190 0 l 190 561 l 31 561 l 31 724 l 532 724 l 532 561 z "},"υ":{"ha":764,"x_min":81,"x_max":683,"o":"m 683 367 q 667 198 683 264 q 601 81 651 132 q 382 -8 515 -8 q 163 81 249 -8 q 97 198 113 132 q 81 367 81 264 l 81 724 l 263 724 l 263 332 q 303 188 263 224 q 382 154 338 154 q 461 188 426 154 q 503 332 503 225 l 503 724 l 683 724 l 683 367 z "},"φ":{"ha":971,"x_min":71,"x_max":900,"o":"m 900 365 q 578 -8 900 -3 l 578 -265 l 397 -265 l 397 -8 q 151 101 231 -1 q 71 363 71 203 q 290 726 71 618 l 354 593 q 253 357 253 529 q 397 150 253 160 l 397 724 l 557 724 q 819 638 739 724 q 900 365 900 551 m 718 368 q 690 519 718 469 q 578 568 663 568 l 578 150 q 691 206 664 153 q 718 368 718 260 z "},"χ":{"ha":732,"x_min":17,"x_max":715,"o":"m 715 0 l 499 0 l 365 217 l 233 0 l 17 0 l 267 369 l 26 724 l 243 724 l 365 517 l 489 724 l 706 724 l 465 369 l 715 0 z "},"ψ":{"ha":972,"x_min":81,"x_max":892,"o":"m 892 363 q 874 195 892 261 q 814 82 857 129 q 578 -4 738 -4 l 578 -265 l 396 -265 l 396 -4 q 160 82 236 -4 q 81 363 81 168 l 81 724 l 263 724 l 263 329 q 396 154 263 154 l 396 724 l 578 724 l 578 154 q 710 329 710 154 l 710 724 l 892 724 l 892 363 z "},"ω":{"ha":1054,"x_min":71,"x_max":983,"o":"m 983 363 q 924 99 983 183 q 714 -8 847 -8 q 526 90 590 -8 q 339 -8 463 -8 q 131 99 207 -8 q 71 363 71 183 q 149 639 71 554 q 372 732 236 732 l 372 568 q 286 528 319 568 q 258 468 265 503 q 251 363 251 433 q 282 194 251 242 q 350 156 308 156 q 426 226 406 156 q 436 315 436 263 l 436 513 l 617 513 l 617 315 q 625 226 617 256 q 703 156 644 156 q 771 194 744 156 q 801 363 801 242 q 795 469 801 435 q 768 528 789 504 q 681 568 735 568 l 681 732 q 904 639 817 732 q 983 363 983 553 z "},"ϊ":{"ha":451,"x_min":-39,"x_max":422,"o":"m 408 0 l 306 0 q 148 61 201 0 q 94 207 94 122 l 94 724 l 275 724 l 275 218 q 339 153 275 153 l 408 153 l 408 0 m 422 842 l 268 842 l 268 1015 l 422 1015 l 422 842 m 115 842 l -39 842 l -39 1015 l 115 1015 l 115 842 z "},"ϋ":{"ha":764,"x_min":81,"x_max":683,"o":"m 683 367 q 667 198 683 264 q 601 81 651 132 q 382 -8 515 -8 q 163 81 249 -8 q 97 198 113 132 q 81 367 81 264 l 81 724 l 263 724 l 263 332 q 303 188 263 224 q 382 154 338 154 q 461 188 426 154 q 503 332 503 225 l 503 724 l 683 724 l 683 367 m 615 842 l 461 842 l 461 1015 l 615 1015 l 615 842 m 308 842 l 154 842 l 154 1015 l 308 1015 l 308 842 z "},"ό":{"ha":754,"x_min":71,"x_max":683,"o":"m 683 363 q 666 194 683 258 q 601 81 649 129 q 376 -8 518 -8 q 153 81 236 -8 q 88 194 106 129 q 71 363 71 258 q 88 530 71 465 q 153 643 106 594 q 376 732 236 732 q 601 643 518 732 q 666 530 649 594 q 683 363 683 465 m 503 363 q 461 538 503 496 q 376 569 429 569 q 293 538 325 569 q 251 363 251 496 q 293 186 251 228 q 376 154 325 154 q 461 186 429 154 q 503 363 503 228 m 461 864 l 300 796 l 300 1015 l 461 1015 l 461 864 z "},"ύ":{"ha":764,"x_min":81,"x_max":683,"o":"m 683 367 q 667 198 683 264 q 601 81 651 132 q 382 -8 515 -8 q 163 81 249 -8 q 97 198 113 132 q 81 367 81 264 l 81 724 l 263 724 l 263 332 q 303 188 263 224 q 382 154 338 154 q 461 188 426 154 q 503 332 503 225 l 503 724 l 683 724 l 683 367 m 461 864 l 300 796 l 300 1015 l 461 1015 l 461 864 z "},"ώ":{"ha":1054,"x_min":71,"x_max":983,"o":"m 983 363 q 924 99 983 183 q 714 -8 847 -8 q 526 90 590 -8 q 339 -8 463 -8 q 131 99 207 -8 q 71 363 71 183 q 149 639 71 554 q 372 732 236 732 l 372 568 q 286 528 319 568 q 258 468 265 503 q 251 363 251 433 q 282 194 251 242 q 350 156 308 156 q 426 226 406 156 q 436 315 436 263 l 436 513 l 617 513 l 617 315 q 625 226 617 256 q 703 156 644 156 q 771 194 744 156 q 801 363 801 242 q 795 469 801 435 q 768 528 789 504 q 681 568 735 568 l 681 732 q 904 639 817 732 q 983 363 983 553 m 611 864 l 450 796 l 450 1015 l 611 1015 l 611 864 z "},"ϐ":{"ha":804,"x_min":101,"x_max":738,"o":"m 738 303 q 657 68 738 150 q 463 -8 581 -8 q 282 64 349 -8 l 282 -265 l 101 -265 l 101 724 q 187 922 101 851 q 408 993 272 993 q 622 927 540 993 q 704 743 704 861 q 664 600 704 653 q 592 543 632 560 q 679 488 647 524 q 738 303 738 421 m 558 317 q 497 440 558 413 q 397 458 457 458 l 326 458 l 326 601 l 411 601 q 532 724 532 601 q 503 806 532 774 q 413 840 471 840 q 282 703 282 840 l 282 293 q 319 192 282 231 q 413 153 356 153 q 508 182 474 153 q 558 317 558 225 z "},"Ё":{"ha":840,"x_min":115,"x_max":767,"o":"m 767 0 l 115 0 l 115 989 l 767 989 l 767 817 l 308 817 l 308 585 l 699 585 l 699 413 l 308 413 l 308 172 l 767 172 l 767 0 m 661 1088 l 507 1088 l 507 1261 l 661 1261 l 661 1088 m 354 1088 l 200 1088 l 200 1261 l 354 1261 l 354 1088 z "},"Ђ":{"ha":1039,"x_min":40,"x_max":950,"o":"m 449 456 l 449 0 l 257 0 l 257 817 l 40 817 l 40 989 l 750 989 l 750 817 l 449 817 l 449 622 l 629 622 q 862 539 774 622 q 950 321 950 456 l 950 303 q 861 83 950 167 q 629 0 772 0 l 571 0 l 571 165 l 614 165 q 717 203 678 165 q 757 303 757 242 l 757 321 q 717 419 757 382 q 614 456 678 456 l 449 456 z "},"Ѓ":{"ha":779,"x_min":119,"x_max":742,"o":"m 742 817 l 313 817 l 313 0 l 119 0 l 119 989 l 742 989 l 742 817 m 611 1321 l 453 1085 l 332 1085 l 421 1321 l 611 1321 z "},"Є":{"ha":860,"x_min":82,"x_max":808,"o":"m 617 300 l 808 300 q 685 72 783 151 q 446 -8 588 -8 q 179 100 288 -8 q 122 176 143 136 q 93 275 101 215 q 83 371 85 335 q 82 494 82 407 q 83 618 82 582 q 93 714 85 654 q 122 813 101 774 q 179 889 143 853 q 446 997 288 997 q 685 917 588 997 q 808 689 783 838 l 617 689 q 447 829 579 829 q 321 775 368 829 q 285 708 296 747 q 272 581 275 668 l 579 581 l 579 413 l 271 413 q 285 283 274 324 q 321 214 296 242 q 447 160 368 160 q 558 198 515 160 q 617 300 601 236 z "},"Ѕ":{"ha":821,"x_min":26,"x_max":754,"o":"m 754 292 q 651 72 754 151 q 388 -8 547 -8 q 183 22 269 -8 q 26 122 97 51 l 151 247 q 390 164 235 164 q 565 286 565 164 q 535 369 565 340 q 447 404 507 394 l 328 421 q 136 503 201 439 q 65 697 65 574 q 158 915 65 832 q 410 997 251 997 q 729 882 610 997 l 607 761 q 404 829 536 829 q 291 794 331 829 q 251 704 251 758 q 281 633 251 661 q 372 594 314 603 l 489 578 q 678 501 614 560 q 754 292 754 429 z "},"І":{"ha":424,"x_min":115,"x_max":308,"o":"m 308 0 l 115 0 l 115 989 l 308 989 l 308 0 z "},"Ї":{"ha":424,"x_min":-19,"x_max":442,"o":"m 308 0 l 115 0 l 115 989 l 308 989 l 308 0 m 442 1088 l 288 1088 l 288 1261 l 442 1261 l 442 1088 m 135 1088 l -19 1088 l -19 1261 l 135 1261 l 135 1088 z "},"Ј":{"ha":710,"x_min":4,"x_max":607,"o":"m 607 325 q 506 80 607 168 q 258 -8 404 -8 q 118 15 178 -8 q 4 93 58 39 l 132 219 q 258 164 188 164 q 372 207 331 164 q 414 333 414 250 l 414 989 l 607 989 l 607 325 z "},"Љ":{"ha":1400,"x_min":24,"x_max":1353,"o":"m 1017 443 l 836 443 l 836 172 l 1017 172 q 1121 210 1082 172 q 1160 308 1160 247 q 1121 406 1160 369 q 1017 443 1082 443 m 221 989 l 836 989 l 836 617 l 1032 617 q 1265 531 1176 617 q 1353 308 1353 444 q 1264 86 1353 172 q 1032 0 1175 0 l 643 0 l 643 817 l 407 817 l 407 529 q 372 208 407 325 q 272 45 336 90 q 100 0 207 0 l 24 0 l 24 172 l 51 172 q 120 187 92 172 q 173 240 149 201 q 209 353 197 278 q 221 540 221 428 l 221 989 z "},"Њ":{"ha":1400,"x_min":115,"x_max":1353,"o":"m 1265 531 q 1309 488 1265 531 q 1353 308 1353 444 q 1264 86 1353 172 q 1032 0 1175 0 l 643 0 l 643 444 l 308 444 l 308 0 l 115 0 l 115 989 l 308 989 l 308 617 l 643 617 l 643 989 l 836 989 l 836 617 l 1032 617 q 1265 531 1176 617 m 1017 443 l 836 443 l 836 172 l 1017 172 q 1121 210 1082 172 q 1160 308 1160 247 q 1121 406 1160 369 q 1017 443 1082 443 z "},"Ћ":{"ha":1039,"x_min":40,"x_max":950,"o":"m 950 0 l 757 0 l 757 321 q 717 419 757 382 q 614 456 678 456 l 449 456 l 449 0 l 257 0 l 257 817 l 40 817 l 40 989 l 750 989 l 750 817 l 449 817 l 449 622 l 629 622 q 862 539 774 622 q 950 321 950 456 l 950 0 z "},"Ќ":{"ha":889,"x_min":118,"x_max":894,"o":"m 311 0 l 118 0 l 118 989 l 311 989 l 311 519 l 631 989 l 861 989 l 529 525 l 894 0 l 658 0 l 311 517 l 311 0 m 676 1321 l 518 1085 l 397 1085 l 486 1321 l 676 1321 z "},"Ў":{"ha":807,"x_min":6,"x_max":801,"o":"m 639 1240 q 571 1089 635 1136 q 414 1042 507 1042 q 257 1089 321 1042 q 189 1240 193 1136 l 325 1240 q 414 1154 331 1154 q 503 1240 497 1154 l 639 1240 m 801 989 l 451 167 q 231 0 381 0 l 113 0 l 113 172 l 190 172 q 293 235 265 172 l 322 303 l 6 989 l 207 989 l 414 513 l 601 989 l 801 989 z "},"Џ":{"ha":953,"x_min":115,"x_max":836,"o":"m 836 0 l 569 0 l 569 -219 l 383 -219 l 383 0 l 115 0 l 115 989 l 308 989 l 308 172 l 643 172 l 643 989 l 836 989 l 836 0 z "},"А":{"ha":886,"x_min":7,"x_max":879,"o":"m 879 0 l 678 0 l 619 175 l 268 175 l 208 0 l 7 0 l 367 989 l 518 989 l 879 0 m 568 338 l 447 697 l 322 338 l 568 338 z "},"Б":{"ha":908,"x_min":115,"x_max":832,"o":"m 745 531 q 789 489 745 531 q 832 308 832 446 q 745 85 832 171 q 511 0 658 0 l 115 0 l 115 989 l 769 989 l 769 817 l 308 817 l 308 617 l 511 617 q 745 531 658 617 m 639 308 q 602 407 639 369 q 501 444 565 444 l 308 444 l 308 172 l 501 172 q 602 209 565 172 q 639 308 639 246 z "},"В":{"ha":914,"x_min":115,"x_max":832,"o":"m 696 507 q 771 454 743 482 q 832 283 832 389 q 750 76 832 153 q 529 0 668 0 l 115 0 l 115 989 l 513 989 q 735 915 653 989 q 818 717 818 842 q 696 507 818 575 m 308 589 l 497 589 q 591 619 557 589 q 625 703 625 650 q 591 786 625 756 q 497 817 557 817 l 308 817 l 308 589 m 308 172 l 510 172 q 604 206 569 172 q 639 294 639 239 q 604 383 639 350 q 510 415 569 415 l 308 415 l 308 172 z "},"Г":{"ha":779,"x_min":119,"x_max":742,"o":"m 742 817 l 313 817 l 313 0 l 119 0 l 119 989 l 742 989 l 742 817 z "},"Д":{"ha":979,"x_min":19,"x_max":940,"o":"m 940 -219 l 754 -219 l 754 0 l 206 0 l 206 -219 l 19 -219 l 19 172 l 113 172 q 231 736 231 354 l 231 989 l 826 989 l 826 172 l 940 172 l 940 -219 m 633 172 l 633 817 l 415 817 l 415 674 q 328 172 415 349 l 633 172 z "},"Е":{"ha":840,"x_min":115,"x_max":767,"o":"m 767 0 l 115 0 l 115 989 l 767 989 l 767 817 l 308 817 l 308 585 l 699 585 l 699 413 l 308 413 l 308 172 l 767 172 l 767 0 z "},"Ж":{"ha":1304,"x_min":-8,"x_max":1313,"o":"m 225 0 l -8 0 l 349 525 l 25 989 l 253 989 l 556 519 l 556 989 l 749 989 l 749 519 l 1051 989 l 1279 989 l 956 525 l 1313 0 l 1079 0 l 749 517 l 749 0 l 556 0 l 556 517 l 225 0 z "},"З":{"ha":842,"x_min":47,"x_max":760,"o":"m 407 -8 q 170 72 268 -8 q 47 300 72 151 l 239 300 q 408 160 276 160 q 524 197 481 160 q 567 293 567 233 q 528 392 567 357 q 417 426 490 426 l 289 426 l 289 585 l 418 585 q 517 617 482 585 q 553 710 553 650 q 514 799 553 767 q 410 832 475 832 q 299 792 342 832 q 242 689 257 753 l 49 689 q 172 917 74 838 q 411 997 269 997 q 652 922 558 997 q 746 724 746 847 q 617 511 746 581 q 760 286 760 447 q 661 72 760 153 q 407 -8 563 -8 z "},"И":{"ha":981,"x_min":115,"x_max":865,"o":"m 865 0 l 672 0 l 672 635 l 288 0 l 115 0 l 115 989 l 308 989 l 308 356 l 693 989 l 865 989 l 865 0 z "},"Й":{"ha":981,"x_min":115,"x_max":865,"o":"m 717 1240 q 649 1089 713 1136 q 492 1042 585 1042 q 335 1089 399 1042 q 267 1240 271 1136 l 403 1240 q 492 1154 408 1154 q 581 1240 575 1154 l 717 1240 m 865 0 l 672 0 l 672 635 l 288 0 l 115 0 l 115 989 l 308 989 l 308 356 l 693 989 l 865 989 l 865 0 z "},"К":{"ha":889,"x_min":118,"x_max":894,"o":"m 311 0 l 118 0 l 118 989 l 311 989 l 311 519 l 631 989 l 861 989 l 529 525 l 894 0 l 658 0 l 311 517 l 311 0 z "},"Л":{"ha":953,"x_min":24,"x_max":836,"o":"m 836 0 l 643 0 l 643 817 l 407 817 l 407 529 q 372 208 407 325 q 272 45 336 90 q 100 0 207 0 l 24 0 l 24 172 l 51 172 q 120 187 92 172 q 173 240 149 201 q 209 353 197 278 q 221 540 221 428 l 221 989 l 836 989 l 836 0 z "},"М":{"ha":1126,"x_min":115,"x_max":1011,"o":"m 1011 0 l 818 0 l 818 576 l 629 201 l 499 201 l 308 576 l 308 0 l 115 0 l 115 989 l 306 989 l 564 454 l 821 989 l 1011 989 l 1011 0 z "},"Н":{"ha":951,"x_min":115,"x_max":836,"o":"m 836 0 l 643 0 l 643 414 l 308 414 l 308 0 l 115 0 l 115 989 l 308 989 l 308 585 l 643 585 l 643 989 l 836 989 l 836 0 z "},"О":{"ha":894,"x_min":82,"x_max":813,"o":"m 813 564 l 813 458 q 809 326 813 374 q 783 213 806 279 q 714 100 760 147 q 447 -8 610 -8 q 179 100 285 -8 q 112 215 135 146 q 85 332 89 285 q 82 453 82 379 l 82 535 q 102 757 82 683 q 179 889 122 831 q 447 997 285 997 q 714 889 608 997 q 813 564 813 789 m 619 513 q 610 688 619 635 q 571 772 600 740 q 447 825 525 825 q 322 772 368 825 q 283 678 292 739 q 275 508 275 618 l 275 458 q 277 357 275 393 q 290 279 279 321 q 322 217 301 238 q 447 164 375 164 q 571 217 525 164 q 610 307 601 251 q 619 513 619 363 z "},"П":{"ha":951,"x_min":115,"x_max":836,"o":"m 836 0 l 643 0 l 643 817 l 308 817 l 308 0 l 115 0 l 115 989 l 836 989 l 836 0 z "},"Р":{"ha":872,"x_min":115,"x_max":825,"o":"m 115 989 l 499 989 q 733 902 642 989 q 825 681 825 815 q 733 458 825 544 q 499 372 642 372 l 308 372 l 308 0 l 115 0 l 115 989 m 308 546 l 489 546 q 593 583 554 546 q 632 681 632 619 q 593 779 632 742 q 489 817 554 817 l 308 817 l 308 546 z "},"С":{"ha":861,"x_min":82,"x_max":810,"o":"m 810 304 q 686 72 785 153 q 446 -8 588 -8 q 179 100 288 -8 q 122 176 143 136 q 93 275 101 215 q 83 371 85 335 q 82 494 82 407 q 83 618 82 582 q 93 714 85 654 q 122 813 101 774 q 179 889 143 853 q 446 997 288 997 q 687 917 589 997 q 810 685 785 836 l 614 685 q 447 825 579 825 q 324 774 368 825 q 285 688 294 742 q 275 494 275 633 q 285 301 275 356 q 324 215 294 247 q 447 164 368 164 q 614 304 579 164 l 810 304 z "},"Т":{"ha":793,"x_min":42,"x_max":751,"o":"m 751 817 l 493 817 l 493 0 l 300 0 l 300 817 l 42 817 l 42 989 l 751 989 l 751 817 z "},"У":{"ha":807,"x_min":6,"x_max":801,"o":"m 801 989 l 451 167 q 231 0 381 0 l 113 0 l 113 172 l 190 172 q 293 235 265 172 l 322 303 l 6 989 l 207 989 l 414 513 l 601 989 l 801 989 z "},"Ф":{"ha":1131,"x_min":63,"x_max":1068,"o":"m 660 772 l 660 272 q 826 341 775 279 q 876 524 876 403 q 827 708 876 649 q 660 772 778 767 m 472 272 l 472 772 q 305 708 354 767 q 256 524 256 649 q 306 341 256 403 q 472 272 357 279 m 661 -7 l 469 -7 l 469 111 q 160 228 258 122 q 63 532 63 335 q 469 938 63 913 l 469 1036 l 661 1036 l 661 938 q 1068 532 1068 913 q 971 228 1068 333 q 661 111 874 122 l 661 -7 z "},"Х":{"ha":838,"x_min":7,"x_max":831,"o":"m 831 0 l 610 0 l 418 344 l 228 0 l 7 0 l 314 507 l 26 989 l 246 989 l 418 669 l 592 989 l 810 989 l 522 507 l 831 0 z "},"Ц":{"ha":989,"x_min":115,"x_max":951,"o":"m 951 -219 l 765 -219 l 765 0 l 115 0 l 115 989 l 308 989 l 308 172 l 643 172 l 643 989 l 836 989 l 836 172 l 951 172 l 951 -219 z "},"Ч":{"ha":901,"x_min":89,"x_max":785,"o":"m 785 0 l 593 0 l 593 371 q 342 344 431 344 q 163 407 238 344 q 89 585 89 469 l 89 989 l 282 989 l 282 635 q 406 517 282 517 q 593 538 492 517 l 593 989 l 785 989 l 785 0 z "},"Ш":{"ha":1372,"x_min":115,"x_max":1257,"o":"m 1257 0 l 115 0 l 115 989 l 308 989 l 308 172 l 590 172 l 590 989 l 783 989 l 783 172 l 1064 172 l 1064 989 l 1257 989 l 1257 0 z "},"Щ":{"ha":1408,"x_min":115,"x_max":1371,"o":"m 1371 -219 l 1185 -219 l 1185 0 l 115 0 l 115 989 l 308 989 l 308 172 l 590 172 l 590 989 l 783 989 l 783 172 l 1064 172 l 1064 989 l 1257 989 l 1257 172 l 1371 172 l 1371 -219 z "},"Ъ":{"ha":1010,"x_min":42,"x_max":963,"o":"m 874 531 q 918 488 874 531 q 963 308 963 444 q 873 86 963 172 q 642 0 783 0 l 253 0 l 253 817 l 42 817 l 42 989 l 446 989 l 446 617 l 642 617 q 874 531 785 617 m 731 210 q 750 228 731 210 q 769 308 769 247 q 730 407 769 369 q 626 444 690 444 l 446 444 l 446 172 l 626 172 q 731 210 692 172 z "},"Ы":{"ha":1240,"x_min":115,"x_max":1125,"o":"m 1125 0 l 932 0 l 932 989 l 1125 989 l 1125 0 m 737 531 q 781 488 737 531 q 825 308 825 444 q 736 86 825 172 q 504 0 647 0 l 115 0 l 115 989 l 308 989 l 308 617 l 504 617 q 737 531 649 617 m 593 210 q 613 228 593 210 q 632 308 632 247 q 593 407 632 369 q 489 444 554 444 l 308 444 l 308 172 l 489 172 q 593 210 554 172 z "},"Ь":{"ha":872,"x_min":115,"x_max":825,"o":"m 737 531 q 781 488 737 531 q 825 308 825 444 q 736 86 825 172 q 504 0 647 0 l 115 0 l 115 989 l 308 989 l 308 617 l 504 617 q 737 531 649 617 m 593 210 q 613 228 593 210 q 632 308 632 247 q 593 407 632 369 q 489 444 554 444 l 308 444 l 308 172 l 489 172 q 593 210 554 172 z "},"Э":{"ha":860,"x_min":51,"x_max":778,"o":"m 51 300 l 243 300 q 301 198 258 236 q 413 160 344 160 q 539 214 492 160 q 575 283 564 242 q 589 413 586 324 l 281 413 l 281 581 l 588 581 q 574 708 585 668 q 539 775 564 747 q 413 829 492 829 q 243 689 281 829 l 51 689 q 174 917 76 838 q 414 997 272 997 q 681 889 572 997 q 738 813 717 853 q 767 714 758 774 q 776 618 775 654 q 778 494 778 582 q 776 371 778 407 q 767 275 775 335 q 738 176 758 215 q 681 100 717 136 q 414 -8 572 -8 q 174 72 272 -8 q 51 300 76 151 z "},"Ю":{"ha":1269,"x_min":115,"x_max":1188,"o":"m 822 997 q 1090 889 983 997 q 1188 582 1188 790 l 1188 481 q 1184 326 1188 378 q 1158 211 1181 275 q 1090 100 1136 147 q 824 -8 986 -8 q 556 100 660 -8 q 479 231 499 158 q 457 414 460 303 l 308 414 l 308 0 l 115 0 l 115 989 l 308 989 l 308 586 l 458 586 q 483 767 463 700 q 556 889 503 835 q 822 997 658 997 m 994 472 l 994 531 q 947 772 994 718 q 822 825 901 825 q 699 772 743 825 q 650 524 650 717 l 650 463 q 660 301 650 354 q 699 218 671 249 q 822 164 746 164 q 947 218 900 164 q 985 305 976 250 q 994 472 994 360 z "},"Я":{"ha":903,"x_min":44,"x_max":788,"o":"m 436 372 l 274 0 l 44 0 l 249 411 q 124 517 169 447 q 79 681 79 588 q 169 905 79 821 q 404 989 260 989 l 788 989 l 788 0 l 594 0 l 594 372 l 436 372 m 594 543 l 594 819 l 414 819 q 310 782 349 819 q 271 683 271 744 q 310 583 271 622 q 414 543 350 543 l 594 543 z "},"а":{"ha":742,"x_min":50,"x_max":649,"o":"m 649 0 l 472 0 l 472 63 q 397 10 432 24 q 294 -7 356 -7 q 115 52 179 -7 q 50 218 50 111 q 116 372 50 315 q 297 429 182 429 l 468 429 l 468 465 q 436 552 468 525 q 331 579 404 579 q 254 567 282 579 q 194 519 226 554 l 79 632 q 176 706 132 685 q 336 732 238 732 q 649 476 649 732 l 649 0 m 468 306 l 325 306 q 250 284 276 306 q 224 224 224 263 q 338 140 224 140 q 438 169 407 140 q 468 267 468 199 l 468 306 z "},"б":{"ha":761,"x_min":82,"x_max":694,"o":"m 303 189 q 389 154 332 154 q 476 190 446 154 q 514 361 514 236 q 478 525 514 481 q 389 564 449 564 q 299 526 329 564 q 263 363 263 479 q 303 189 263 233 m 392 -8 q 140 104 213 -8 q 82 422 82 196 q 92 687 82 594 q 126 829 103 779 q 197 917 149 879 q 356 981 260 965 q 632 997 453 996 l 632 842 q 560 838 611 840 q 478 834 510 836 q 406 824 447 832 q 336 800 365 815 q 265 736 286 774 q 244 633 244 699 q 316 693 265 669 q 425 717 367 717 q 603 658 538 717 q 694 365 694 572 q 674 192 694 258 q 606 75 653 125 q 392 -8 526 -8 z "},"в":{"ha":764,"x_min":100,"x_max":692,"o":"m 692 208 q 632 56 692 113 q 469 0 572 0 l 100 0 l 100 724 l 457 724 q 619 669 558 724 q 681 525 681 615 q 589 372 681 425 q 692 208 692 319 m 414 590 l 279 590 l 279 436 l 414 436 q 501 514 501 436 q 414 590 501 590 m 488 156 q 500 168 488 156 q 513 218 513 179 q 489 279 513 257 q 422 301 465 301 l 279 301 l 279 133 l 422 133 q 488 156 464 133 z "},"г":{"ha":603,"x_min":106,"x_max":585,"o":"m 585 564 l 286 564 l 286 0 l 106 0 l 106 724 l 585 724 l 585 564 z "},"д":{"ha":806,"x_min":18,"x_max":774,"o":"m 774 -178 l 603 -178 l 603 0 l 189 0 l 189 -178 l 18 -178 l 18 160 l 92 160 q 163 503 163 286 l 163 724 l 682 724 l 682 160 l 774 160 l 774 -178 m 501 160 l 501 564 l 336 564 l 336 469 q 281 160 336 274 l 501 160 z "},"е":{"ha":761,"x_min":65,"x_max":696,"o":"m 696 306 l 243 306 q 408 144 251 144 q 492 160 454 144 q 565 213 525 174 l 675 106 q 550 18 610 43 q 401 -8 483 -8 q 65 364 65 -8 q 150 633 65 533 q 381 732 235 732 q 610 638 524 732 q 696 386 696 543 l 696 306 m 518 429 q 478 542 514 503 q 381 582 443 582 q 282 542 318 582 q 243 429 246 503 l 518 429 z "},"ж":{"ha":1057,"x_min":-8,"x_max":1065,"o":"m 204 0 l -8 0 l 246 386 l 8 724 l 215 724 l 438 381 l 438 724 l 619 724 l 619 381 l 843 724 l 1050 724 l 813 386 l 1065 0 l 854 0 l 619 378 l 619 0 l 438 0 l 438 378 l 204 0 z "},"з":{"ha":689,"x_min":24,"x_max":617,"o":"m 617 214 q 536 53 617 115 q 340 -8 456 -8 q 24 94 138 -8 l 128 208 q 311 144 200 144 q 400 166 363 144 q 438 226 438 188 q 333 304 438 304 l 224 304 l 224 433 l 331 433 q 401 455 375 433 q 428 513 428 476 q 306 586 428 586 q 149 536 219 586 l 49 647 q 342 732 156 732 q 528 680 451 732 q 606 536 606 628 q 578 443 606 485 q 507 381 551 401 q 587 315 557 360 q 617 214 617 271 z "},"и":{"ha":818,"x_min":100,"x_max":718,"o":"m 718 0 l 536 0 l 536 442 l 282 0 l 100 0 l 100 724 l 282 724 l 282 293 l 536 724 l 718 724 l 718 0 z "},"й":{"ha":818,"x_min":100,"x_max":718,"o":"m 633 1003 q 566 851 631 899 q 408 804 501 804 q 251 851 315 804 q 183 1003 188 899 l 319 1003 q 408 917 325 917 q 497 1003 492 917 l 633 1003 m 718 0 l 536 0 l 536 442 l 282 0 l 100 0 l 100 724 l 282 724 l 282 293 l 536 724 l 718 724 l 718 0 z "},"к":{"ha":740,"x_min":101,"x_max":749,"o":"m 283 0 l 101 0 l 101 724 l 283 724 l 283 381 l 521 724 l 732 724 l 476 386 l 749 0 l 532 0 l 283 378 l 283 0 z "},"л":{"ha":793,"x_min":19,"x_max":692,"o":"m 692 0 l 511 0 l 511 564 l 338 564 l 338 390 q 281 85 338 169 q 106 0 224 0 l 19 0 l 19 160 l 42 160 q 88 166 71 160 q 124 197 104 172 q 153 279 144 221 q 163 431 163 338 l 163 724 l 692 724 l 692 0 z "},"м":{"ha":940,"x_min":100,"x_max":839,"o":"m 839 0 l 658 0 l 658 418 l 522 150 l 419 150 l 282 418 l 282 0 l 100 0 l 100 724 l 279 724 l 471 343 l 661 724 l 839 724 l 839 0 z "},"н":{"ha":796,"x_min":100,"x_max":696,"o":"m 696 0 l 514 0 l 514 290 l 282 290 l 282 0 l 100 0 l 100 724 l 282 724 l 282 450 l 514 450 l 514 724 l 696 724 l 696 0 z "},"о":{"ha":754,"x_min":71,"x_max":683,"o":"m 683 365 q 665 191 683 254 q 601 81 647 128 q 376 -8 517 -8 q 153 81 238 -8 q 89 191 107 128 q 71 363 71 254 q 90 532 71 469 q 153 643 108 594 q 376 732 238 732 q 601 643 517 732 q 665 533 646 596 q 683 365 683 471 m 503 363 q 499 435 503 406 q 485 499 496 465 q 447 551 474 533 q 376 569 419 569 q 316 555 340 569 q 279 521 292 540 q 260 467 267 501 q 252 411 253 433 q 251 351 251 389 q 281 201 251 247 q 376 154 311 154 q 436 167 411 154 q 474 199 461 181 q 493 249 486 218 q 501 304 500 281 q 503 363 503 328 z "},"п":{"ha":796,"x_min":100,"x_max":696,"o":"m 696 0 l 514 0 l 514 564 l 282 564 l 282 0 l 100 0 l 100 724 l 696 724 l 696 0 z "},"р":{"ha":778,"x_min":101,"x_max":707,"o":"m 276 656 q 358 715 319 699 q 454 732 396 732 q 633 667 568 732 q 694 544 679 621 q 707 360 707 476 q 690 165 707 233 q 633 57 674 97 q 454 -8 568 -8 q 282 64 354 -8 l 282 -265 l 101 -265 l 101 724 l 276 724 l 276 656 m 526 364 q 499 524 526 478 q 404 569 472 569 q 351 561 374 569 q 317 533 329 553 q 297 497 304 513 q 286 448 289 481 q 283 401 283 415 q 282 351 282 386 q 310 200 282 246 q 404 154 339 154 q 499 201 472 154 q 526 364 526 249 z "},"с":{"ha":667,"x_min":65,"x_max":628,"o":"m 628 90 q 525 18 575 40 q 390 -8 467 -8 q 150 90 235 -8 q 65 368 65 188 q 151 635 65 539 q 390 732 238 732 q 525 707 467 732 q 628 635 575 685 l 506 513 q 389 569 450 569 q 246 363 246 569 q 389 154 246 154 q 448 166 424 154 q 506 211 472 178 l 628 90 z "},"т":{"ha":633,"x_min":15,"x_max":618,"o":"m 618 564 l 410 564 l 410 0 l 228 0 l 228 564 l 15 564 l 15 724 l 618 724 l 618 564 z "},"у":{"ha":686,"x_min":6,"x_max":681,"o":"m 681 724 l 371 -117 q 292 -230 342 -194 q 161 -265 243 -265 l 90 -265 l 90 -103 l 132 -103 q 190 -90 172 -103 q 222 -37 208 -76 l 253 51 l 6 724 l 196 724 l 346 276 l 490 724 l 681 724 z "},"ф":{"ha":1008,"x_min":63,"x_max":946,"o":"m 946 367 q 853 96 946 189 q 594 -7 760 3 l 594 -265 l 414 -265 l 414 -7 q 156 96 249 3 q 63 367 63 189 q 414 731 63 710 l 414 989 l 594 989 l 594 731 q 946 367 946 710 m 764 365 q 592 569 764 568 l 592 154 q 764 365 764 158 m 417 154 l 417 569 q 244 365 244 568 q 417 154 244 158 z "},"х":{"ha":732,"x_min":17,"x_max":715,"o":"m 715 0 l 499 0 l 365 217 l 233 0 l 17 0 l 267 369 l 26 724 l 243 724 l 365 517 l 489 724 l 706 724 l 465 369 l 715 0 z "},"ц":{"ha":825,"x_min":100,"x_max":793,"o":"m 793 -178 l 621 -178 l 621 0 l 100 0 l 100 724 l 282 724 l 282 160 l 514 160 l 514 724 l 696 724 l 696 160 l 793 160 l 793 -178 z "},"ч":{"ha":761,"x_min":81,"x_max":661,"o":"m 661 0 l 481 0 l 481 254 q 283 235 371 235 q 138 288 194 235 q 81 432 81 340 l 81 724 l 261 724 l 261 482 q 350 394 261 394 q 481 407 385 394 l 481 724 l 661 724 l 661 0 z "},"ш":{"ha":1142,"x_min":100,"x_max":1040,"o":"m 1040 0 l 100 0 l 100 724 l 282 724 l 282 160 l 481 160 l 481 724 l 661 724 l 661 160 l 860 160 l 860 724 l 1040 724 l 1040 0 z "},"щ":{"ha":1171,"x_min":100,"x_max":1138,"o":"m 1138 -178 l 967 -178 l 967 0 l 100 0 l 100 724 l 282 724 l 282 160 l 481 160 l 481 724 l 661 724 l 661 160 l 860 160 l 860 724 l 1040 724 l 1040 160 l 1138 160 l 1138 -178 z "},"ъ":{"ha":819,"x_min":17,"x_max":775,"o":"m 708 399 q 742 367 708 399 q 775 232 775 335 q 708 65 775 129 q 535 0 642 0 l 186 0 l 186 564 l 17 564 l 17 724 l 368 724 l 368 463 l 535 463 q 708 399 642 463 m 501 321 l 363 321 l 363 142 l 501 142 q 572 166 546 142 q 597 232 597 190 q 572 297 597 272 q 501 321 546 321 z "},"ы":{"ha":1060,"x_min":100,"x_max":954,"o":"m 954 0 l 772 0 l 772 724 l 954 724 l 954 0 m 620 399 q 654 367 620 399 q 688 232 688 335 q 620 65 688 129 q 446 0 553 0 l 100 0 l 100 724 l 282 724 l 282 463 l 446 463 q 620 399 553 463 m 413 321 l 276 321 l 276 142 l 413 142 q 483 166 457 142 q 508 232 508 190 q 483 297 508 272 q 413 321 457 321 z "},"ь":{"ha":735,"x_min":100,"x_max":689,"o":"m 622 399 q 656 367 622 399 q 689 232 689 335 q 622 65 689 129 q 449 0 554 0 l 100 0 l 100 724 l 282 724 l 282 463 l 449 463 q 622 399 556 463 m 415 321 l 276 321 l 276 142 l 415 142 q 484 166 458 142 q 510 232 510 190 q 484 297 510 272 q 415 321 458 321 z "},"э":{"ha":667,"x_min":39,"x_max":601,"o":"m 276 732 q 516 636 431 732 q 601 367 601 540 q 517 89 601 186 q 276 -8 432 -8 q 149 14 201 -8 q 39 89 96 36 l 160 208 q 217 163 192 176 q 278 150 243 150 q 421 304 404 150 l 208 304 l 208 428 l 421 428 q 276 574 400 574 q 160 515 218 574 l 39 635 q 149 710 96 688 q 276 732 201 732 z "},"ю":{"ha":1075,"x_min":100,"x_max":1004,"o":"m 1004 364 q 985 192 1004 256 q 922 81 967 129 q 697 -8 838 -8 q 504 54 582 -8 q 394 293 404 132 l 282 293 l 282 0 l 100 0 l 100 724 l 282 724 l 282 447 l 394 447 q 503 669 410 597 q 697 732 582 732 q 926 638 844 732 q 986 527 968 590 q 1004 364 1004 464 m 697 569 q 604 525 635 569 q 572 365 572 482 q 603 200 572 246 q 697 154 633 154 q 793 201 763 154 q 824 364 824 246 q 792 526 824 478 q 697 569 761 569 z "},"я":{"ha":743,"x_min":40,"x_max":643,"o":"m 465 400 l 465 579 l 324 579 q 253 555 279 579 q 228 489 228 531 q 253 424 228 449 q 324 400 279 400 l 465 400 m 246 0 l 40 0 l 186 296 q 88 372 124 319 q 51 497 51 425 q 119 660 51 596 q 292 724 186 724 l 643 724 l 643 0 l 463 0 l 463 257 l 365 257 l 246 0 z "},"ё":{"ha":761,"x_min":65,"x_max":696,"o":"m 696 306 l 243 306 q 408 144 251 144 q 492 160 454 144 q 565 213 525 174 l 675 106 q 550 18 610 43 q 401 -8 483 -8 q 65 364 65 -8 q 150 633 65 533 q 381 732 235 732 q 610 638 524 732 q 696 386 696 543 l 696 306 m 518 429 q 478 542 514 503 q 381 582 443 582 q 282 542 318 582 q 243 429 246 503 l 518 429 m 615 842 l 461 842 l 461 1015 l 615 1015 l 615 842 m 308 842 l 154 842 l 154 1015 l 308 1015 l 308 842 z "},"ђ":{"ha":790,"x_min":35,"x_max":697,"o":"m 697 -36 q 642 -206 697 -142 q 458 -271 586 -271 l 375 -271 l 375 -118 l 425 -118 q 492 -90 469 -118 q 515 -24 515 -61 l 515 385 q 485 478 515 444 q 401 513 456 513 q 315 478 347 513 q 282 385 282 443 l 282 0 l 100 0 l 100 743 l 35 743 l 35 882 l 100 882 l 100 989 l 282 989 l 282 882 l 599 882 l 599 743 l 282 743 l 282 600 q 460 675 358 675 q 633 603 569 675 q 697 411 697 532 l 697 -36 z "},"ѓ":{"ha":603,"x_min":106,"x_max":585,"o":"m 585 564 l 286 564 l 286 0 l 106 0 l 106 724 l 585 724 l 585 564 m 511 1075 l 353 839 l 232 839 l 321 1075 l 511 1075 z "},"є":{"ha":667,"x_min":65,"x_max":628,"o":"m 628 89 q 519 14 572 36 q 390 -8 465 -8 q 150 89 235 -8 q 65 367 65 186 q 151 635 65 539 q 390 732 238 732 q 518 710 465 732 q 628 635 571 688 l 508 515 q 390 574 449 574 q 247 428 265 574 l 463 428 l 463 304 l 247 304 q 390 150 264 150 q 451 163 425 150 q 508 208 476 176 l 628 89 z "},"ѕ":{"ha":696,"x_min":31,"x_max":646,"o":"m 646 228 q 560 52 646 113 q 339 -8 474 -8 q 166 13 239 -8 q 31 96 93 33 l 149 214 q 342 146 217 146 q 432 165 394 146 q 469 221 469 183 q 393 288 469 281 l 279 299 q 68 501 68 319 q 149 671 68 610 q 347 732 231 732 q 624 647 533 732 l 513 535 q 344 583 458 583 q 267 563 293 583 q 242 514 242 543 q 317 451 242 458 l 431 440 q 591 376 536 431 q 646 228 646 321 z "},"і":{"ha":382,"x_min":99,"x_max":285,"o":"m 282 0 l 101 0 l 101 724 l 282 724 l 282 0 m 285 847 l 99 847 l 99 994 l 285 994 l 285 847 z "},"ї":{"ha":382,"x_min":-39,"x_max":422,"o":"m 282 0 l 101 0 l 101 724 l 282 724 l 282 0 m 422 842 l 268 842 l 268 1015 l 422 1015 l 422 842 m 115 842 l -39 842 l -39 1015 l 115 1015 l 115 842 z "},"ј":{"ha":382,"x_min":-32,"x_max":285,"o":"m 282 -64 q 228 -210 282 -149 q 71 -271 175 -271 l -32 -271 l -32 -118 l 38 -118 q 101 -53 101 -118 l 101 724 l 282 724 l 282 -64 m 285 847 l 99 847 l 99 994 l 285 994 l 285 847 z "},"љ":{"ha":1144,"x_min":19,"x_max":1101,"o":"m 922 232 q 897 297 922 272 q 826 321 871 321 l 688 321 l 688 142 l 826 142 q 897 166 871 142 q 922 232 922 190 m 163 724 l 692 724 l 692 463 l 860 463 q 1034 399 967 463 q 1101 232 1101 335 q 1034 65 1101 129 q 860 0 967 0 l 511 0 l 511 564 l 338 564 l 338 390 q 281 85 338 169 q 106 0 224 0 l 19 0 l 19 160 l 42 160 q 88 166 71 160 q 124 197 104 172 q 153 279 144 221 q 163 431 163 338 l 163 724 z "},"њ":{"ha":1149,"x_min":100,"x_max":1104,"o":"m 1038 399 q 1071 367 1038 399 q 1104 232 1104 335 q 1037 65 1104 129 q 864 0 969 0 l 514 0 l 514 303 l 282 303 l 282 0 l 100 0 l 100 724 l 282 724 l 282 463 l 514 463 l 514 724 l 696 724 l 696 463 l 864 463 q 1038 399 971 463 m 925 232 q 899 297 925 272 q 829 321 874 321 l 690 321 l 690 142 l 829 142 q 899 166 874 142 q 925 232 925 190 z "},"ћ":{"ha":790,"x_min":35,"x_max":697,"o":"m 697 0 l 515 0 l 515 371 q 485 465 515 431 q 400 499 454 499 q 313 464 344 499 q 282 371 282 429 l 282 0 l 100 0 l 100 729 l 35 729 l 35 868 l 100 868 l 100 989 l 282 989 l 282 868 l 599 868 l 599 729 l 282 729 l 282 586 q 458 661 358 661 q 633 590 568 661 q 697 397 697 518 l 697 0 z "},"ќ":{"ha":740,"x_min":101,"x_max":749,"o":"m 283 0 l 101 0 l 101 724 l 283 724 l 283 381 l 521 724 l 732 724 l 476 386 l 749 0 l 532 0 l 283 378 l 283 0 m 592 1075 l 433 839 l 313 839 l 401 1075 l 592 1075 z "},"ў":{"ha":686,"x_min":6,"x_max":681,"o":"m 571 1003 q 503 851 568 899 q 346 804 439 804 q 189 851 253 804 q 121 1003 125 899 l 257 1003 q 346 917 263 917 q 435 1003 429 917 l 571 1003 m 681 724 l 371 -117 q 292 -230 342 -194 q 161 -265 243 -265 l 90 -265 l 90 -103 l 132 -103 q 190 -90 172 -103 q 222 -37 208 -76 l 253 51 l 6 724 l 196 724 l 346 276 l 490 724 l 681 724 z "},"џ":{"ha":796,"x_min":100,"x_max":696,"o":"m 696 0 l 482 0 l 482 -178 l 311 -178 l 311 0 l 100 0 l 100 724 l 282 724 l 282 160 l 514 160 l 514 724 l 696 724 l 696 0 z "},"Ґ":{"ha":779,"x_min":119,"x_max":742,"o":"m 742 817 l 313 817 l 313 0 l 119 0 l 119 989 l 556 989 l 556 1208 l 742 1208 l 742 817 z "},"ґ":{"ha":603,"x_min":106,"x_max":585,"o":"m 585 564 l 286 564 l 286 0 l 106 0 l 106 724 l 414 724 l 414 901 l 585 901 l 585 564 z "},"–":{"ha":754,"x_min":69,"x_max":685,"o":"m 685 313 l 69 313 l 69 481 l 685 481 l 685 313 z "},"—":{"ha":1426,"x_min":82,"x_max":1344,"o":"m 1344 314 l 82 314 l 82 488 l 1344 488 l 1344 314 z "},"―":{"ha":1426,"x_min":82,"x_max":1344,"o":"m 1344 314 l 82 314 l 82 488 l 1344 488 l 1344 314 z "},"‘":{"ha":379,"x_min":94,"x_max":283,"o":"m 283 818 l 94 818 l 94 989 l 283 1135 l 283 818 z "},"’":{"ha":379,"x_min":94,"x_max":283,"o":"m 283 817 l 94 674 l 94 989 l 283 989 l 283 817 z "},"‚":{"ha":376,"x_min":94,"x_max":283,"o":"m 283 0 l 94 -144 l 94 172 l 283 172 l 283 0 z "},"“":{"ha":669,"x_min":94,"x_max":575,"o":"m 575 818 l 386 818 l 386 989 l 575 1135 l 575 818 m 282 818 l 94 818 l 94 989 l 282 1135 l 282 818 z "},"”":{"ha":669,"x_min":94,"x_max":575,"o":"m 575 817 l 386 674 l 386 989 l 575 989 l 575 817 m 282 817 l 94 674 l 94 989 l 282 989 l 282 817 z "},"„":{"ha":674,"x_min":94,"x_max":575,"o":"m 575 0 l 386 -144 l 386 172 l 575 172 l 575 0 m 282 0 l 94 -144 l 94 172 l 282 172 l 282 0 z "},"†":{"ha":804,"x_min":79,"x_max":725,"o":"m 725 569 l 492 569 l 492 0 l 311 0 l 311 569 l 79 569 l 79 732 l 311 732 l 311 989 l 492 989 l 492 732 l 725 732 l 725 569 z "},"‡":{"ha":804,"x_min":79,"x_max":725,"o":"m 725 -8 l 492 -8 l 492 -265 l 311 -265 l 311 -8 l 79 -8 l 79 154 l 311 154 l 311 569 l 79 569 l 79 732 l 311 732 l 311 989 l 492 989 l 492 732 l 725 732 l 725 569 l 492 569 l 492 154 l 725 154 l 725 -8 z "},"•":{"ha":685,"x_min":115,"x_max":568,"o":"m 502 624 q 535 591 502 624 q 568 464 568 558 q 502 303 568 369 q 342 238 436 238 q 181 303 247 238 q 115 464 115 369 q 181 624 115 558 q 342 690 247 690 q 502 624 436 690 z "},"…":{"ha":1175,"x_min":94,"x_max":1081,"o":"m 292 0 l 94 0 l 94 196 l 292 196 l 292 0 m 685 0 l 489 0 l 489 196 l 685 196 l 685 0 m 1081 0 l 885 0 l 885 196 l 1081 196 l 1081 0 z "},"‰":{"ha":1682,"x_min":72,"x_max":1608,"o":"m 1608 182 q 1551 42 1608 92 q 1407 -8 1493 -8 q 1263 42 1321 -8 q 1206 182 1206 92 l 1206 319 q 1263 460 1206 410 q 1407 510 1321 510 q 1551 460 1493 510 q 1608 319 1608 410 l 1608 182 m 1106 182 q 1048 42 1106 92 q 904 -8 990 -8 q 760 42 818 -8 q 703 182 703 92 l 703 319 q 760 460 703 410 q 904 510 818 510 q 1048 460 990 510 q 1106 319 1106 410 l 1106 182 m 475 669 q 417 529 475 579 q 274 479 360 479 q 130 529 188 479 q 72 669 72 579 l 72 807 q 130 947 72 897 q 274 997 188 997 q 417 947 360 997 q 475 807 475 897 l 475 669 m 894 989 l 426 0 l 285 0 l 753 989 l 894 989 m 1478 186 l 1478 314 q 1407 393 1478 393 q 1336 314 1336 393 l 1336 188 q 1407 108 1336 108 q 1478 186 1478 108 m 975 188 l 975 314 q 904 393 975 393 q 833 314 833 393 l 833 188 q 904 108 833 108 q 975 188 975 108 m 344 675 l 344 801 q 274 881 344 881 q 203 801 203 881 l 203 675 q 274 596 203 596 q 344 675 344 596 z "},"‹":{"ha":486,"x_min":47,"x_max":393,"o":"m 393 38 l 47 382 l 393 726 l 393 511 l 263 382 l 393 253 l 393 38 z "},"›":{"ha":486,"x_min":93,"x_max":439,"o":"m 439 382 l 93 38 l 93 253 l 225 382 l 93 511 l 93 726 l 439 382 z "},"⁄":{"ha":289,"x_min":-160,"x_max":449,"o":"m 449 989 l -19 0 l -160 0 l 308 989 l 449 989 z "},"€":{"ha":950,"x_min":54,"x_max":878,"o":"m 878 304 q 755 72 853 153 q 515 -8 657 -8 q 249 100 357 -8 q 156 329 169 179 l 54 329 l 54 444 l 150 444 l 150 549 l 54 549 l 54 664 l 156 664 q 249 889 169 808 q 515 997 357 997 q 756 917 658 997 q 878 685 853 836 l 682 685 q 515 825 647 825 q 393 774 440 825 q 353 664 360 736 l 558 664 l 558 549 l 344 549 l 344 444 l 558 444 l 558 329 l 351 329 q 393 215 358 254 q 515 164 440 164 q 683 304 649 164 l 878 304 z "},"№":{"ha":1340,"x_min":96,"x_max":1279,"o":"m 789 0 l 629 0 l 276 633 l 276 0 l 96 0 l 96 989 l 256 989 l 608 356 l 608 989 l 789 989 l 789 0 m 1271 313 l 868 313 l 868 442 l 1271 442 l 1271 313 m 1115 631 q 1139 747 1139 653 q 1115 864 1139 842 q 1071 881 1101 881 q 1025 864 1039 881 q 1001 747 1001 840 q 1025 631 1001 654 q 1071 613 1043 613 q 1115 631 1097 613 m 1279 742 q 1222 549 1279 606 q 1071 488 1164 488 q 919 549 978 488 q 863 742 863 606 q 919 936 863 878 q 1071 996 976 996 q 1222 936 1165 996 q 1279 742 1279 875 z "},"™":{"ha":1283,"x_min":63,"x_max":1194,"o":"m 1194 396 l 1063 396 l 1063 746 l 951 528 l 835 528 l 724 746 l 724 396 l 592 396 l 592 989 l 724 989 l 893 672 l 1063 989 l 1194 989 l 1194 396 m 500 871 l 347 871 l 347 396 l 215 396 l 215 871 l 63 871 l 63 989 l 500 989 l 500 871 z "},"Ω":{"ha":894,"x_min":82,"x_max":813,"o":"m 813 0 l 508 0 l 508 151 q 583 213 557 174 q 619 485 619 267 q 609 681 619 624 q 571 771 599 739 q 447 825 524 825 q 322 771 369 825 q 285 682 294 739 q 275 485 275 625 q 311 213 275 267 q 386 151 338 174 l 386 0 l 82 0 l 82 171 l 164 171 q 114 247 132 206 q 82 494 82 325 q 83 618 82 582 q 93 714 85 654 q 122 813 101 774 q 179 889 143 853 q 447 997 288 997 q 714 889 606 997 q 772 813 750 853 q 801 715 793 772 q 811 618 810 657 q 813 494 813 579 q 781 247 813 325 q 731 171 763 206 l 813 171 l 813 0 z "},"←":{"ha":1426,"x_min":69,"x_max":1357,"o":"m 606 -139 l 69 396 l 606 931 l 833 931 l 379 481 l 1357 481 l 1357 310 l 379 310 l 833 -139 l 606 -139 z "},"↑":{"ha":1426,"x_min":179,"x_max":1249,"o":"m 1249 278 l 799 732 l 799 -247 l 629 -247 l 629 732 l 179 278 l 179 506 l 714 1040 l 1249 506 l 1249 278 z "},"→":{"ha":1426,"x_min":71,"x_max":1358,"o":"m 596 -139 l 1050 311 l 71 311 l 71 481 l 1050 481 l 596 931 l 824 931 l 1358 396 l 824 -139 l 596 -139 z "},"↓":{"ha":1426,"x_min":178,"x_max":1247,"o":"m 1247 289 l 713 -247 l 178 289 l 178 517 l 628 63 l 628 1040 l 799 1040 l 799 63 l 1247 517 l 1247 289 z "},"↖":{"ha":1426,"x_min":257,"x_max":1228,"o":"m 1228 1 l 1107 -119 l 417 572 l 418 -67 l 257 94 l 257 851 l 1015 851 l 1176 690 l 538 693 l 1228 1 z "},"↗":{"ha":1426,"x_min":197,"x_max":1168,"o":"m 1168 96 l 1007 -65 l 1010 572 l 318 -119 l 197 1 l 889 693 l 250 690 l 411 851 l 1168 851 l 1168 96 z "},"↘":{"ha":1426,"x_min":210,"x_max":1181,"o":"m 1181 -87 l 424 -87 l 264 72 l 901 69 l 210 761 l 331 882 l 1022 190 l 1019 828 l 1181 667 l 1181 -87 z "},"↙":{"ha":1426,"x_min":243,"x_max":1214,"o":"m 1214 761 l 524 71 l 1163 72 l 1001 -87 l 243 -89 l 244 668 l 406 829 l 403 192 l 1093 882 l 1214 761 z "},"∂":{"ha":771,"x_min":78,"x_max":669,"o":"m 669 353 q 652 190 669 253 q 590 78 635 126 q 374 -8 510 -8 q 158 78 239 -8 q 95 190 113 126 q 78 353 78 253 q 95 517 78 454 q 158 629 113 581 q 367 713 236 713 q 488 672 443 713 l 488 710 q 453 801 488 758 q 343 844 418 844 q 201 789 258 844 l 89 903 q 204 976 143 956 q 351 997 265 997 q 588 907 506 997 q 669 668 669 817 l 669 353 m 489 353 q 451 519 489 479 q 374 550 421 550 q 296 519 326 550 q 258 353 258 479 q 296 185 258 225 q 374 154 326 154 q 451 185 421 154 q 489 353 489 225 z "},"∆":{"ha":881,"x_min":4,"x_max":876,"o":"m 876 0 l 4 0 l 365 989 l 515 989 l 876 0 m 625 163 l 444 697 l 258 163 l 625 163 z "},"∏":{"ha":951,"x_min":115,"x_max":836,"o":"m 836 -265 l 643 -265 l 643 885 l 308 885 l 308 -265 l 115 -265 l 115 1056 l 836 1056 l 836 -265 z "},"∑":{"ha":767,"x_min":56,"x_max":715,"o":"m 715 -265 l 56 -265 l 56 -112 l 318 410 l 60 903 l 60 1056 l 710 1056 l 710 883 l 285 883 l 481 496 l 481 317 l 278 -93 l 715 -93 l 715 -265 z "},"−":{"ha":754,"x_min":69,"x_max":685,"o":"m 685 313 l 69 313 l 69 481 l 685 481 l 685 313 z "},"∙":{"ha":396,"x_min":94,"x_max":301,"o":"m 301 294 l 94 294 l 94 500 l 301 500 l 301 294 z "},"√":{"ha":828,"x_min":4,"x_max":786,"o":"m 786 817 l 658 817 l 389 0 l 243 0 l 4 724 l 200 724 l 317 344 l 515 989 l 786 989 l 786 817 z "},"∞":{"ha":1182,"x_min":76,"x_max":1106,"o":"m 1036 583 q 1071 546 1036 583 q 1106 394 1106 508 q 1036 207 1106 281 q 842 133 967 133 q 590 264 706 133 q 340 133 475 133 q 146 207 215 133 q 76 394 76 281 q 146 583 76 508 q 340 658 215 658 q 590 526 474 658 q 842 658 707 658 q 1036 583 967 658 m 468 390 q 426 438 442 422 q 388 468 411 454 q 340 482 364 482 q 277 457 303 482 q 251 390 251 432 q 277 324 251 349 q 340 300 303 300 q 388 314 364 300 q 427 344 411 328 q 468 390 443 360 m 904 324 q 917 336 904 324 q 931 390 931 349 q 904 456 931 432 q 840 481 878 481 q 780 459 807 481 q 714 390 753 438 q 756 343 740 358 q 794 314 771 328 q 840 300 817 300 q 904 324 878 300 z "},"∤":{"ha":396,"x_min":94,"x_max":301,"o":"m 301 294 l 94 294 l 94 500 l 301 500 l 301 294 z "},"∧":{"ha":396,"x_min":94,"x_max":301,"o":"m 301 294 l 94 294 l 94 500 l 301 500 l 301 294 z "},"∫":{"ha":681,"x_min":79,"x_max":601,"o":"m 601 854 l 533 854 q 435 756 435 854 l 435 -7 q 363 -192 435 -126 q 169 -258 290 -258 l 79 -258 l 79 -106 l 147 -106 q 246 -8 246 -106 l 246 754 q 318 940 246 874 q 511 1007 390 1007 l 601 1007 l 601 854 z "},"≈":{"ha":842,"x_min":51,"x_max":790,"o":"m 790 546 q 674 453 725 481 q 561 426 624 426 q 399 472 485 426 q 285 506 335 506 q 165 447 224 506 l 51 561 q 167 654 118 628 q 279 681 217 681 q 442 635 356 681 q 554 600 508 600 q 675 660 615 600 l 790 546 m 790 232 q 674 139 724 165 q 563 113 625 113 q 400 158 486 113 q 288 193 333 193 q 167 133 226 193 l 51 247 q 168 340 117 313 q 282 367 219 367 q 443 321 357 367 q 557 288 507 288 q 676 346 618 288 l 790 232 z "},"≠":{"ha":836,"x_min":69,"x_max":767,"o":"m 767 161 l 322 161 l 179 -18 l 69 68 l 146 161 l 69 161 l 69 331 l 276 331 l 385 463 l 69 463 l 69 632 l 514 632 l 657 811 l 767 725 l 690 632 l 767 632 l 767 463 l 561 463 l 453 331 l 767 331 l 767 161 z "},"≤":{"ha":754,"x_min":96,"x_max":660,"o":"m 660 243 l 96 503 l 96 661 l 660 919 l 660 729 l 325 582 l 660 433 l 660 243 m 660 -58 l 96 201 l 96 392 l 660 132 l 660 -58 z "},"≥":{"ha":754,"x_min":96,"x_max":660,"o":"m 660 503 l 96 243 l 96 433 l 431 582 l 96 729 l 96 919 l 660 661 l 660 503 m 660 201 l 96 -58 l 96 132 l 660 392 l 660 201 z "},"⋅":{"ha":396,"x_min":94,"x_max":301,"o":"m 301 294 l 94 294 l 94 500 l 301 500 l 301 294 z "},"◊":{"ha":883,"x_min":76,"x_max":807,"o":"m 807 474 l 442 -36 l 76 474 l 442 982 l 807 474 m 604 474 l 442 701 l 279 474 l 442 244 l 604 474 z "},"ﬁ":{"ha":836,"x_min":43,"x_max":739,"o":"m 432 565 l 299 565 l 299 0 l 118 0 l 118 565 l 43 565 l 43 703 l 118 703 l 118 793 q 172 939 118 878 q 329 1000 226 1000 l 432 1000 l 432 847 l 363 847 q 299 782 299 847 l 299 703 l 432 703 l 432 565 m 736 0 l 556 0 l 556 703 l 736 703 l 736 0 m 739 847 l 553 847 l 553 994 l 739 994 l 739 847 z "},"ﬂ":{"ha":900,"x_min":43,"x_max":867,"o":"m 432 565 l 299 565 l 299 0 l 118 0 l 118 565 l 43 565 l 43 703 l 118 703 l 118 793 q 172 939 118 878 q 329 1000 226 1000 l 432 1000 l 432 847 l 363 847 q 299 782 299 847 l 299 703 l 432 703 l 432 565 m 867 0 l 764 0 q 606 61 660 0 q 553 207 553 122 l 553 989 l 733 989 l 733 218 q 797 153 733 153 l 867 153 l 867 0 z "}}}
